FunikoRoman-Regular.ufo
<glyph name="exclam" format="2">
  <advance width="122"/>
  <unicode hex="0021"/>
  <outline>
    <contour>
      <point x="65" y="170" type="curve" smooth="yes"/>
      <point x="69" y="113"/>
      <point x="6" y="106"/>
      <point x="6" y="193" type="curve" smooth="yes"/>
      <point x="0" y="344"/>
      <point x="11" y="498"/>
      <point x="6" y="654" type="curve" smooth="yes"/>
      <point x="6" y="688"/>
      <point x="13" y="700"/>
      <point x="36" y="700" type="curve" smooth="yes"/>
      <point x="54" y="700"/>
      <point x="63" y="688"/>
      <point x="63" y="654" type="curve" smooth="yes"/>
      <point x="67" y="487"/>
      <point x="51" y="329"/>
    </contour>
    <contour>
      <point x="67" y="67" type="curve" smooth="yes"/>
      <point x="68" y="55"/>
      <point x="68" y="42"/>
      <point x="68" y="29" type="curve" smooth="yes"/>
      <point x="67" y="-10"/>
      <point x="8" y="-7"/>
      <point x="7" y="29" type="curve" smooth="yes"/>
      <point x="7" y="40"/>
      <point x="7" y="53"/>
      <point x="7" y="65" type="curve" smooth="yes"/>
      <point x="6" y="102"/>
      <point x="62" y="111"/>
    </contour>
  </outline>
</glyph>
<glyph name="numbersign" format="2">
  <advance width="466"/>
  <unicode hex="0023"/>
  <outline>
    <contour>
      <point x="324" y="283" type="curve"/>
      <point x="329" y="231"/>
      <point x="332" y="191"/>
      <point x="332" y="149" type="curve" smooth="yes"/>
      <point x="332" y="119"/>
      <point x="281" y="110"/>
      <point x="281" y="144" type="curve"/>
      <point x="270" y="188"/>
      <point x="269" y="227"/>
      <point x="269" y="267" type="curve"/>
      <point x="241" y="260"/>
      <point x="228" y="253"/>
      <point x="207" y="247" type="curve"/>
      <point x="214" y="209"/>
      <point x="218" y="174"/>
      <point x="225" y="139" type="curve" smooth="yes"/>
      <point x="235" y="92"/>
      <point x="165" y="95"/>
      <point x="167" y="136" type="curve"/>
      <point x="159" y="162"/>
      <point x="153" y="198"/>
      <point x="153" y="226" type="curve"/>
      <point x="128" y="223"/>
      <point x="110" y="214"/>
      <point x="88" y="209" type="curve" smooth="yes"/>
      <point x="34" y="192"/>
      <point x="25" y="248"/>
      <point x="68" y="260" type="curve" smooth="yes"/>
      <point x="95" y="268"/>
      <point x="120" y="279"/>
      <point x="150" y="287" type="curve"/>
      <point x="150" y="309"/>
      <point x="145" y="335"/>
      <point x="145" y="359" type="curve"/>
      <point x="110" y="351"/>
      <point x="82" y="342"/>
      <point x="51" y="333" type="curve"/>
      <point x="11" y="330"/>
      <point x="-8" y="376"/>
      <point x="43" y="390" type="curve" smooth="yes"/>
      <point x="71" y="398"/>
      <point x="107" y="407"/>
      <point x="137" y="416" type="curve"/>
      <point x="137" y="533"/>
      <point x="137" y="552"/>
      <point x="137" y="571" type="curve"/>
      <point x="152" y="615"/>
      <point x="191" y="623"/>
      <point x="196" y="571" type="curve"/>
      <point x="196" y="461"/>
      <point x="196" y="450"/>
      <point x="196" y="440" type="curve"/>
      <point x="218" y="441"/>
      <point x="237" y="447"/>
      <point x="258" y="450" type="curve"/>
      <point x="258" y="546"/>
      <point x="258" y="565"/>
      <point x="258" y="583" type="curve" smooth="yes"/>
      <point x="258" y="639"/>
      <point x="314" y="636"/>
      <point x="314" y="580" type="curve" smooth="yes"/>
      <point x="314" y="547"/>
      <point x="314" y="506"/>
      <point x="314" y="462" type="curve"/>
      <point x="333" y="468"/>
      <point x="374" y="475"/>
      <point x="389" y="468" type="curve" smooth="yes"/>
      <point x="401" y="464"/>
      <point x="414" y="425"/>
      <point x="380" y="416" type="curve" smooth="yes"/>
      <point x="358" y="410"/>
      <point x="342" y="408"/>
      <point x="318" y="405" type="curve"/>
      <point x="318" y="380"/>
      <point x="318" y="364"/>
      <point x="318" y="339" type="curve"/>
      <point x="342" y="345"/>
      <point x="366" y="353"/>
      <point x="389" y="353" type="curve" smooth="yes"/>
      <point x="419" y="353"/>
      <point x="425" y="305"/>
      <point x="396" y="300" type="curve" smooth="yes"/>
      <point x="375" y="295"/>
      <point x="354" y="287"/>
    </contour>
    <contour>
      <point x="207" y="303" type="curve"/>
      <point x="228" y="310"/>
      <point x="241" y="317"/>
      <point x="265" y="324" type="curve"/>
      <point x="264" y="348"/>
      <point x="261" y="366"/>
      <point x="261" y="394" type="curve"/>
      <point x="241" y="382"/>
      <point x="220" y="382"/>
      <point x="202" y="377" type="curve"/>
      <point x="202" y="353"/>
      <point x="207" y="333"/>
    </contour>
  </outline>
</glyph>
<glyph name="dollar" format="2">
  <advance width="368"/>
  <unicode hex="0024"/>
  <outline>
    <contour>
      <point x="86" y="47" type="curve"/>
      <point x="64" y="47"/>
      <point x="62" y="51"/>
      <point x="32" y="64" type="curve"/>
      <point x="-26" y="106"/>
      <point x="10" y="152"/>
      <point x="47" y="136" type="curve" smooth="yes"/>
      <point x="60" y="131"/>
      <point x="67" y="132"/>
      <point x="86" y="124" type="curve"/>
      <point x="86" y="218"/>
      <point x="85" y="302"/>
      <point x="85" y="395" type="curve"/>
      <point x="-24" y="425"/>
      <point x="-10" y="568"/>
      <point x="64" y="623" type="curve" smooth="yes"/>
      <point x="85" y="637"/>
      <point x="89" y="661"/>
      <point x="89" y="687" type="curve" smooth="yes"/>
      <point x="89" y="715"/>
      <point x="90" y="742"/>
      <point x="95" y="766" type="curve" smooth="yes"/>
      <point x="102" y="818"/>
      <point x="167" y="807"/>
      <point x="158" y="756" type="curve"/>
      <point x="158" y="730"/>
      <point x="163" y="701"/>
      <point x="156" y="668" type="curve"/>
      <point x="175" y="665"/>
      <point x="197" y="661"/>
      <point x="210" y="657" type="curve" smooth="yes"/>
      <point x="225" y="649"/>
      <point x="237" y="640"/>
      <point x="246" y="633" type="curve" smooth="yes"/>
      <point x="277" y="609"/>
      <point x="243" y="563"/>
      <point x="210" y="582" type="curve" smooth="yes"/>
      <point x="197" y="588"/>
      <point x="177" y="594"/>
      <point x="156" y="602" type="curve"/>
      <point x="155" y="546"/>
      <point x="157" y="497"/>
      <point x="151" y="447" type="curve"/>
      <point x="245" y="416"/>
      <point x="310" y="356"/>
      <point x="306" y="251" type="curve" smooth="yes"/>
      <point x="302" y="156"/>
      <point x="250" y="88"/>
      <point x="153" y="47" type="curve"/>
      <point x="153" y="21"/>
      <point x="152" y="-10"/>
      <point x="158" y="-40" type="curve"/>
      <point x="160" y="-118"/>
      <point x="96" y="-118"/>
      <point x="88" y="-63" type="curve"/>
      <point x="88" y="-29"/>
      <point x="86" y="8"/>
    </contour>
    <contour>
      <point x="153" y="129" type="curve"/>
      <point x="214" y="148"/>
      <point x="246" y="208"/>
      <point x="237" y="275" type="curve" smooth="yes"/>
      <point x="233" y="330"/>
      <point x="206" y="362"/>
      <point x="152" y="370" type="curve"/>
      <point x="152" y="287"/>
      <point x="153" y="208"/>
    </contour>
    <contour>
      <point x="85" y="533" type="curve"/>
      <point x="62" y="502"/>
      <point x="62" y="495"/>
      <point x="85" y="470" type="curve"/>
      <point x="85" y="495"/>
      <point x="85" y="514"/>
    </contour>
  </outline>
</glyph>
<glyph name="quotesingle" format="2">
  <advance width="197"/>
  <unicode hex="0027"/>
  <outline>
    <contour>
      <point x="95" y="654" type="curve"/>
      <point x="92" y="606"/>
      <point x="91" y="564"/>
      <point x="91" y="518" type="curve" smooth="yes"/>
      <point x="91" y="469"/>
      <point x="42" y="452"/>
      <point x="34" y="514" type="curve"/>
      <point x="36" y="562"/>
      <point x="34" y="613"/>
      <point x="37" y="660" type="curve"/>
      <point x="48" y="705"/>
      <point x="91" y="700"/>
    </contour>
  </outline>
</glyph>
<glyph name="parenright" format="2">
  <advance width="220"/>
  <unicode hex="0029"/>
  <outline>
    <contour>
      <point x="160" y="555" type="curve"/>
      <point x="160" y="424"/>
      <point x="165" y="295"/>
      <point x="158" y="141" type="curve" smooth="yes"/>
      <point x="158" y="64"/>
      <point x="99" y="21"/>
      <point x="40" y="-15" type="curve" smooth="yes"/>
      <point x="18" y="-30"/>
      <point x="-2" y="3"/>
      <point x="17" y="21" type="curve" smooth="yes"/>
      <point x="63" y="56"/>
      <point x="105" y="80"/>
      <point x="105" y="151" type="curve" smooth="yes"/>
      <point x="105" y="290"/>
      <point x="109" y="429"/>
      <point x="100" y="577" type="curve" smooth="yes"/>
      <point x="100" y="636"/>
      <point x="64" y="651"/>
      <point x="30" y="684" type="curve"/>
      <point x="3" y="703"/>
      <point x="27" y="738"/>
      <point x="55" y="715" type="curve"/>
      <point x="120" y="685"/>
      <point x="165" y="633"/>
    </contour>
  </outline>
</glyph>
<glyph name="plus" format="2">
  <advance width="444"/>
  <unicode hex="002B"/>
  <outline>
    <contour>
      <point x="157" y="332" type="curve"/>
      <point x="142" y="332"/>
      <point x="41" y="327"/>
      <point x="36" y="332" type="curve"/>
      <point x="8" y="337"/>
      <point x="7" y="373"/>
      <point x="36" y="379" type="curve"/>
      <point x="45" y="386"/>
      <point x="148" y="389"/>
      <point x="157" y="389" type="curve"/>
      <point x="157" y="468"/>
      <point x="155" y="474"/>
      <point x="155" y="481" type="curve" smooth="yes"/>
      <point x="155" y="541"/>
      <point x="212" y="537"/>
      <point x="213" y="485" type="curve" smooth="yes"/>
      <point x="213" y="455"/>
      <point x="213" y="424"/>
      <point x="213" y="393" type="curve"/>
      <point x="311" y="393"/>
      <point x="321" y="395"/>
      <point x="332" y="395" type="curve" smooth="yes"/>
      <point x="368" y="395"/>
      <point x="369" y="339"/>
      <point x="332" y="339" type="curve"/>
      <point x="290" y="334"/>
      <point x="251" y="335"/>
      <point x="215" y="335" type="curve"/>
      <point x="217" y="282"/>
      <point x="216" y="260"/>
      <point x="215" y="222" type="curve" smooth="yes"/>
      <point x="210" y="154"/>
      <point x="157" y="167"/>
      <point x="157" y="213" type="curve" smooth="yes"/>
      <point x="155" y="254"/>
      <point x="158" y="290"/>
    </contour>
  </outline>
</glyph>
<glyph name="comma" format="2">
  <advance width="240"/>
  <unicode hex="002C"/>
  <outline>
    <contour>
      <point x="120" y="37" type="curve" smooth="yes"/>
      <point x="106" y="5"/>
      <point x="99" y="-36"/>
      <point x="86" y="-68" type="curve"/>
      <point x="73" y="-118"/>
      <point x="20" y="-112"/>
      <point x="30" y="-68" type="curve" smooth="yes"/>
      <point x="43" y="-21"/>
      <point x="60" y="26"/>
      <point x="74" y="73" type="curve" smooth="yes"/>
      <point x="84" y="115"/>
      <point x="145" y="84"/>
    </contour>
  </outline>
</glyph>
<glyph name="period" format="2">
  <advance width="252"/>
  <unicode hex="002E"/>
  <outline>
    <contour>
      <point x="96" y="65" type="curve" smooth="yes"/>
      <point x="91" y="56"/>
      <point x="91" y="42"/>
      <point x="88" y="32" type="curve" smooth="yes"/>
      <point x="78" y="-4"/>
      <point x="30" y="7"/>
      <point x="33" y="42" type="curve" smooth="yes"/>
      <point x="33" y="56"/>
      <point x="40" y="70"/>
      <point x="40" y="84" type="curve"/>
      <point x="63" y="131"/>
      <point x="103" y="103"/>
    </contour>
  </outline>
</glyph>
<glyph name="zero" format="2">
  <advance width="496"/>
  <unicode hex="0030"/>
  <outline>
    <contour>
      <point x="18" y="288" type="curve" smooth="yes"/>
      <point x="21" y="380"/>
      <point x="31" y="461"/>
      <point x="60" y="536" type="curve" smooth="yes"/>
      <point x="76" y="575"/>
      <point x="96" y="615"/>
      <point x="123" y="647" type="curve" smooth="yes"/>
      <point x="175" y="711"/>
      <point x="234" y="718"/>
      <point x="306" y="678" type="curve" smooth="yes"/>
      <point x="379" y="637"/>
      <point x="419" y="567"/>
      <point x="430" y="478" type="curve" smooth="yes"/>
      <point x="447" y="328"/>
      <point x="411" y="192"/>
      <point x="327" y="74" type="curve" smooth="yes"/>
      <point x="298" y="36"/>
      <point x="263" y="9"/>
      <point x="219" y="0" type="curve" smooth="yes"/>
      <point x="182" y="-4"/>
      <point x="150" y="5"/>
      <point x="121" y="30" type="curve" smooth="yes"/>
      <point x="63" y="79"/>
      <point x="32" y="145"/>
      <point x="22" y="226" type="curve" smooth="yes"/>
      <point x="19" y="251"/>
      <point x="19" y="275"/>
    </contour>
    <contour>
      <point x="75" y="309" type="curve" smooth="yes"/>
      <point x="74" y="217"/>
      <point x="90" y="144"/>
      <point x="144" y="89" type="curve"/>
      <point x="209" y="32"/>
      <point x="267" y="85"/>
      <point x="302" y="143" type="curve" smooth="yes"/>
      <point x="351" y="220"/>
      <point x="376" y="310"/>
      <point x="377" y="404" type="curve" smooth="yes"/>
      <point x="380" y="520"/>
      <point x="348" y="586"/>
      <point x="252" y="637" type="curve" smooth="yes"/>
      <point x="225" y="653"/>
      <point x="197" y="636"/>
      <point x="175" y="616" type="curve" smooth="yes"/>
      <point x="145" y="590"/>
      <point x="127" y="554"/>
      <point x="112" y="515" type="curve" smooth="yes"/>
      <point x="87" y="444"/>
      <point x="77" y="370"/>
    </contour>
  </outline>
</glyph>
<glyph name="four" format="2">
  <advance width="386"/>
  <unicode hex="0034"/>
  <outline>
    <contour>
      <point x="274" y="180" type="curve"/>
      <point x="214" y="178"/>
      <point x="160" y="176"/>
      <point x="105" y="173" type="curve" smooth="yes"/>
      <point x="86" y="173"/>
      <point x="68" y="172"/>
      <point x="51" y="174" type="curve" smooth="yes"/>
      <point x="10" y="178"/>
      <point x="-7" y="211"/>
      <point x="11" y="251" type="curve" smooth="yes"/>
      <point x="29" y="285"/>
      <point x="50" y="317"/>
      <point x="68" y="351" type="curve" smooth="yes"/>
      <point x="112" y="429"/>
      <point x="157" y="509"/>
      <point x="199" y="590" type="curve" smooth="yes"/>
      <point x="212" y="615"/>
      <point x="222" y="642"/>
      <point x="229" y="671" type="curve" smooth="yes"/>
      <point x="242" y="718"/>
      <point x="305" y="718"/>
      <point x="311" y="661" type="curve"/>
      <point x="318" y="461"/>
      <point x="327" y="261"/>
      <point x="335" y="59" type="curve" smooth="yes"/>
      <point x="336" y="46"/>
      <point x="336" y="32"/>
      <point x="336" y="18" type="curve" smooth="yes"/>
      <point x="328" y="-26"/>
      <point x="280" y="-25"/>
      <point x="280" y="18" type="curve" smooth="yes"/>
      <point x="278" y="75"/>
      <point x="277" y="128"/>
    </contour>
    <contour>
      <point x="74" y="241" type="curve"/>
      <point x="95" y="232"/>
      <point x="242" y="239"/>
      <point x="268" y="251" type="curve"/>
      <point x="273" y="313"/>
      <point x="263" y="528"/>
      <point x="253" y="558" type="curve"/>
      <point x="194" y="453"/>
      <point x="134" y="348"/>
    </contour>
  </outline>
</glyph>
<glyph name="six" format="2">
  <advance width="414"/>
  <unicode hex="0036"/>
  <outline>
    <contour>
      <point x="100" y="432" type="curve"/>
      <point x="135" y="454"/>
      <point x="174" y="467"/>
      <point x="215" y="460" type="curve" smooth="yes"/>
      <point x="294" y="447"/>
      <point x="351" y="377"/>
      <point x="347" y="288" type="curve" smooth="yes"/>
      <point x="347" y="209"/>
      <point x="326" y="135"/>
      <point x="284" y="69" type="curve" smooth="yes"/>
      <point x="226" y="-30"/>
      <point x="104" y="-51"/>
      <point x="49" y="49" type="curve" smooth="yes"/>
      <point x="-50" y="228"/>
      <point x="25" y="544"/>
      <point x="145" y="678" type="curve" smooth="yes"/>
      <point x="200" y="739"/>
      <point x="248" y="660"/>
      <point x="213" y="647" type="curve" smooth="yes"/>
      <point x="161" y="623"/>
      <point x="90" y="482"/>
    </contour>
    <contour>
      <point x="78" y="116" type="curve"/>
      <point x="115" y="32"/>
      <point x="189" y="31"/>
      <point x="236" y="101" type="curve" smooth="yes"/>
      <point x="274" y="161"/>
      <point x="293" y="228"/>
      <point x="290" y="300" type="curve" smooth="yes"/>
      <point x="284" y="431"/>
      <point x="111" y="416"/>
      <point x="72" y="319" type="curve" smooth="yes"/>
      <point x="56" y="270"/>
      <point x="62" y="168"/>
    </contour>
  </outline>
</glyph>
<glyph name="nine" format="2">
  <advance width="405"/>
  <unicode hex="0039"/>
  <outline>
    <contour>
      <point x="253" y="256" type="curve"/>
      <point x="218" y="234"/>
      <point x="179" y="221"/>
      <point x="138" y="228" type="curve" smooth="yes"/>
      <point x="59" y="241"/>
      <point x="2" y="311"/>
      <point x="6" y="400" type="curve" smooth="yes"/>
      <point x="6" y="479"/>
      <point x="27" y="553"/>
      <point x="69" y="619" type="curve" smooth="yes"/>
      <point x="127" y="718"/>
      <point x="249" y="739"/>
      <point x="304" y="639" type="curve" smooth="yes"/>
      <point x="403" y="460"/>
      <point x="328" y="144"/>
      <point x="208" y="10" type="curve" smooth="yes"/>
      <point x="153" y="-51"/>
      <point x="105" y="28"/>
      <point x="140" y="41" type="curve" smooth="yes"/>
      <point x="192" y="65"/>
      <point x="263" y="206"/>
    </contour>
    <contour>
      <point x="275" y="572" type="curve"/>
      <point x="238" y="656"/>
      <point x="164" y="657"/>
      <point x="117" y="587" type="curve" smooth="yes"/>
      <point x="79" y="527"/>
      <point x="60" y="460"/>
      <point x="63" y="388" type="curve" smooth="yes"/>
      <point x="69" y="257"/>
      <point x="242" y="272"/>
      <point x="281" y="369" type="curve" smooth="yes"/>
      <point x="297" y="418"/>
      <point x="291" y="520"/>
    </contour>
  </outline>
</glyph>
<glyph name="less" format="2">
  <advance width="356"/>
  <unicode hex="003C"/>
  <outline>
    <contour>
      <point x="83" y="320" type="curve"/>
      <point x="136" y="283"/>
      <point x="202" y="241"/>
      <point x="250" y="204" type="curve" smooth="yes"/>
      <point x="298" y="169"/>
      <point x="266" y="126"/>
      <point x="218" y="156" type="curve" smooth="yes"/>
      <point x="161" y="188"/>
      <point x="99" y="232"/>
      <point x="48" y="271" type="curve" smooth="yes"/>
      <point x="7" y="298"/>
      <point x="7" y="336"/>
      <point x="48" y="369" type="curve" smooth="yes"/>
      <point x="106" y="415"/>
      <point x="163" y="463"/>
      <point x="225" y="508" type="curve" smooth="yes"/>
      <point x="257" y="532"/>
      <point x="286" y="493"/>
      <point x="265" y="470" type="curve" smooth="yes"/>
      <point x="208" y="413"/>
      <point x="149" y="370"/>
    </contour>
  </outline>
</glyph>
<glyph name="greater" format="2">
  <advance width="352"/>
  <unicode hex="003E"/>
  <outline>
    <contour>
      <point x="222" y="320" type="curve"/>
      <point x="156" y="370"/>
      <point x="97" y="413"/>
      <point x="40" y="470" type="curve" smooth="yes"/>
      <point x="19" y="493"/>
      <point x="48" y="532"/>
      <point x="80" y="508" type="curve" smooth="yes"/>
      <point x="142" y="463"/>
      <point x="199" y="415"/>
      <point x="257" y="369" type="curve" smooth="yes"/>
      <point x="298" y="336"/>
      <point x="298" y="298"/>
      <point x="257" y="271" type="curve" smooth="yes"/>
      <point x="206" y="232"/>
      <point x="144" y="188"/>
      <point x="87" y="156" type="curve" smooth="yes"/>
      <point x="39" y="126"/>
      <point x="7" y="169"/>
      <point x="55" y="204" type="curve" smooth="yes"/>
      <point x="103" y="241"/>
      <point x="169" y="283"/>
    </contour>
  </outline>
</glyph>
<glyph name="question" format="2">
  <advance width="334"/>
  <unicode hex="003F"/>
  <outline>
    <contour>
      <point x="113" y="367" type="curve" smooth="yes"/>
      <point x="173" y="420"/>
      <point x="232" y="483"/>
      <point x="213" y="564" type="curve" smooth="yes"/>
      <point x="196" y="632"/>
      <point x="100" y="662"/>
      <point x="59" y="600" type="curve"/>
      <point x="32" y="573"/>
      <point x="-7" y="599"/>
      <point x="9" y="630" type="curve" smooth="yes"/>
      <point x="16" y="644"/>
      <point x="30" y="659"/>
      <point x="44" y="669" type="curve" smooth="yes"/>
      <point x="138" y="729"/>
      <point x="262" y="663"/>
      <point x="269" y="551" type="curve" smooth="yes"/>
      <point x="278" y="451"/>
      <point x="216" y="379"/>
      <point x="145" y="323" type="curve" smooth="yes"/>
      <point x="104" y="288"/>
      <point x="113" y="237"/>
      <point x="113" y="196" type="curve" smooth="yes"/>
      <point x="113" y="180"/>
      <point x="102" y="167"/>
      <point x="86" y="163" type="curve" smooth="yes"/>
      <point x="73" y="163"/>
      <point x="59" y="172"/>
      <point x="54" y="194" type="curve"/>
      <point x="53" y="295"/>
      <point x="77" y="335"/>
    </contour>
    <contour>
      <point x="59" y="46" type="curve" smooth="yes"/>
      <point x="59" y="73"/>
      <point x="68" y="94"/>
      <point x="86" y="94" type="curve" smooth="yes"/>
      <point x="109" y="94"/>
      <point x="120" y="78"/>
      <point x="120" y="56" type="curve" smooth="yes"/>
      <point x="120" y="34"/>
      <point x="102" y="12"/>
      <point x="86" y="12" type="curve" smooth="yes"/>
      <point x="68" y="12"/>
      <point x="59" y="30"/>
    </contour>
  </outline>
</glyph>
<glyph name="A" format="2">
  <advance width="380"/>
  <unicode hex="0041"/>
  <outline>
    <contour>
      <point x="259" y="272" type="curve"/>
      <point x="203" y="284"/>
      <point x="152" y="275"/>
      <point x="98" y="267" type="curve"/>
      <point x="89" y="205"/>
      <point x="64" y="110"/>
      <point x="63" y="48" type="curve" smooth="yes"/>
      <point x="63" y="-10"/>
      <point x="-9" y="-17"/>
      <point x="2" y="35" type="curve" smooth="yes"/>
      <point x="10" y="85"/>
      <point x="18" y="169"/>
      <point x="29" y="217" type="curve" smooth="yes"/>
      <point x="69" y="394"/>
      <point x="127" y="531"/>
      <point x="212" y="661" type="curve" smooth="yes"/>
      <point x="242" y="703"/>
      <point x="306" y="729"/>
      <point x="311" y="657" type="curve"/>
      <point x="312" y="415"/>
      <point x="315" y="232"/>
      <point x="317" y="48" type="curve" smooth="yes"/>
      <point x="317" y="-5"/>
      <point x="273" y="-17"/>
      <point x="265" y="16" type="curve"/>
      <point x="255" y="157"/>
      <point x="262" y="309"/>
    </contour>
    <contour>
      <point x="120" y="330" type="curve"/>
      <point x="165" y="333"/>
      <point x="211" y="334"/>
      <point x="260" y="336" type="curve"/>
      <point x="259" y="430"/>
      <point x="257" y="522"/>
      <point x="254" y="614" type="curve"/>
      <point x="209" y="574"/>
      <point x="131" y="408"/>
    </contour>
  </outline>
</glyph>
<glyph name="B" format="2">
  <advance width="369"/>
  <unicode hex="0042"/>
  <outline>
    <contour>
      <point x="193" y="380" type="curve"/>
      <point x="330" y="374"/>
      <point x="324" y="263"/>
      <point x="261" y="180" type="curve" smooth="yes"/>
      <point x="201" y="100"/>
      <point x="123" y="41"/>
      <point x="37" y="-8" type="curve"/>
      <point x="21" y="-11"/>
      <point x="4" y="-8"/>
      <point x="-4" y="8" type="curve" smooth="yes"/>
      <point x="-10" y="23"/>
      <point x="-8" y="39"/>
      <point x="6" y="44" type="curve" smooth="yes"/>
      <point x="26" y="56"/>
      <point x="24" y="72"/>
      <point x="24" y="89" type="curve" smooth="yes"/>
      <point x="24" y="219"/>
      <point x="25" y="240"/>
      <point x="12" y="257" type="curve" smooth="yes"/>
      <point x="8" y="261"/>
      <point x="8" y="272"/>
      <point x="9" y="278" type="curve" smooth="yes"/>
      <point x="29" y="309"/>
      <point x="23" y="339"/>
      <point x="23" y="369" type="curve" smooth="yes"/>
      <point x="23" y="460"/>
      <point x="21" y="549"/>
      <point x="21" y="638" type="curve" smooth="yes"/>
      <point x="21" y="680"/>
      <point x="29" y="689"/>
      <point x="70" y="697" type="curve" smooth="yes"/>
      <point x="119" y="705"/>
      <point x="168" y="699"/>
      <point x="212" y="671" type="curve" smooth="yes"/>
      <point x="270" y="631"/>
      <point x="294" y="566"/>
      <point x="268" y="500" type="curve" smooth="yes"/>
      <point x="250" y="454"/>
      <point x="220" y="418"/>
    </contour>
    <contour>
      <point x="79" y="358" type="curve"/>
      <point x="138" y="400"/>
      <point x="259" y="511"/>
      <point x="210" y="597" type="curve" smooth="yes"/>
      <point x="192" y="627"/>
      <point x="121" y="657"/>
      <point x="77" y="633" type="curve"/>
      <point x="77" y="552"/>
      <point x="77" y="469"/>
      <point x="77" y="386" type="curve" smooth="yes"/>
      <point x="77" y="377"/>
      <point x="77" y="367"/>
    </contour>
    <contour>
      <point x="81" y="87" type="curve"/>
      <point x="143" y="129"/>
      <point x="189" y="172"/>
      <point x="226" y="225" type="curve" smooth="yes"/>
      <point x="245" y="257"/>
      <point x="272" y="307"/>
      <point x="223" y="317" type="curve" smooth="yes"/>
      <point x="189" y="326"/>
      <point x="154" y="322"/>
      <point x="123" y="304" type="curve" smooth="yes"/>
      <point x="103" y="294"/>
      <point x="81" y="280"/>
      <point x="81" y="255" type="curve" smooth="yes"/>
      <point x="79" y="202"/>
      <point x="81" y="148"/>
    </contour>
  </outline>
</glyph>
<glyph name="F" format="2">
  <advance width="444"/>
  <unicode hex="0046"/>
  <outline>
    <contour>
      <point x="83" y="245" type="curve"/>
      <point x="85" y="172"/>
      <point x="73" y="105"/>
      <point x="94" y="39" type="curve" smooth="yes"/>
      <point x="102" y="18"/>
      <point x="89" y="-3"/>
      <point x="72" y="-8" type="curve" smooth="yes"/>
      <point x="53" y="-14"/>
      <point x="36" y="-1"/>
      <point x="35" y="25" type="curve" smooth="yes"/>
      <point x="29" y="80"/>
      <point x="29" y="136"/>
      <point x="27" y="189" type="curve" smooth="yes"/>
      <point x="25" y="214"/>
      <point x="33" y="237"/>
      <point x="10" y="255" type="curve" smooth="yes"/>
      <point x="6" y="259"/>
      <point x="6" y="280"/>
      <point x="11" y="284" type="curve" smooth="yes"/>
      <point x="31" y="297"/>
      <point x="27" y="319"/>
      <point x="29" y="336" type="curve" smooth="yes"/>
      <point x="37" y="411"/>
      <point x="43" y="490"/>
      <point x="59" y="566" type="curve"/>
      <point x="100" y="699"/>
      <point x="196" y="703"/>
      <point x="311" y="699" type="curve"/>
      <point x="335" y="694"/>
      <point x="403" y="678"/>
      <point x="380" y="643" type="curve"/>
      <point x="365" y="632"/>
      <point x="350" y="629"/>
      <point x="333" y="635" type="curve" smooth="yes"/>
      <point x="264" y="659"/>
      <point x="144" y="651"/>
      <point x="119" y="572" type="curve" smooth="yes"/>
      <point x="89" y="480"/>
      <point x="89" y="388"/>
      <point x="89" y="302" type="curve"/>
      <point x="162" y="307"/>
      <point x="236" y="312"/>
      <point x="307" y="319" type="curve" smooth="yes"/>
      <point x="322" y="319"/>
      <point x="336" y="312"/>
      <point x="337" y="296" type="curve" smooth="yes"/>
      <point x="341" y="280"/>
      <point x="333" y="271"/>
      <point x="319" y="267" type="curve" smooth="yes"/>
      <point x="242" y="253"/>
      <point x="167" y="251"/>
    </contour>
  </outline>
</glyph>
<glyph name="G" format="2">
  <advance width="468"/>
  <unicode hex="0047"/>
  <outline>
    <contour>
      <point x="344" y="241" type="curve"/>
      <point x="328" y="187"/>
      <point x="291" y="120"/>
      <point x="267" y="81" type="curve" smooth="yes"/>
      <point x="171" y="-75"/>
      <point x="22" y="57"/>
      <point x="8" y="191" type="curve" smooth="yes"/>
      <point x="-9" y="350"/>
      <point x="24" y="491"/>
      <point x="116" y="614" type="curve"/>
      <point x="180" y="690"/>
      <point x="267" y="752"/>
      <point x="346" y="655" type="curve" smooth="yes"/>
      <point x="360" y="635"/>
      <point x="366" y="614"/>
      <point x="362" y="589" type="curve" smooth="yes"/>
      <point x="358" y="556"/>
      <point x="314" y="550"/>
      <point x="310" y="583" type="curve" smooth="yes"/>
      <point x="302" y="647"/>
      <point x="235" y="653"/>
      <point x="198" y="616" type="curve" smooth="yes"/>
      <point x="129" y="549"/>
      <point x="86" y="464"/>
      <point x="68" y="363" type="curve" smooth="yes"/>
      <point x="58" y="302"/>
      <point x="56" y="239"/>
      <point x="68" y="178" type="curve" smooth="yes"/>
      <point x="81" y="111"/>
      <point x="157" y="21"/>
      <point x="212" y="103" type="curve" smooth="yes"/>
      <point x="263" y="178"/>
      <point x="302" y="271"/>
      <point x="336" y="365" type="curve"/>
      <point x="303" y="365"/>
      <point x="281" y="367"/>
      <point x="261" y="361" type="curve"/>
      <point x="236" y="360"/>
      <point x="221" y="369"/>
      <point x="219" y="389" type="curve" smooth="yes"/>
      <point x="218" y="407"/>
      <point x="230" y="422"/>
      <point x="253" y="425" type="curve" smooth="yes"/>
      <point x="291" y="432"/>
      <point x="325" y="424"/>
      <point x="358" y="430" type="curve" smooth="yes"/>
      <point x="387" y="434"/>
      <point x="402" y="421"/>
      <point x="407" y="386" type="curve"/>
      <point x="402" y="271"/>
      <point x="393" y="170"/>
      <point x="395" y="66" type="curve" smooth="yes"/>
      <point x="396" y="14"/>
      <point x="346" y="6"/>
      <point x="340" y="54" type="curve" smooth="yes"/>
      <point x="335" y="83"/>
      <point x="349" y="235"/>
    </contour>
  </outline>
</glyph>
<glyph name="J" format="2">
  <advance width="504"/>
  <unicode hex="004A"/>
  <anchor x="336" y="703" name="top"/>
  <outline>
    <contour>
      <point x="321" y="641" type="curve"/>
      <point x="291" y="641"/>
      <point x="268" y="640"/>
      <point x="251" y="649" type="curve" smooth="yes"/>
      <point x="222" y="662"/>
      <point x="237" y="703"/>
      <point x="264" y="703" type="curve" smooth="yes"/>
      <point x="397" y="703"/>
      <point x="402" y="703"/>
      <point x="406" y="700" type="curve" smooth="yes"/>
      <point x="438" y="697"/>
      <point x="437" y="656"/>
      <point x="410" y="649" type="curve" smooth="yes"/>
      <point x="402" y="647"/>
      <point x="395" y="643"/>
      <point x="382" y="641" type="curve"/>
      <point x="382" y="630"/>
      <point x="384" y="616"/>
      <point x="384" y="605" type="curve" smooth="yes"/>
      <point x="396" y="495"/>
      <point x="396" y="386"/>
      <point x="390" y="280" type="curve" smooth="yes"/>
      <point x="383" y="118"/>
      <point x="276" y="-38"/>
      <point x="101" y="10" type="curve" smooth="yes"/>
      <point x="78" y="16"/>
      <point x="54" y="25"/>
      <point x="34" y="34" type="curve" smooth="yes"/>
      <point x="-7" y="50"/>
      <point x="14" y="99"/>
      <point x="53" y="87" type="curve" smooth="yes"/>
      <point x="65" y="83"/>
      <point x="76" y="78"/>
      <point x="90" y="74" type="curve" smooth="yes"/>
      <point x="257" y="15"/>
      <point x="319" y="151"/>
      <point x="333" y="284" type="curve" smooth="yes"/>
      <point x="345" y="393"/>
      <point x="339" y="502"/>
      <point x="326" y="610" type="curve" smooth="yes"/>
      <point x="326" y="620"/>
      <point x="325" y="630"/>
    </contour>
  </outline>
</glyph>
<glyph name="K" format="2">
  <advance width="460"/>
  <unicode hex="004B"/>
  <outline>
    <contour>
      <point x="78" y="255" type="curve"/>
      <point x="87" y="264"/>
      <point x="91" y="269"/>
      <point x="95" y="275" type="curve" smooth="yes"/>
      <point x="176" y="395"/>
      <point x="263" y="518"/>
      <point x="330" y="647" type="curve" smooth="yes"/>
      <point x="337" y="657"/>
      <point x="342" y="666"/>
      <point x="347" y="674" type="curve" smooth="yes"/>
      <point x="358" y="687"/>
      <point x="371" y="691"/>
      <point x="381" y="680" type="curve" smooth="yes"/>
      <point x="389" y="672"/>
      <point x="393" y="658"/>
      <point x="393" y="649" type="curve" smooth="yes"/>
      <point x="393" y="639"/>
      <point x="385" y="627"/>
      <point x="381" y="620" type="curve" smooth="yes"/>
      <point x="313" y="483"/>
      <point x="221" y="365"/>
      <point x="140" y="239" type="curve"/>
      <point x="217" y="193"/>
      <point x="291" y="148"/>
      <point x="367" y="105" type="curve" smooth="yes"/>
      <point x="371" y="103"/>
      <point x="375" y="99"/>
      <point x="379" y="95" type="curve" smooth="yes"/>
      <point x="389" y="87"/>
      <point x="394" y="74"/>
      <point x="389" y="60" type="curve" smooth="yes"/>
      <point x="381" y="44"/>
      <point x="367" y="42"/>
      <point x="353" y="47" type="curve" smooth="yes"/>
      <point x="344" y="50"/>
      <point x="333" y="56"/>
      <point x="325" y="62" type="curve" smooth="yes"/>
      <point x="233" y="117"/>
      <point x="159" y="164"/>
      <point x="78" y="197" type="curve"/>
      <point x="73" y="147"/>
      <point x="73" y="99"/>
      <point x="75" y="52" type="curve" smooth="yes"/>
      <point x="78" y="47"/>
      <point x="80" y="39"/>
      <point x="80" y="33" type="curve" smooth="yes"/>
      <point x="78" y="16"/>
      <point x="67" y="2"/>
      <point x="53" y="0" type="curve" smooth="yes"/>
      <point x="38" y="-1"/>
      <point x="25" y="10"/>
      <point x="22" y="26" type="curve" smooth="yes"/>
      <point x="20" y="42"/>
      <point x="20" y="58"/>
      <point x="20" y="74" type="curve" smooth="yes"/>
      <point x="17" y="266"/>
      <point x="7" y="455"/>
      <point x="5" y="647" type="curve" smooth="yes"/>
      <point x="5" y="655"/>
      <point x="2" y="661"/>
      <point x="2" y="666" type="curve" smooth="yes"/>
      <point x="2" y="689"/>
      <point x="12" y="700"/>
      <point x="28" y="703" type="curve" smooth="yes"/>
      <point x="44" y="703"/>
      <point x="55" y="694"/>
      <point x="57" y="671" type="curve" smooth="yes"/>
      <point x="65" y="541"/>
      <point x="72" y="410"/>
      <point x="73" y="278" type="curve" smooth="yes"/>
      <point x="73" y="275"/>
      <point x="75" y="269"/>
    </contour>
  </outline>
</glyph>
<glyph name="M" format="2">
  <advance width="586"/>
  <unicode hex="004D"/>
  <outline>
    <contour>
      <point x="258" y="178" type="curve"/>
      <point x="313" y="330"/>
      <point x="368" y="477"/>
      <point x="423" y="625" type="curve" smooth="yes"/>
      <point x="432" y="659"/>
      <point x="443" y="703"/>
      <point x="485" y="702" type="curve" smooth="yes"/>
      <point x="494" y="702"/>
      <point x="502" y="695"/>
      <point x="506" y="677" type="curve" smooth="yes"/>
      <point x="525" y="503"/>
      <point x="514" y="159"/>
      <point x="514" y="28" type="curve" smooth="yes"/>
      <point x="514" y="8"/>
      <point x="502" y="-8"/>
      <point x="485" y="-8" type="curve" smooth="yes"/>
      <point x="468" y="-8"/>
      <point x="460" y="6"/>
      <point x="456" y="23" type="curve" smooth="yes"/>
      <point x="452" y="191"/>
      <point x="462" y="364"/>
      <point x="449" y="531" type="curve"/>
      <point x="383" y="371"/>
      <point x="340" y="215"/>
      <point x="283" y="64" type="curve" smooth="yes"/>
      <point x="279" y="50"/>
      <point x="269" y="39"/>
      <point x="253" y="40" type="curve" smooth="yes"/>
      <point x="236" y="40"/>
      <point x="233" y="54"/>
      <point x="228" y="70" type="curve" smooth="yes"/>
      <point x="178" y="220"/>
      <point x="132" y="375"/>
      <point x="72" y="519" type="curve"/>
      <point x="73" y="363"/>
      <point x="72" y="189"/>
      <point x="72" y="43" type="curve" smooth="yes"/>
      <point x="72" y="35"/>
      <point x="72" y="27"/>
      <point x="69" y="21" type="curve" smooth="yes"/>
      <point x="64" y="6"/>
      <point x="55" y="-2"/>
      <point x="41" y="1" type="curve" smooth="yes"/>
      <point x="31" y="6"/>
      <point x="21" y="15"/>
      <point x="19" y="23" type="curve" smooth="yes"/>
      <point x="20" y="223"/>
      <point x="19" y="451"/>
      <point x="11" y="651" type="curve" smooth="yes"/>
      <point x="8" y="721"/>
      <point x="73" y="710"/>
      <point x="88" y="666" type="curve" smooth="yes"/>
      <point x="142" y="497"/>
      <point x="198" y="338"/>
    </contour>
  </outline>
</glyph>
<glyph name="N" format="2">
  <advance width="432"/>
  <unicode hex="004E"/>
  <outline>
    <contour>
      <point x="316" y="146" type="curve"/>
      <point x="308" y="319"/>
      <point x="306" y="487"/>
      <point x="302" y="655" type="curve" smooth="yes"/>
      <point x="302" y="656"/>
      <point x="302" y="659"/>
      <point x="302" y="662" type="curve" smooth="yes"/>
      <point x="308" y="710"/>
      <point x="356" y="709"/>
      <point x="360" y="662" type="curve"/>
      <point x="360" y="448"/>
      <point x="358" y="266"/>
      <point x="382" y="68" type="curve" smooth="yes"/>
      <point x="385" y="48"/>
      <point x="382" y="32"/>
      <point x="372" y="16" type="curve" smooth="yes"/>
      <point x="360" y="-4"/>
      <point x="341" y="-5"/>
      <point x="325" y="9" type="curve" smooth="yes"/>
      <point x="315" y="21"/>
      <point x="307" y="34"/>
      <point x="301" y="48" type="curve" smooth="yes"/>
      <point x="219" y="206"/>
      <point x="148" y="372"/>
      <point x="63" y="529" type="curve"/>
      <point x="65" y="349"/>
      <point x="69" y="188"/>
      <point x="72" y="49" type="curve" smooth="yes"/>
      <point x="72" y="40"/>
      <point x="72" y="28"/>
      <point x="69" y="20" type="curve" smooth="yes"/>
      <point x="57" y="-9"/>
      <point x="26" y="-5"/>
      <point x="16" y="20" type="curve"/>
      <point x="12" y="241"/>
      <point x="10" y="450"/>
      <point x="2" y="637" type="curve" smooth="yes"/>
      <point x="2" y="648"/>
      <point x="2" y="662"/>
      <point x="7" y="670" type="curve" smooth="yes"/>
      <point x="24" y="700"/>
      <point x="56" y="699"/>
      <point x="67" y="672" type="curve" smooth="yes"/>
      <point x="153" y="499"/>
      <point x="225" y="317"/>
    </contour>
  </outline>
</glyph>
<glyph name="Q" format="2">
  <advance width="508"/>
  <unicode hex="0051"/>
  <outline>
    <contour>
      <point x="278" y="61" type="curve"/>
      <point x="212" y="-28"/>
      <point x="113" y="-11"/>
      <point x="63" y="76" type="curve" smooth="yes"/>
      <point x="-4" y="190"/>
      <point x="-5" y="399"/>
      <point x="29" y="518" type="curve" smooth="yes"/>
      <point x="67" y="646"/>
      <point x="200" y="769"/>
      <point x="300" y="640" type="curve"/>
      <point x="368" y="527"/>
      <point x="380" y="302"/>
      <point x="341" y="184" type="curve" smooth="yes"/>
      <point x="324" y="133"/>
      <point x="321" y="55"/>
      <point x="404" y="55" type="curve"/>
      <point x="406" y="57" type="line"/>
      <point x="468" y="65"/>
      <point x="458" y="0"/>
      <point x="416" y="-5" type="curve" smooth="yes"/>
      <point x="347" y="-14"/>
      <point x="317" y="16"/>
    </contour>
    <contour>
      <point x="286" y="197" type="curve"/>
      <point x="307" y="304"/>
      <point x="316" y="512"/>
      <point x="257" y="597" type="curve"/>
      <point x="183" y="693"/>
      <point x="99" y="567"/>
      <point x="83" y="497" type="curve" smooth="yes"/>
      <point x="52" y="359"/>
      <point x="53" y="203"/>
      <point x="126" y="88" type="curve" smooth="yes"/>
      <point x="169" y="24"/>
      <point x="231" y="86"/>
      <point x="255" y="126" type="curve"/>
      <point x="247" y="142"/>
      <point x="237" y="151"/>
      <point x="233" y="165" type="curve" smooth="yes"/>
      <point x="226" y="187"/>
      <point x="237" y="225"/>
      <point x="265" y="209" type="curve" smooth="yes"/>
      <point x="270" y="207"/>
      <point x="276" y="202"/>
    </contour>
  </outline>
</glyph>
<glyph name="T" format="2">
  <advance width="464"/>
  <unicode hex="0054"/>
  <outline>
    <contour>
      <point x="239" y="636" type="curve"/>
      <point x="247" y="442"/>
      <point x="257" y="250"/>
      <point x="252" y="55" type="curve" smooth="yes"/>
      <point x="252" y="43"/>
      <point x="255" y="31"/>
      <point x="249" y="23" type="curve" smooth="yes"/>
      <point x="231" y="-2"/>
      <point x="212" y="-7"/>
      <point x="197" y="23" type="curve" smooth="yes"/>
      <point x="193" y="29"/>
      <point x="194" y="39"/>
      <point x="194" y="47" type="curve" smooth="yes"/>
      <point x="205" y="245"/>
      <point x="192" y="442"/>
      <point x="174" y="636" type="curve"/>
      <point x="122" y="633"/>
      <point x="74" y="623"/>
      <point x="33" y="630" type="curve"/>
      <point x="2" y="641"/>
      <point x="3" y="682"/>
      <point x="33" y="690" type="curve"/>
      <point x="154" y="692"/>
      <point x="274" y="706"/>
      <point x="390" y="694" type="curve"/>
      <point x="422" y="683"/>
      <point x="414" y="633"/>
      <point x="380" y="636" type="curve" smooth="yes"/>
      <point x="311" y="636"/>
      <point x="275" y="636"/>
    </contour>
  </outline>
</glyph>
<glyph name="V" format="2">
  <advance width="468"/>
  <unicode hex="0056"/>
  <outline>
    <contour>
      <point x="202" y="115" type="curve"/>
      <point x="250" y="298"/>
      <point x="295" y="471"/>
      <point x="339" y="644" type="curve" smooth="yes"/>
      <point x="357" y="709"/>
      <point x="412" y="689"/>
      <point x="394" y="630" type="curve" smooth="yes"/>
      <point x="334" y="432"/>
      <point x="299" y="226"/>
      <point x="242" y="28" type="curve" smooth="yes"/>
      <point x="229" y="-19"/>
      <point x="181" y="-15"/>
      <point x="170" y="26" type="curve" smooth="yes"/>
      <point x="106" y="232"/>
      <point x="64" y="441"/>
      <point x="14" y="648" type="curve" smooth="yes"/>
      <point x="10" y="676"/>
      <point x="32" y="713"/>
      <point x="59" y="686" type="curve" smooth="yes"/>
      <point x="67" y="675"/>
      <point x="70" y="660"/>
      <point x="75" y="648" type="curve" smooth="yes"/>
      <point x="124" y="452"/>
      <point x="160" y="286"/>
    </contour>
  </outline>
</glyph>
<glyph name="X" format="2">
  <advance width="424"/>
  <unicode hex="0058"/>
  <outline>
    <contour>
      <point x="187" y="279" type="curve"/>
      <point x="150" y="200"/>
      <point x="108" y="127"/>
      <point x="73" y="51" type="curve" smooth="yes"/>
      <point x="67" y="42"/>
      <point x="61" y="31"/>
      <point x="56" y="21" type="curve" smooth="yes"/>
      <point x="29" y="-13"/>
      <point x="-10" y="16"/>
      <point x="6" y="53" type="curve" smooth="yes"/>
      <point x="8" y="57"/>
      <point x="9" y="59"/>
      <point x="11" y="62" type="curve" smooth="yes"/>
      <point x="57" y="151"/>
      <point x="102" y="240"/>
      <point x="148" y="329" type="curve" smooth="yes"/>
      <point x="156" y="345"/>
      <point x="156" y="361"/>
      <point x="148" y="375" type="curve" smooth="yes"/>
      <point x="104" y="465"/>
      <point x="63" y="550"/>
      <point x="25" y="636" type="curve" smooth="yes"/>
      <point x="7" y="680"/>
      <point x="55" y="702"/>
      <point x="75" y="658" type="curve" smooth="yes"/>
      <point x="116" y="577"/>
      <point x="153" y="500"/>
      <point x="189" y="423" type="curve"/>
      <point x="226" y="503"/>
      <point x="261" y="577"/>
      <point x="295" y="653" type="curve" smooth="yes"/>
      <point x="301" y="664"/>
      <point x="305" y="674"/>
      <point x="313" y="682" type="curve" smooth="yes"/>
      <point x="333" y="706"/>
      <point x="369" y="682"/>
      <point x="359" y="656" type="curve" smooth="yes"/>
      <point x="356" y="650"/>
      <point x="355" y="646"/>
      <point x="353" y="640" type="curve" smooth="yes"/>
      <point x="311" y="553"/>
      <point x="272" y="464"/>
      <point x="231" y="378" type="curve" smooth="yes"/>
      <point x="221" y="358"/>
      <point x="221" y="342"/>
      <point x="229" y="323" type="curve" smooth="yes"/>
      <point x="268" y="239"/>
      <point x="305" y="153"/>
      <point x="343" y="69" type="curve" smooth="yes"/>
      <point x="347" y="59"/>
      <point x="351" y="49"/>
      <point x="353" y="39" type="curve" smooth="yes"/>
      <point x="362" y="6"/>
      <point x="323" y="-5"/>
      <point x="305" y="18" type="curve" smooth="yes"/>
      <point x="299" y="28"/>
      <point x="295" y="37"/>
      <point x="289" y="47" type="curve" smooth="yes"/>
      <point x="252" y="132"/>
      <point x="210" y="208"/>
    </contour>
  </outline>
</glyph>
<glyph name="backslash" format="2">
  <advance width="376"/>
  <unicode hex="005C"/>
  <outline>
    <contour>
      <point x="23" y="658" type="curve"/>
      <point x="-5" y="701"/>
      <point x="31" y="746"/>
      <point x="67" y="684" type="curve"/>
      <point x="144" y="462"/>
      <point x="221" y="245"/>
      <point x="299" y="23" type="curve"/>
      <point x="317" y="-13"/>
      <point x="270" y="-28"/>
      <point x="255" y="7" type="curve" smooth="yes"/>
      <point x="180" y="221"/>
      <point x="98" y="443"/>
    </contour>
  </outline>
</glyph>
<glyph name="asciicircum" format="2">
  <advance width="461"/>
  <unicode hex="005E"/>
  <outline>
    <contour>
      <point x="187" y="614" type="curve"/>
      <point x="150" y="561"/>
      <point x="108" y="495"/>
      <point x="71" y="447" type="curve" smooth="yes"/>
      <point x="36" y="399"/>
      <point x="-7" y="431"/>
      <point x="23" y="479" type="curve" smooth="yes"/>
      <point x="55" y="536"/>
      <point x="99" y="598"/>
      <point x="138" y="649" type="curve" smooth="yes"/>
      <point x="165" y="690"/>
      <point x="203" y="690"/>
      <point x="236" y="649" type="curve" smooth="yes"/>
      <point x="282" y="591"/>
      <point x="330" y="534"/>
      <point x="375" y="472" type="curve" smooth="yes"/>
      <point x="399" y="440"/>
      <point x="360" y="411"/>
      <point x="337" y="432" type="curve" smooth="yes"/>
      <point x="280" y="489"/>
      <point x="237" y="548"/>
    </contour>
  </outline>
</glyph>
<glyph name="underscore" format="2">
  <advance width="448"/>
  <unicode hex="005F"/>
  <outline>
    <contour>
      <point x="48" y="11" type="curve" smooth="yes"/>
      <point x="31" y="12"/>
      <point x="18" y="21"/>
      <point x="19" y="40" type="curve" smooth="yes"/>
      <point x="19" y="52"/>
      <point x="34" y="65"/>
      <point x="48" y="64" type="curve" smooth="yes"/>
      <point x="137" y="68"/>
      <point x="228" y="70"/>
      <point x="311" y="69" type="curve" smooth="yes"/>
      <point x="330" y="68"/>
      <point x="346" y="66"/>
      <point x="350" y="44" type="curve" smooth="yes"/>
      <point x="353" y="22"/>
      <point x="324" y="11"/>
      <point x="308" y="12" type="curve" smooth="yes"/>
      <point x="214" y="14"/>
      <point x="131" y="6"/>
    </contour>
  </outline>
</glyph>
<glyph name="grave" format="2">
  <advance width="300"/>
  <unicode hex="0060"/>
  <outline>
    <contour>
      <point x="165" y="532" type="curve" smooth="yes"/>
      <point x="168" y="500"/>
      <point x="141" y="490"/>
      <point x="121" y="510" type="curve" smooth="yes"/>
      <point x="71" y="554"/>
      <point x="59" y="567"/>
      <point x="16" y="614" type="curve"/>
      <point x="-8" y="654"/>
      <point x="42" y="670"/>
      <point x="57" y="652" type="curve" smooth="yes"/>
      <point x="87" y="622"/>
      <point x="162" y="561"/>
    </contour>
  </outline>
</glyph>
<glyph name="a" format="2">
  <advance width="472"/>
  <unicode hex="0061"/>
  <outline>
    <contour>
      <point x="314" y="195" type="curve"/>
      <point x="309" y="187"/>
      <point x="303" y="177"/>
      <point x="299" y="168" type="curve" smooth="yes"/>
      <point x="262" y="101"/>
      <point x="217" y="34"/>
      <point x="146" y="7" type="curve" smooth="yes"/>
      <point x="42" y="-32"/>
      <point x="14" y="97"/>
      <point x="7" y="169" type="curve" smooth="yes"/>
      <point x="-4" y="282"/>
      <point x="42" y="434"/>
      <point x="138" y="493" type="curve" smooth="yes"/>
      <point x="227" y="549"/>
      <point x="365" y="508"/>
      <point x="386" y="406" type="curve"/>
      <point x="384" y="339"/>
      <point x="378" y="272"/>
      <point x="376" y="204" type="curve" smooth="yes"/>
      <point x="375" y="145"/>
      <point x="387" y="98"/>
      <point x="416" y="51" type="curve" smooth="yes"/>
      <point x="434" y="21"/>
      <point x="391" y="6"/>
      <point x="370" y="25" type="curve" smooth="yes"/>
      <point x="336" y="54"/>
      <point x="323" y="128"/>
      <point x="322" y="169" type="curve" smooth="yes"/>
      <point x="321" y="178"/>
      <point x="324" y="195"/>
    </contour>
    <contour>
      <point x="61" y="223" type="curve"/>
      <point x="61" y="171"/>
      <point x="68" y="19"/>
      <point x="135" y="56" type="curve" smooth="yes"/>
      <point x="204" y="93"/>
      <point x="245" y="176"/>
      <point x="272" y="244" type="curve" smooth="yes"/>
      <point x="292" y="292"/>
      <point x="312" y="341"/>
      <point x="329" y="390" type="curve"/>
      <point x="312" y="476"/>
      <point x="204" y="494"/>
      <point x="146" y="434" type="curve" smooth="yes"/>
      <point x="91" y="379"/>
      <point x="69" y="295"/>
    </contour>
  </outline>
</glyph>
<glyph name="b" format="2">
  <advance width="414"/>
  <unicode hex="0062"/>
  <outline>
    <contour>
      <point x="56" y="436" type="curve"/>
      <point x="82" y="466"/>
      <point x="97" y="496"/>
      <point x="154" y="517" type="curve" smooth="yes"/>
      <point x="237" y="547"/>
      <point x="299" y="530"/>
      <point x="329" y="451" type="curve" smooth="yes"/>
      <point x="379" y="317"/>
      <point x="345" y="200"/>
      <point x="245" y="100" type="curve" smooth="yes"/>
      <point x="185" y="40"/>
      <point x="127" y="30"/>
      <point x="62" y="1" type="curve" smooth="yes"/>
      <point x="29" y="-15"/>
      <point x="5" y="-2"/>
      <point x="5" y="33" type="curve" smooth="yes"/>
      <point x="5" y="316"/>
      <point x="2" y="481"/>
      <point x="1" y="646" type="curve" smooth="yes"/>
      <point x="1" y="658"/>
      <point x="1" y="670"/>
      <point x="4" y="681" type="curve" smooth="yes"/>
      <point x="11" y="714"/>
      <point x="54" y="707"/>
      <point x="58" y="677" type="curve" smooth="yes"/>
      <point x="59" y="670"/>
      <point x="58" y="662"/>
      <point x="58" y="656" type="curve" smooth="yes"/>
      <point x="57" y="589"/>
      <point x="57" y="504"/>
    </contour>
    <contour>
      <point x="64" y="63" type="curve"/>
      <point x="176" y="86"/>
      <point x="251" y="162"/>
      <point x="285" y="265" type="curve" smooth="yes"/>
      <point x="305" y="323"/>
      <point x="297" y="382"/>
      <point x="274" y="439" type="curve" smooth="yes"/>
      <point x="257" y="482"/>
      <point x="227" y="492"/>
      <point x="181" y="473" type="curve" smooth="yes"/>
      <point x="101" y="437"/>
      <point x="67" y="350"/>
      <point x="62" y="269" type="curve" smooth="yes"/>
      <point x="56" y="202"/>
      <point x="63" y="133"/>
    </contour>
  </outline>
</glyph>
<glyph name="e" format="2">
  <advance width="386"/>
  <unicode hex="0065"/>
  <outline>
    <contour>
      <point x="61" y="210" type="curve"/>
      <point x="93" y="62"/>
      <point x="182" y="12"/>
      <point x="284" y="108" type="curve" smooth="yes"/>
      <point x="316" y="135"/>
      <point x="347" y="96"/>
      <point x="321" y="68" type="curve" smooth="yes"/>
      <point x="180" y="-78"/>
      <point x="34" y="46"/>
      <point x="7" y="188" type="curve" smooth="yes"/>
      <point x="-17" y="321"/>
      <point x="35" y="488"/>
      <point x="167" y="531" type="curve" smooth="yes"/>
      <point x="266" y="562"/>
      <point x="381" y="458"/>
      <point x="328" y="363" type="curve" smooth="yes"/>
      <point x="262" y="248"/>
      <point x="176" y="229"/>
    </contour>
    <contour>
      <point x="62" y="276" type="curve"/>
      <point x="144" y="265"/>
      <point x="243" y="315"/>
      <point x="276" y="384" type="curve" smooth="yes"/>
      <point x="305" y="445"/>
      <point x="233" y="499"/>
      <point x="178" y="477" type="curve" smooth="yes"/>
      <point x="91" y="442"/>
      <point x="71" y="351"/>
    </contour>
  </outline>
</glyph>
<glyph name="f" format="2">
  <advance width="344"/>
  <unicode hex="0066"/>
  <outline>
    <contour>
      <point x="126" y="346" type="curve"/>
      <point x="123" y="233"/>
      <point x="127" y="123"/>
      <point x="132" y="14" type="curve" smooth="yes"/>
      <point x="133" y="2"/>
      <point x="137" y="-10"/>
      <point x="140" y="-22" type="curve" smooth="yes"/>
      <point x="156" y="-74"/>
      <point x="86" y="-96"/>
      <point x="80" y="-38" type="curve" smooth="yes"/>
      <point x="76" y="1"/>
      <point x="73" y="41"/>
      <point x="72" y="81" type="curve" smooth="yes"/>
      <point x="71" y="169"/>
      <point x="70" y="251"/>
      <point x="70" y="334" type="curve"/>
      <point x="55" y="334"/>
      <point x="45" y="334"/>
      <point x="34" y="334" type="curve" smooth="yes"/>
      <point x="2" y="336"/>
      <point x="-6" y="379"/>
      <point x="27" y="386" type="curve" smooth="yes"/>
      <point x="40" y="391"/>
      <point x="53" y="393"/>
      <point x="70" y="396" type="curve"/>
      <point x="73" y="432"/>
      <point x="77" y="468"/>
      <point x="79" y="503" type="curve" smooth="yes"/>
      <point x="85" y="616"/>
      <point x="114" y="715"/>
      <point x="239" y="704" type="curve" smooth="yes"/>
      <point x="261" y="700"/>
      <point x="280" y="692"/>
      <point x="292" y="672" type="curve" smooth="yes"/>
      <point x="315" y="638"/>
      <point x="278" y="606"/>
      <point x="249" y="635" type="curve" smooth="yes"/>
      <point x="227" y="656"/>
      <point x="191" y="652"/>
      <point x="170" y="628" type="curve" smooth="yes"/>
      <point x="129" y="580"/>
      <point x="130" y="460"/>
      <point x="129" y="405" type="curve"/>
      <point x="162" y="407"/>
      <point x="190" y="409"/>
      <point x="218" y="411" type="curve" smooth="yes"/>
      <point x="227" y="411"/>
      <point x="236" y="413"/>
      <point x="245" y="411" type="curve" smooth="yes"/>
      <point x="285" y="406"/>
      <point x="276" y="361"/>
      <point x="242" y="358" type="curve" smooth="yes"/>
      <point x="199" y="353"/>
      <point x="162" y="352"/>
    </contour>
  </outline>
</glyph>
<glyph name="h" format="2">
  <advance width="384"/>
  <unicode hex="0068"/>
  <outline>
    <contour>
      <point x="68" y="421" type="curve"/>
      <point x="143" y="497"/>
      <point x="252" y="506"/>
      <point x="299" y="405" type="curve" smooth="yes"/>
      <point x="325" y="349"/>
      <point x="326" y="291"/>
      <point x="327" y="232" type="curve" smooth="yes"/>
      <point x="328" y="173"/>
      <point x="327" y="132"/>
      <point x="328" y="74" type="curve" smooth="yes"/>
      <point x="328" y="56"/>
      <point x="331" y="38"/>
      <point x="333" y="21" type="curve" smooth="yes"/>
      <point x="338" y="-16"/>
      <point x="286" y="-20"/>
      <point x="278" y="10" type="curve" smooth="yes"/>
      <point x="263" y="99"/>
      <point x="273" y="168"/>
      <point x="270" y="253" type="curve" smooth="yes"/>
      <point x="269" y="288"/>
      <point x="264" y="322"/>
      <point x="258" y="356" type="curve" smooth="yes"/>
      <point x="223" y="510"/>
      <point x="63" y="384"/>
      <point x="63" y="286" type="curve" smooth="yes"/>
      <point x="64" y="204"/>
      <point x="65" y="121"/>
      <point x="66" y="40" type="curve" smooth="yes"/>
      <point x="66" y="-3"/>
      <point x="14" y="-7"/>
      <point x="8" y="33" type="curve" smooth="yes"/>
      <point x="7" y="38"/>
      <point x="7" y="42"/>
      <point x="7" y="46" type="curve" smooth="yes"/>
      <point x="7" y="106"/>
      <point x="6" y="166"/>
      <point x="6" y="225" type="curve" smooth="yes"/>
      <point x="8" y="374"/>
      <point x="10" y="523"/>
      <point x="12" y="674" type="curve" smooth="yes"/>
      <point x="12" y="721"/>
      <point x="68" y="719"/>
      <point x="68" y="667" type="curve" smooth="yes"/>
      <point x="68" y="587"/>
      <point x="68" y="507"/>
    </contour>
  </outline>
</glyph>
<glyph name="j" format="2">
  <advance width="168"/>
  <unicode hex="006A"/>
  <outline>
    <contour>
      <point x="47" y="464" type="curve" smooth="yes"/>
      <point x="48" y="473"/>
      <point x="46" y="483"/>
      <point x="48" y="493" type="curve" smooth="yes"/>
      <point x="55" y="524"/>
      <point x="93" y="522"/>
      <point x="100" y="493" type="curve" smooth="yes"/>
      <point x="101" y="485"/>
      <point x="101" y="478"/>
      <point x="101" y="470" type="curve" smooth="yes"/>
      <point x="96" y="18" type="line" smooth="yes"/>
      <point x="95" y="-106"/>
      <point x="-16" y="-311"/>
      <point x="-186" y="-183" type="curve"/>
      <point x="-197" y="-167"/>
      <point x="-196" y="-150"/>
      <point x="-184" y="-138" type="curve" smooth="yes"/>
      <point x="-172" y="-129"/>
      <point x="-161" y="-130"/>
      <point x="-144" y="-143" type="curve" smooth="yes"/>
      <point x="-142" y="-145"/>
      <point x="-140" y="-149"/>
      <point x="-138" y="-151" type="curve" smooth="yes"/>
      <point x="-28" y="-220"/>
      <point x="32" y="-65"/>
      <point x="39" y="13" type="curve" smooth="yes"/>
      <point x="51" y="161"/>
      <point x="38" y="312"/>
    </contour>
    <contour>
      <point x="107" y="630" type="curve" smooth="yes"/>
      <point x="106" y="612"/>
      <point x="92" y="598"/>
      <point x="76" y="600" type="curve" smooth="yes"/>
      <point x="61" y="602"/>
      <point x="52" y="614"/>
      <point x="52" y="629" type="curve" smooth="yes"/>
      <point x="53" y="644"/>
      <point x="65" y="658"/>
      <point x="79" y="659" type="curve" smooth="yes"/>
      <point x="94" y="659"/>
      <point x="107" y="646"/>
    </contour>
  </outline>
</glyph>
<glyph name="l" format="2">
  <advance width="192"/>
  <unicode hex="006C"/>
  <outline>
    <contour>
      <point x="61" y="58" type="curve"/>
      <point x="82" y="58"/>
      <point x="95" y="59"/>
      <point x="110" y="58" type="curve" smooth="yes"/>
      <point x="139" y="56"/>
      <point x="141" y="15"/>
      <point x="114" y="12" type="curve" smooth="yes"/>
      <point x="87" y="8"/>
      <point x="57" y="6"/>
      <point x="30" y="8" type="curve" smooth="yes"/>
      <point x="11" y="9"/>
      <point x="4" y="18"/>
      <point x="4" y="43" type="curve" smooth="yes"/>
      <point x="4" y="256"/>
      <point x="9" y="458"/>
      <point x="10" y="660" type="curve" smooth="yes"/>
      <point x="10" y="723"/>
      <point x="64" y="723"/>
      <point x="64" y="657" type="curve" smooth="yes"/>
      <point x="63" y="439"/>
      <point x="61" y="248"/>
    </contour>
  </outline>
</glyph>
<glyph name="m" format="2">
  <advance width="571"/>
  <unicode hex="006D"/>
  <outline>
    <contour>
      <point x="277" y="288" type="curve" smooth="yes"/>
      <point x="279" y="192"/>
      <point x="279" y="135"/>
      <point x="291" y="41" type="curve"/>
      <point x="302" y="-7"/>
      <point x="238" y="-15"/>
      <point x="232" y="30" type="curve" smooth="yes"/>
      <point x="229" y="52"/>
      <point x="228" y="75"/>
      <point x="227" y="96" type="curve" smooth="yes"/>
      <point x="225" y="147"/>
      <point x="222" y="156"/>
      <point x="220" y="207" type="curve" smooth="yes"/>
      <point x="220" y="217"/>
      <point x="229" y="379"/>
      <point x="211" y="440" type="curve" smooth="yes"/>
      <point x="199" y="481"/>
      <point x="182" y="455"/>
      <point x="168" y="436" type="curve" smooth="yes"/>
      <point x="125" y="381"/>
      <point x="91" y="327"/>
      <point x="70" y="257" type="curve" smooth="yes"/>
      <point x="66" y="245"/>
      <point x="66" y="231"/>
      <point x="66" y="218" type="curve" smooth="yes"/>
      <point x="65" y="151"/>
      <point x="65" y="126"/>
      <point x="64" y="60" type="curve" smooth="yes"/>
      <point x="64" y="52"/>
      <point x="64" y="42"/>
      <point x="61" y="33" type="curve" smooth="yes"/>
      <point x="52" y="-1"/>
      <point x="9" y="2"/>
      <point x="6" y="37" type="curve" smooth="yes"/>
      <point x="5" y="40"/>
      <point x="6" y="43"/>
      <point x="6" y="46" type="curve" smooth="yes"/>
      <point x="6" y="214"/>
      <point x="6" y="340"/>
      <point x="5" y="506" type="curve" smooth="yes"/>
      <point x="5" y="514"/>
      <point x="4" y="523"/>
      <point x="5" y="531" type="curve" smooth="yes"/>
      <point x="11" y="562"/>
      <point x="59" y="562"/>
      <point x="59" y="530" type="curve" smooth="yes"/>
      <point x="60" y="483"/>
      <point x="65" y="438"/>
      <point x="65" y="394" type="curve"/>
      <point x="84" y="430"/>
      <point x="197" y="577"/>
      <point x="245" y="519" type="curve" smooth="yes"/>
      <point x="272" y="489"/>
      <point x="271" y="448"/>
      <point x="275" y="413" type="curve"/>
      <point x="306" y="451"/>
      <point x="337" y="485"/>
      <point x="373" y="510" type="curve" smooth="yes"/>
      <point x="457" y="568"/>
      <point x="496" y="448"/>
      <point x="498" y="389" type="curve" smooth="yes"/>
      <point x="506" y="247"/>
      <point x="508" y="162"/>
      <point x="519" y="37" type="curve" smooth="yes"/>
      <point x="524" y="-2"/>
      <point x="472" y="-4"/>
      <point x="463" y="29" type="curve" smooth="yes"/>
      <point x="460" y="41"/>
      <point x="459" y="53"/>
      <point x="458" y="65" type="curve" smooth="yes"/>
      <point x="453" y="201"/>
      <point x="457" y="340"/>
      <point x="436" y="428" type="curve" smooth="yes"/>
      <point x="425" y="472"/>
      <point x="408" y="471"/>
      <point x="374" y="438" type="curve" smooth="yes"/>
      <point x="330" y="396"/>
      <point x="277" y="311"/>
    </contour>
  </outline>
</glyph>
<glyph name="o" format="2">
  <advance width="452"/>
  <unicode hex="006F"/>
  <outline>
    <contour>
      <point x="351" y="454" type="curve"/>
      <point x="413" y="463"/>
      <point x="423" y="399"/>
      <point x="364" y="394" type="curve"/>
      <point x="377" y="216"/>
      <point x="351" y="-15"/>
      <point x="186" y="1" type="curve" smooth="yes"/>
      <point x="149" y="5"/>
      <point x="109" y="18"/>
      <point x="70" y="70" type="curve" smooth="yes"/>
      <point x="43" y="107"/>
      <point x="30" y="154"/>
      <point x="22" y="200" type="curve" smooth="yes"/>
      <point x="-2" y="329"/>
      <point x="3" y="596"/>
      <point x="154" y="635" type="curve" smooth="yes"/>
      <point x="278" y="667"/>
      <point x="328" y="548"/>
    </contour>
    <contour>
      <point x="302" y="396" type="curve"/>
      <point x="200" y="413"/>
      <point x="150" y="466"/>
      <point x="137" y="567" type="curve"/>
      <point x="63" y="504"/>
      <point x="62" y="326"/>
      <point x="72" y="240" type="curve" smooth="yes"/>
      <point x="77" y="189"/>
      <point x="91" y="140"/>
      <point x="119" y="95" type="curve"/>
      <point x="168" y="30"/>
      <point x="257" y="50"/>
      <point x="281" y="119" type="curve" smooth="yes"/>
      <point x="313" y="209"/>
      <point x="315" y="301"/>
    </contour>
    <contour>
      <point x="201" y="580" type="curve"/>
      <point x="192" y="514"/>
      <point x="229" y="461"/>
      <point x="292" y="458" type="curve"/>
      <point x="275" y="509"/>
      <point x="257" y="565"/>
    </contour>
  </outline>
</glyph>
<glyph name="q" format="2">
  <advance width="382"/>
  <unicode hex="0071"/>
  <outline>
    <contour>
      <point x="254" y="228" type="curve"/>
      <point x="224" y="177"/>
      <point x="194" y="125"/>
      <point x="153" y="84" type="curve" smooth="yes"/>
      <point x="98" y="31"/>
      <point x="39" y="48"/>
      <point x="17" y="121" type="curve" smooth="yes"/>
      <point x="-14" y="241"/>
      <point x="7" y="405"/>
      <point x="55" y="514" type="curve"/>
      <point x="94" y="586"/>
      <point x="188" y="631"/>
      <point x="275" y="562" type="curve"/>
      <point x="299" y="575"/>
      <point x="335" y="574"/>
      <point x="329" y="541" type="curve" smooth="yes"/>
      <point x="317" y="468"/>
      <point x="317" y="278"/>
      <point x="317" y="142" type="curve" smooth="yes"/>
      <point x="317" y="78"/>
      <point x="321" y="-55"/>
      <point x="316" y="-107" type="curve" smooth="yes"/>
      <point x="312" y="-148"/>
      <point x="260" y="-160"/>
      <point x="257" y="-104" type="curve" smooth="yes"/>
      <point x="254" y="-49"/>
      <point x="257" y="91"/>
      <point x="257" y="145" type="curve" smooth="yes"/>
      <point x="257" y="178"/>
      <point x="256" y="208"/>
    </contour>
    <contour>
      <point x="151" y="167" type="curve"/>
      <point x="198" y="230"/>
      <point x="222" y="331"/>
      <point x="246" y="399" type="curve" smooth="yes"/>
      <point x="278" y="491"/>
      <point x="183" y="599"/>
      <point x="115" y="503" type="curve" smooth="yes"/>
      <point x="60" y="424"/>
      <point x="52" y="271"/>
      <point x="61" y="180" type="curve" smooth="yes"/>
      <point x="68" y="97"/>
      <point x="112" y="103"/>
    </contour>
  </outline>
</glyph>
<glyph name="r" format="2">
  <advance width="405"/>
  <unicode hex="0072"/>
  <outline>
    <contour>
      <point x="60" y="418" type="curve"/>
      <point x="113" y="477"/>
      <point x="211" y="551"/>
      <point x="299" y="572" type="curve" smooth="yes"/>
      <point x="336" y="584"/>
      <point x="363" y="548"/>
      <point x="322" y="529" type="curve"/>
      <point x="212" y="490"/>
      <point x="52" y="396"/>
      <point x="61" y="282" type="curve" smooth="yes"/>
      <point x="66" y="203"/>
      <point x="69" y="125"/>
      <point x="72" y="46" type="curve" smooth="yes"/>
      <point x="74" y="6"/>
      <point x="21" y="5"/>
      <point x="14" y="41" type="curve" smooth="yes"/>
      <point x="12" y="47"/>
      <point x="12" y="53"/>
      <point x="11" y="59" type="curve" smooth="yes"/>
      <point x="9" y="218"/>
      <point x="7" y="379"/>
      <point x="5" y="538" type="curve" smooth="yes"/>
      <point x="4" y="545"/>
      <point x="5" y="554"/>
      <point x="7" y="561" type="curve" smooth="yes"/>
      <point x="13" y="590"/>
      <point x="61" y="587"/>
      <point x="61" y="558" type="curve" smooth="yes"/>
      <point x="62" y="539"/>
      <point x="60" y="519"/>
      <point x="60" y="499" type="curve" smooth="yes"/>
      <point x="60" y="473"/>
      <point x="60" y="447"/>
    </contour>
  </outline>
</glyph>
<glyph name="v" format="2">
  <advance width="472"/>
  <unicode hex="0076"/>
  <outline>
    <contour>
      <point x="212" y="141" type="curve"/>
      <point x="248" y="282"/>
      <point x="300" y="418"/>
      <point x="346" y="555" type="curve" smooth="yes"/>
      <point x="352" y="572"/>
      <point x="358" y="589"/>
      <point x="366" y="604" type="curve" smooth="yes"/>
      <point x="385" y="634"/>
      <point x="442" y="625"/>
      <point x="423" y="587" type="curve" smooth="yes"/>
      <point x="416" y="570"/>
      <point x="405" y="553"/>
      <point x="398" y="534" type="curve" smooth="yes"/>
      <point x="344" y="383"/>
      <point x="294" y="230"/>
      <point x="258" y="73" type="curve" smooth="yes"/>
      <point x="255" y="62"/>
      <point x="252" y="50"/>
      <point x="247" y="38" type="curve" smooth="yes"/>
      <point x="232" y="0"/>
      <point x="191" y="4"/>
      <point x="181" y="40" type="curve" smooth="yes"/>
      <point x="131" y="213"/>
      <point x="82" y="372"/>
      <point x="14" y="543" type="curve" smooth="yes"/>
      <point x="9" y="553"/>
      <point x="4" y="564"/>
      <point x="2" y="575" type="curve" smooth="yes"/>
      <point x="-5" y="608"/>
      <point x="44" y="613"/>
      <point x="55" y="587" type="curve" smooth="yes"/>
      <point x="111" y="448"/>
      <point x="175" y="275"/>
    </contour>
  </outline>
</glyph>
<glyph name="w" format="2">
  <advance width="632"/>
  <unicode hex="0077"/>
  <outline>
    <contour>
      <point x="298" y="169" type="curve"/>
      <point x="276" y="115"/>
      <point x="257" y="60"/>
      <point x="212" y="23" type="curve" smooth="yes"/>
      <point x="168" y="-13"/>
      <point x="121" y="-9"/>
      <point x="84" y="32" type="curve" smooth="yes"/>
      <point x="53" y="64"/>
      <point x="33" y="104"/>
      <point x="21" y="146" type="curve" smooth="yes"/>
      <point x="1" y="222"/>
      <point x="-4" y="302"/>
      <point x="3" y="380" type="curve" smooth="yes"/>
      <point x="9" y="435"/>
      <point x="16" y="592"/>
      <point x="82" y="616" type="curve" smooth="yes"/>
      <point x="112" y="623"/>
      <point x="136" y="582"/>
      <point x="107" y="564" type="curve" smooth="yes"/>
      <point x="91" y="555"/>
      <point x="85" y="542"/>
      <point x="82" y="527" type="curve" smooth="yes"/>
      <point x="54" y="415"/>
      <point x="46" y="304"/>
      <point x="69" y="192" type="curve" smooth="yes"/>
      <point x="90" y="92"/>
      <point x="176" y="-14"/>
      <point x="228" y="144" type="curve" smooth="yes"/>
      <point x="274" y="286"/>
      <point x="271" y="418"/>
      <point x="282" y="557" type="curve" smooth="yes"/>
      <point x="284" y="566"/>
      <point x="285" y="575"/>
      <point x="288" y="583" type="curve" smooth="yes"/>
      <point x="303" y="613"/>
      <point x="329" y="599"/>
      <point x="341" y="580" type="curve" smooth="yes"/>
      <point x="345" y="573"/>
      <point x="343" y="563"/>
      <point x="342" y="554" type="curve" smooth="yes"/>
      <point x="337" y="490"/>
      <point x="331" y="427"/>
      <point x="329" y="363" type="curve" smooth="yes"/>
      <point x="325" y="291"/>
      <point x="340" y="199"/>
      <point x="367" y="134" type="curve"/>
      <point x="413" y="-3"/>
      <point x="477" y="100"/>
      <point x="497" y="185" type="curve" smooth="yes"/>
      <point x="528" y="315"/>
      <point x="510" y="459"/>
      <point x="466" y="580" type="curve"/>
      <point x="455" y="624"/>
      <point x="499" y="641"/>
      <point x="519" y="608" type="curve" smooth="yes"/>
      <point x="521" y="605"/>
      <point x="522" y="602"/>
      <point x="523" y="597" type="curve" smooth="yes"/>
      <point x="565" y="465"/>
      <point x="586" y="311"/>
      <point x="549" y="169" type="curve" smooth="yes"/>
      <point x="540" y="133"/>
      <point x="527" y="96"/>
      <point x="507" y="63" type="curve" smooth="yes"/>
      <point x="468" y="-6"/>
      <point x="403" y="-14"/>
      <point x="355" y="44" type="curve" smooth="yes"/>
      <point x="328" y="75"/>
      <point x="314" y="134"/>
    </contour>
  </outline>
</glyph>
<glyph name="y" format="2">
  <advance width="396"/>
  <unicode hex="0079"/>
  <outline>
    <contour>
      <point x="272" y="228" type="curve"/>
      <point x="259" y="204"/>
      <point x="247" y="178"/>
      <point x="231" y="159" type="curve" smooth="yes"/>
      <point x="201" y="123"/>
      <point x="160" y="117"/>
      <point x="120" y="140" type="curve" smooth="yes"/>
      <point x="88" y="157"/>
      <point x="69" y="184"/>
      <point x="52" y="215" type="curve" smooth="yes"/>
      <point x="3" y="319"/>
      <point x="11" y="438"/>
      <point x="8" y="547" type="curve" smooth="yes"/>
      <point x="7" y="555"/>
      <point x="7" y="563"/>
      <point x="9" y="571" type="curve" smooth="yes"/>
      <point x="15" y="614"/>
      <point x="72" y="601"/>
      <point x="67" y="561" type="curve" smooth="yes"/>
      <point x="53" y="479"/>
      <point x="69" y="345"/>
      <point x="92" y="269" type="curve" smooth="yes"/>
      <point x="105" y="225"/>
      <point x="157" y="142"/>
      <point x="197" y="208" type="curve" smooth="yes"/>
      <point x="251" y="298"/>
      <point x="275" y="490"/>
      <point x="271" y="585" type="curve" smooth="yes"/>
      <point x="271" y="634"/>
      <point x="331" y="632"/>
      <point x="327" y="587" type="curve" smooth="yes"/>
      <point x="321" y="448"/>
      <point x="330" y="314"/>
      <point x="333" y="180" type="curve" smooth="yes"/>
      <point x="336" y="26"/>
      <point x="244" y="-280"/>
      <point x="55" y="-91" type="curve" smooth="yes"/>
      <point x="28" y="-64"/>
      <point x="62" y="-11"/>
      <point x="89" y="-44" type="curve" smooth="yes"/>
      <point x="240" y="-211"/>
      <point x="302" y="120"/>
    </contour>
  </outline>
</glyph>
<glyph name="z" format="2">
  <advance width="498"/>
  <unicode hex="007A"/>
  <outline>
    <contour>
      <point x="364" y="564" type="curve"/>
      <point x="290" y="556"/>
      <point x="221" y="558"/>
      <point x="153" y="558" type="curve" smooth="yes"/>
      <point x="102" y="561"/>
      <point x="100" y="614"/>
      <point x="152" y="614" type="curve" smooth="yes"/>
      <point x="233" y="614"/>
      <point x="312" y="617"/>
      <point x="392" y="620" type="curve" smooth="yes"/>
      <point x="446" y="623"/>
      <point x="451" y="593"/>
      <point x="430" y="560" type="curve" smooth="yes"/>
      <point x="312" y="391"/>
      <point x="190" y="228"/>
      <point x="76" y="60" type="curve"/>
      <point x="197" y="63"/>
      <point x="266" y="65"/>
      <point x="335" y="66" type="curve" smooth="yes"/>
      <point x="396" y="66"/>
      <point x="377" y="3"/>
      <point x="328" y="14" type="curve"/>
      <point x="234" y="18"/>
      <point x="139" y="1"/>
      <point x="44" y="7" type="curve" smooth="yes"/>
      <point x="13" y="10"/>
      <point x="-1" y="32"/>
      <point x="11" y="57" type="curve" smooth="yes"/>
      <point x="103" y="241"/>
      <point x="263" y="386"/>
    </contour>
  </outline>
</glyph>
<glyph name="braceleft" format="2">
  <advance width="259"/>
  <unicode hex="007B"/>
  <outline>
    <contour>
      <point x="98" y="323" type="curve"/>
      <point x="125" y="249"/>
      <point x="120" y="187"/>
      <point x="118" y="93" type="curve" smooth="yes"/>
      <point x="120" y="50"/>
      <point x="137" y="28"/>
      <point x="179" y="38" type="curve" smooth="yes"/>
      <point x="209" y="45"/>
      <point x="227" y="9"/>
      <point x="193" y="-7" type="curve"/>
      <point x="115" y="-33"/>
      <point x="65" y="43"/>
      <point x="65" y="110" type="curve" smooth="yes"/>
      <point x="65" y="183"/>
      <point x="79" y="295"/>
      <point x="36" y="305" type="curve" smooth="yes"/>
      <point x="19" y="305"/>
      <point x="12" y="319"/>
      <point x="12" y="326" type="curve" smooth="yes"/>
      <point x="12" y="340"/>
      <point x="27" y="349"/>
      <point x="43" y="354" type="curve" smooth="yes"/>
      <point x="111" y="379"/>
      <point x="85" y="463"/>
      <point x="73" y="535" type="curve" smooth="yes"/>
      <point x="62" y="600"/>
      <point x="75" y="734"/>
      <point x="171" y="705" type="curve" smooth="yes"/>
      <point x="202" y="699"/>
      <point x="188" y="638"/>
      <point x="159" y="655" type="curve"/>
      <point x="103" y="672"/>
      <point x="112" y="559"/>
      <point x="120" y="531" type="curve" smooth="yes"/>
      <point x="139" y="453"/>
      <point x="146" y="386"/>
    </contour>
  </outline>
</glyph>
<glyph name="braceright" format="2">
  <advance width="296"/>
  <unicode hex="007D"/>
  <outline>
    <contour>
      <point x="120" y="323" type="curve"/>
      <point x="72" y="386"/>
      <point x="79" y="453"/>
      <point x="98" y="531" type="curve" smooth="yes"/>
      <point x="106" y="559"/>
      <point x="115" y="672"/>
      <point x="59" y="655" type="curve"/>
      <point x="20" y="630"/>
      <point x="-5" y="688"/>
      <point x="47" y="705" type="curve" smooth="yes"/>
      <point x="143" y="734"/>
      <point x="156" y="600"/>
      <point x="145" y="535" type="curve" smooth="yes"/>
      <point x="133" y="463"/>
      <point x="107" y="379"/>
      <point x="175" y="354" type="curve" smooth="yes"/>
      <point x="191" y="349"/>
      <point x="206" y="340"/>
      <point x="206" y="326" type="curve" smooth="yes"/>
      <point x="206" y="319"/>
      <point x="199" y="305"/>
      <point x="182" y="305" type="curve" smooth="yes"/>
      <point x="139" y="295"/>
      <point x="153" y="183"/>
      <point x="153" y="110" type="curve" smooth="yes"/>
      <point x="153" y="43"/>
      <point x="103" y="-33"/>
      <point x="25" y="-7" type="curve"/>
      <point x="-9" y="9"/>
      <point x="9" y="45"/>
      <point x="39" y="38" type="curve" smooth="yes"/>
      <point x="81" y="28"/>
      <point x="98" y="50"/>
      <point x="100" y="93" type="curve" smooth="yes"/>
      <point x="98" y="187"/>
      <point x="93" y="249"/>
    </contour>
  </outline>
</glyph>
<glyph name="exclamdown" format="2">
  <advance width="122"/>
  <unicode hex="00A1"/>
  <outline>
    <contour>
      <point x="52" y="452" type="curve" smooth="yes"/>
      <point x="48" y="509"/>
      <point x="111" y="516"/>
      <point x="111" y="429" type="curve" smooth="yes"/>
      <point x="117" y="278"/>
      <point x="106" y="124"/>
      <point x="111" y="-32" type="curve" smooth="yes"/>
      <point x="111" y="-66"/>
      <point x="104" y="-78"/>
      <point x="81" y="-78" type="curve" smooth="yes"/>
      <point x="63" y="-78"/>
      <point x="54" y="-66"/>
      <point x="54" y="-32" type="curve" smooth="yes"/>
      <point x="50" y="135"/>
      <point x="66" y="293"/>
    </contour>
    <contour>
      <point x="50" y="555" type="curve" smooth="yes"/>
      <point x="49" y="567"/>
      <point x="49" y="580"/>
      <point x="49" y="593" type="curve" smooth="yes"/>
      <point x="50" y="632"/>
      <point x="109" y="629"/>
      <point x="110" y="593" type="curve" smooth="yes"/>
      <point x="110" y="582"/>
      <point x="110" y="569"/>
      <point x="110" y="557" type="curve" smooth="yes"/>
      <point x="111" y="520"/>
      <point x="55" y="511"/>
    </contour>
  </outline>
</glyph>
<glyph name="cent" format="2">
  <advance width="368"/>
  <unicode hex="00A2"/>
  <outline>
    <contour>
      <point x="152" y="378" type="move" smooth="yes"/>
      <point x="152" y="387"/>
      <point x="151" y="387"/>
      <point x="152" y="387" type="curve" smooth="yes"/>
      <point x="204" y="387"/>
      <point x="210.813" y="393.835"/>
      <point x="244" y="411" type="curve" smooth="yes"/>
      <point x="273" y="426"/>
      <point x="257" y="473.01"/>
      <point x="223" y="464" type="curve" smooth="yes"/>
      <point x="187.866" y="454.689"/>
      <point x="181" y="444"/>
      <point x="152" y="451" type="curve"/>
      <point x="158" y="501"/>
      <point x="155" y="546"/>
      <point x="156" y="602" type="curve"/>
      <point x="177" y="594"/>
      <point x="197" y="588"/>
      <point x="210" y="582" type="curve" smooth="yes"/>
      <point x="243" y="563"/>
      <point x="277" y="609"/>
      <point x="246" y="633" type="curve" smooth="yes"/>
      <point x="237" y="640"/>
      <point x="225" y="649"/>
      <point x="210" y="657" type="curve" smooth="yes"/>
      <point x="197" y="661"/>
      <point x="175" y="665"/>
      <point x="156" y="668" type="curve"/>
      <point x="160" y="680"/>
      <point x="159" y="682"/>
      <point x="159" y="690" type="curve"/>
      <point x="160" y="748"/>
      <point x="99" y="754"/>
      <point x="92" y="702" type="curve" smooth="yes"/>
      <point x="88.7294" y="677.704"/>
      <point x="90" y="684"/>
      <point x="89" y="667" type="curve" smooth="yes"/>
      <point x="87.4736" y="641.045"/>
      <point x="85" y="637"/>
      <point x="64" y="623" type="curve" smooth="yes"/>
      <point x="-12.7158" y="571.856"/>
      <point x="-24" y="425"/>
      <point x="85" y="395" type="curve"/>
      <point x="85" y="390"/>
      <point x="83" y="387"/>
      <point x="83" y="380" type="curve"/>
      <point x="71" y="295"/>
      <point x="152" y="297"/>
      <point x="152" y="378" type="curve" smooth="yes"/>
    </contour>
    <contour>
      <point x="85" y="533" type="curve"/>
      <point x="62" y="502"/>
      <point x="62" y="495"/>
      <point x="85" y="470" type="curve"/>
      <point x="85" y="495"/>
      <point x="85" y="514"/>
    </contour>
  </outline>
</glyph>
<glyph name="sterling" format="2">
  <advance width="452"/>
  <unicode hex="00A3"/>
  <outline>
    <contour>
      <point x="90.3608" y="258.416" type="curve" smooth="yes"/>
      <point x="81.6807" y="298.749"/>
      <point x="69.4619" y="320.875"/>
      <point x="47.463" y="320.875" type="curve" smooth="yes"/>
      <point x="37.542" y="320.875"/>
      <point x="4.625" y="316.375"/>
      <point x="5.72939" y="359.968" type="curve" smooth="yes"/>
      <point x="6.44922" y="388.382"/>
      <point x="20.584" y="396.25"/>
      <point x="53.502" y="395.125" type="curve"/>
      <point x="23.2041" y="483.436"/>
      <point x="11.9219" y="583.611"/>
      <point x="65.5831" y="639.536" type="curve" smooth="yes"/>
      <point x="146.27" y="723.625"/>
      <point x="330.807" y="662.875"/>
      <point x="322.827" y="575.125" type="curve"/>
      <point x="319.834" y="532.375"/>
      <point x="276.549" y="537.486"/>
      <point x="259.393" y="567.078" type="curve" smooth="yes"/>
      <point x="241.031" y="598.75"/>
      <point x="179.188" y="625.75"/>
      <point x="134.462" y="600.529" type="curve" smooth="yes"/>
      <point x="57.4805" y="557.118"/>
      <point x="104.041" y="400.063"/>
      <point x="134.276" y="394.379" type="curve" smooth="yes"/>
      <point x="140.775" y="393.157"/>
      <point x="174.199" y="393.726"/>
      <point x="195.146" y="395.125" type="curve"/>
      <point x="233.053" y="391.75"/>
      <point x="236.044" y="336.625"/>
      <point x="201.132" y="326.5" type="curve"/>
      <point x="183.178" y="320.875"/>
      <point x="170.431" y="322.781"/>
      <point x="159.626" y="322.965" type="curve" smooth="yes"/>
      <point x="119.215" y="323.654"/>
      <point x="152.673" y="299.46"/>
      <point x="166.002" y="234.702" type="curve" smooth="yes"/>
      <point x="187.167" y="131.875"/>
      <point x="125.322" y="83.5"/>
      <point x="125.322" y="83.5" type="curve"/>
      <point x="125.322" y="83.5"/>
      <point x="141.271" y="86.875"/>
      <point x="171.664" y="86.875" type="curve" smooth="yes"/>
      <point x="218.09" y="86.875"/>
      <point x="215.097" y="79"/>
      <point x="254.911" y="79" type="curve" smooth="yes"/>
      <point x="269.959" y="79"/>
      <point x="293.899" y="80.125"/>
      <point x="304.663" y="84.4603" type="curve" smooth="yes"/>
      <point x="336.681" y="97.3564"/>
      <point x="349.76" y="27.25"/>
      <point x="312.001" y="11.4777" type="curve" smooth="yes"/>
      <point x="300.339" y="6.60645"/>
      <point x="275.944" y="3.625"/>
      <point x="259.673" y="3.625" type="curve" smooth="yes"/>
      <point x="228.064" y="3.625"/>
      <point x="205.122" y="14.875"/>
      <point x="150.13" y="13.0776" type="curve" smooth="yes"/>
      <point x="107.362" y="11.6797"/>
      <point x="117.343" y="4.74805"/>
      <point x="99.3003" y="4.33358" type="curve" smooth="yes"/>
      <point x="61.4824" y="3.46484"/>
      <point x="22.3486" y="34.0273"/>
      <point x="59.5329" y="105.087" type="curve" smooth="yes"/>
      <point x="79.4375" y="143.125"/>
      <point x="109.362" y="170.125"/>
    </contour>
  </outline>
</glyph>
<glyph name="yen" format="2">
  <advance width="398"/>
  <unicode hex="00A5"/>
  <outline>
    <contour>
      <point x="162" y="372" type="curve"/>
      <point x="208" y="466"/>
      <point x="245" y="563"/>
      <point x="286.379" y="651.156" type="curve" smooth="yes"/>
      <point x="291" y="661"/>
      <point x="295" y="669"/>
      <point x="302.712" y="675.507" type="curve" smooth="yes"/>
      <point x="327" y="696"/>
      <point x="360" y="671"/>
      <point x="342.136" y="632.72" type="curve" smooth="yes"/>
      <point x="339" y="626"/>
      <point x="331" y="609"/>
      <point x="315.96" y="575.814" type="curve" smooth="yes"/>
      <point x="287.856" y="513.806"/>
      <point x="253.485" y="434.067"/>
      <point x="220.563" y="354.142" type="curve"/>
      <point x="245.546" y="354.327"/>
      <point x="270.105" y="354.288"/>
      <point x="283.413" y="353.591" type="curve" smooth="yes"/>
      <point x="352" y="350"/>
      <point x="338" y="293"/>
      <point x="274.715" y="296.748" type="curve" smooth="yes"/>
      <point x="258.932" y="297.682"/>
      <point x="228.144" y="297.201"/>
      <point x="198.2" y="296.469" type="curve"/>
      <point x="195.872" y="286.345"/>
      <point x="194.697" y="275.858"/>
      <point x="194.104" y="265.864" type="curve"/>
      <point x="228.221" y="266.324"/>
      <point x="261.716" y="266.389"/>
      <point x="276.16" y="265.841" type="curve" smooth="yes"/>
      <point x="351" y="263"/>
      <point x="338" y="206"/>
      <point x="271.695" y="209.038" type="curve" smooth="yes"/>
      <point x="256.528" y="209.733"/>
      <point x="223.534" y="209.122"/>
      <point x="191.478" y="208.3" type="curve"/>
      <point x="188.64" y="148.748"/>
      <point x="186.365" y="90.4996"/>
      <point x="191.604" y="57.8268" type="curve" smooth="yes"/>
      <point x="202" y="-7"/>
      <point x="151" y="-18"/>
      <point x="138.466" y="18.0363" type="curve" smooth="yes"/>
      <point x="135" y="28"/>
      <point x="134" y="39"/>
      <point x="134.492" y="65.0779" type="curve" smooth="yes"/>
      <point x="135" y="92"/>
      <point x="134" y="132"/>
      <point x="137.534" y="175.96" type="curve" smooth="yes"/>
      <point x="138.21" y="184.375"/>
      <point x="138.659" y="195.692"/>
      <point x="138.445" y="206.921" type="curve"/>
      <point x="102.055" y="206.101"/>
      <point x="66.5275" y="205.86"/>
      <point x="51.9846" y="206.876" type="curve" smooth="yes"/>
      <point x="-7" y="211"/>
      <point x="-5" y="261"/>
      <point x="54.8818" y="262.297" type="curve" smooth="yes"/>
      <point x="64.5061" y="262.506"/>
      <point x="98.2957" y="263.728"/>
      <point x="131.835" y="264.614" type="curve"/>
      <point x="129.762" y="274.748"/>
      <point x="127.26" y="284.764"/>
      <point x="124.412" y="294.637" type="curve"/>
      <point x="92.8947" y="294.079"/>
      <point x="61.9473" y="294.136"/>
      <point x="51.7167" y="294.709" type="curve" smooth="yes"/>
      <point x="-7" y="298"/>
      <point x="-5" y="349"/>
      <point x="47.8384" y="349.97" type="curve" smooth="yes"/>
      <point x="55.8732" y="350.118"/>
      <point x="80.9027" y="351.08"/>
      <point x="105.87" y="351.863" type="curve"/>
      <point x="78.0957" y="437.016"/>
      <point x="51.6814" y="523.107"/>
      <point x="38.2007" y="565.68" type="curve" smooth="yes"/>
      <point x="21" y="620"/>
      <point x="14" y="636"/>
      <point x="11.6089" y="649.912" type="curve" smooth="yes"/>
      <point x="3" y="700"/>
      <point x="51" y="713"/>
      <point x="68.9524" y="655.723" type="curve" smooth="yes"/>
      <point x="72" y="646"/>
      <point x="78" y="626"/>
      <point x="86.138" y="600.106" type="curve" smooth="yes"/>
      <point x="111" y="521"/>
      <point x="137" y="446"/>
    </contour>
  </outline>
</glyph>
<glyph name="section" format="2">
  <advance width="334"/>
  <unicode hex="00A7"/>
  <outline>
    <contour>
      <point x="85.7363" y="388.715" type="curve"/>
      <point x="22.2051" y="469.937"/>
      <point x="81.0469" y="630.2"/>
      <point x="182" y="630.2" type="curve" smooth="yes"/>
      <point x="206" y="630.2"/>
      <point x="267" y="619.2"/>
      <point x="291" y="573" type="curve" smooth="yes"/>
      <point x="316.044" y="524.79"/>
      <point x="280" y="499.3"/>
      <point x="246" y="538.9" type="curve" smooth="yes"/>
      <point x="234.009" y="552.866"/>
      <point x="218.066" y="562.306"/>
      <point x="202" y="566.4" type="curve" smooth="yes"/>
      <point x="120" y="587.3"/>
      <point x="81.8438" y="445.965"/>
      <point x="155" y="410.2" type="curve" smooth="yes"/>
      <point x="164" y="405.8"/>
      <point x="181" y="399.2"/>
      <point x="196" y="389.3" type="curve" smooth="yes"/>
      <point x="213.564" y="377.707"/>
      <point x="295.076" y="335.733"/>
      <point x="251.264" y="244.686" type="curve"/>
      <point x="314.796" y="163.464"/>
      <point x="255.953" y="3.2002"/>
      <point x="155" y="3.2002" type="curve" smooth="yes"/>
      <point x="131" y="3.2002"/>
      <point x="70" y="14.2002"/>
      <point x="46" y="60.4004" type="curve" smooth="yes"/>
      <point x="20.9561" y="108.61"/>
      <point x="57" y="134.101"/>
      <point x="91" y="94.5" type="curve" smooth="yes"/>
      <point x="102.991" y="80.5342"/>
      <point x="118.934" y="71.0947"/>
      <point x="135" y="67" type="curve" smooth="yes"/>
      <point x="217" y="46.1006"/>
      <point x="255.156" y="187.436"/>
      <point x="182" y="223.2" type="curve" smooth="yes"/>
      <point x="173" y="227.601"/>
      <point x="156" y="234.2"/>
      <point x="141" y="244.101" type="curve" smooth="yes"/>
      <point x="123.436" y="255.693"/>
      <point x="41.9238" y="297.667"/>
    </contour>
    <contour>
      <point x="195.941" y="283.122" type="curve"/>
      <point x="206.723" y="315.454"/>
      <point x="174.288" y="335.714"/>
      <point x="160" y="342" type="curve" smooth="yes"/>
      <point x="152.618" y="345.249"/>
      <point x="146.551" y="347.918"/>
      <point x="141.059" y="350.278" type="curve"/>
      <point x="130.277" y="317.946"/>
      <point x="162.712" y="297.687"/>
      <point x="177" y="291.4" type="curve" smooth="yes"/>
      <point x="184.382" y="288.151"/>
      <point x="190.449" y="285.482"/>
    </contour>
  </outline>
</glyph>
<glyph name="diaeresis" format="2">
  <advance width="254"/>
  <unicode hex="00A8"/>
  <outline>
    <contour>
      <point x="207" y="591" type="curve" smooth="yes"/>
      <point x="202" y="582"/>
      <point x="202" y="568"/>
      <point x="199" y="558" type="curve" smooth="yes"/>
      <point x="189" y="522"/>
      <point x="141" y="533"/>
      <point x="144" y="568" type="curve" smooth="yes"/>
      <point x="144" y="582"/>
      <point x="151" y="596"/>
      <point x="151" y="610" type="curve"/>
      <point x="174" y="657"/>
      <point x="214" y="629"/>
    </contour>
    <contour>
      <point x="104" y="591" type="curve" smooth="yes"/>
      <point x="99" y="582"/>
      <point x="99" y="568"/>
      <point x="96" y="558" type="curve" smooth="yes"/>
      <point x="86" y="522"/>
      <point x="38" y="533"/>
      <point x="41" y="568" type="curve" smooth="yes"/>
      <point x="41" y="582"/>
      <point x="48" y="596"/>
      <point x="48" y="610" type="curve"/>
      <point x="71" y="657"/>
      <point x="111" y="629"/>
    </contour>
  </outline>
</glyph>
<glyph name="copyright" format="2">
  <advance width="411"/>
  <unicode hex="00A9"/>
  <outline>
    <contour>
      <point x="126.5" y="484" type="curve" smooth="yes"/>
      <point x="154" y="560.5"/>
      <point x="263" y="573.5"/>
      <point x="284.5" y="488" type="curve" smooth="yes"/>
      <point x="288" y="472.5"/>
      <point x="261" y="469"/>
      <point x="258" y="484" type="curve" smooth="yes"/>
      <point x="245" y="539"/>
      <point x="171.5" y="526.5"/>
      <point x="153.5" y="476.5" type="curve" smooth="yes"/>
      <point x="138.5" y="431.5"/>
      <point x="133" y="383.5"/>
      <point x="153" y="340" type="curve" smooth="yes"/>
      <point x="191" y="258"/>
      <point x="261.5" y="339.5"/>
      <point x="282.5" y="382.5" type="curve" smooth="yes"/>
      <point x="292" y="406.5"/>
      <point x="314" y="390"/>
      <point x="308" y="371" type="curve" smooth="yes"/>
      <point x="279" y="298.5"/>
      <point x="174" y="222"/>
      <point x="130" y="323" type="curve" smooth="yes"/>
      <point x="107.5" y="375"/>
      <point x="108.5" y="435.5"/>
    </contour>
    <contour>
      <point x="384" y="363" type="curve"/>
      <point x="375.2" y="310.5"/>
      <point x="360.8" y="276.4"/>
      <point x="319" y="240" type="curve"/>
      <point x="214.413" y="178.289"/>
      <point x="91.4102" y="184.135"/>
      <point x="47" y="282" type="curve" smooth="yes"/>
      <point x="-1.75293" y="389.435"/>
      <point x="11.4658" y="434.401"/>
      <point x="54" y="534" type="curve" smooth="yes"/>
      <point x="107.686" y="659.711"/>
      <point x="297.461" y="667.551"/>
      <point x="359" y="539" type="curve" smooth="yes"/>
      <point x="390.175" y="473.879"/>
      <point x="388.4" y="428.8"/>
    </contour>
    <contour>
      <point x="351" y="357" type="curve" smooth="yes"/>
      <point x="359.801" y="435.4"/>
      <point x="355.331" y="466.422"/>
      <point x="332" y="524" type="curve" smooth="yes"/>
      <point x="286.9" y="635.301"/>
      <point x="123.699" y="618.801"/>
      <point x="83" y="525" type="curve"/>
      <point x="41.1992" y="442.4"/>
      <point x="38.7002" y="376.7"/>
      <point x="75" y="292" type="curve"/>
      <point x="117.071" y="221.338"/>
      <point x="207.218" y="217.252"/>
      <point x="287" y="259" type="curve" smooth="yes"/>
      <point x="329.149" y="281.056"/>
      <point x="347.952" y="329.849"/>
    </contour>
  </outline>
</glyph>
<glyph name="ordfeminine" format="2">
  <advance width="244"/>
  <unicode hex="00AA"/>
  <outline>
    <contour>
      <point x="167" y="543.5" type="curve"/>
      <point x="164.5" y="539.5"/>
      <point x="161.5" y="534.5"/>
      <point x="159.5" y="530" type="curve" smooth="yes"/>
      <point x="141" y="496.5"/>
      <point x="118.5" y="463"/>
      <point x="83" y="449.5" type="curve" smooth="yes"/>
      <point x="31" y="430"/>
      <point x="17" y="494.5"/>
      <point x="13.5" y="530.5" type="curve" smooth="yes"/>
      <point x="8" y="587"/>
      <point x="31" y="663"/>
      <point x="79" y="692.5" type="curve" smooth="yes"/>
      <point x="123.5" y="720.5"/>
      <point x="192.5" y="700"/>
      <point x="203" y="649" type="curve"/>
      <point x="202" y="615.5"/>
      <point x="199" y="582"/>
      <point x="198" y="548" type="curve" smooth="yes"/>
      <point x="197.5" y="518.5"/>
      <point x="203.5" y="495"/>
      <point x="218" y="471.5" type="curve" smooth="yes"/>
      <point x="227" y="456.5"/>
      <point x="205.5" y="449"/>
      <point x="195" y="458.5" type="curve" smooth="yes"/>
      <point x="178" y="473"/>
      <point x="171.5" y="510"/>
      <point x="171" y="530.5" type="curve" smooth="yes"/>
      <point x="170.5" y="535"/>
      <point x="172" y="543.5"/>
    </contour>
    <contour>
      <point x="40.5" y="557.5" type="curve"/>
      <point x="40.5" y="531.5"/>
      <point x="44" y="455.5"/>
      <point x="77.5" y="474" type="curve" smooth="yes"/>
      <point x="112" y="492.5"/>
      <point x="132.5" y="534"/>
      <point x="146" y="568" type="curve" smooth="yes"/>
      <point x="156" y="592"/>
      <point x="166" y="616.5"/>
      <point x="174.5" y="641" type="curve"/>
      <point x="166" y="684"/>
      <point x="112" y="693"/>
      <point x="83" y="663" type="curve" smooth="yes"/>
      <point x="55.5" y="635.5"/>
      <point x="44.5" y="593.5"/>
    </contour>
  </outline>
</glyph>
<glyph name="guillemotleft" format="2">
  <advance width="506"/>
  <unicode hex="00AB"/>
  <outline>
    <contour>
      <point x="283" y="320" type="curve"/>
      <point x="336" y="283"/>
      <point x="402" y="241"/>
      <point x="450" y="204" type="curve" smooth="yes"/>
      <point x="498" y="169"/>
      <point x="466" y="126"/>
      <point x="418" y="156" type="curve" smooth="yes"/>
      <point x="361" y="188"/>
      <point x="299" y="232"/>
      <point x="248" y="271" type="curve" smooth="yes"/>
      <point x="207" y="298"/>
      <point x="207" y="336"/>
      <point x="248" y="369" type="curve" smooth="yes"/>
      <point x="306" y="415"/>
      <point x="363" y="463"/>
      <point x="425" y="508" type="curve" smooth="yes"/>
      <point x="457" y="532"/>
      <point x="486" y="493"/>
      <point x="465" y="470" type="curve" smooth="yes"/>
      <point x="408" y="413"/>
      <point x="349" y="370"/>
    </contour>
    <contour>
      <point x="83" y="320" type="curve"/>
      <point x="136" y="283"/>
      <point x="202" y="241"/>
      <point x="250" y="204" type="curve" smooth="yes"/>
      <point x="298" y="169"/>
      <point x="266" y="126"/>
      <point x="218" y="156" type="curve" smooth="yes"/>
      <point x="161" y="188"/>
      <point x="99" y="232"/>
      <point x="48" y="271" type="curve" smooth="yes"/>
      <point x="7" y="298"/>
      <point x="7" y="336"/>
      <point x="48" y="369" type="curve" smooth="yes"/>
      <point x="106" y="415"/>
      <point x="163" y="463"/>
      <point x="225" y="508" type="curve" smooth="yes"/>
      <point x="257" y="532"/>
      <point x="286" y="493"/>
      <point x="265" y="470" type="curve" smooth="yes"/>
      <point x="208" y="413"/>
      <point x="149" y="370"/>
    </contour>
  </outline>
</glyph>
<glyph name="registered" format="2">
  <advance width="411"/>
  <unicode hex="00AE"/>
  <outline>
    <contour>
      <point x="148.021" y="542.541" type="curve" smooth="yes"/>
      <point x="147.141" y="561.021"/>
      <point x="150.66" y="567.181"/>
      <point x="167.82" y="569.82" type="curve" smooth="yes"/>
      <point x="299.82" y="587.86"/>
      <point x="283.541" y="426.82"/>
      <point x="205.66" y="384.141" type="curve"/>
      <point x="225.9" y="352.021"/>
      <point x="245.7" y="321.66"/>
      <point x="266.38" y="290.86" type="curve" smooth="yes"/>
      <point x="281.341" y="270.621"/>
      <point x="255.82" y="253.46"/>
      <point x="241.3" y="282.5" type="curve"/>
      <point x="220.62" y="314.181"/>
      <point x="203.9" y="341.9"/>
      <point x="184.101" y="366.98" type="curve"/>
      <point x="181.46" y="363.46"/>
      <point x="179.7" y="359.94"/>
      <point x="179.26" y="355.541" type="curve" smooth="yes"/>
      <point x="178.38" y="328.7"/>
      <point x="179.26" y="304.94"/>
      <point x="179.26" y="281.621" type="curve" smooth="yes"/>
      <point x="179.26" y="263.141"/>
      <point x="153.3" y="260.5"/>
      <point x="153.3" y="278.98" type="curve" smooth="yes"/>
      <point x="150.221" y="366.98"/>
      <point x="152.859" y="454.98"/>
    </contour>
    <contour>
      <point x="179.7" y="397.78" type="curve"/>
      <point x="250.101" y="421.98"/>
      <point x="276.94" y="559.7"/>
      <point x="173.541" y="542.541" type="curve"/>
      <point x="175.74" y="495.021"/>
      <point x="177.06" y="447.5"/>
    </contour>
    <contour>
      <point x="384" y="363" type="curve"/>
      <point x="375.2" y="310.5"/>
      <point x="360.8" y="276.4"/>
      <point x="319" y="240" type="curve"/>
      <point x="214.413" y="178.289"/>
      <point x="91.4102" y="184.135"/>
      <point x="47" y="282" type="curve" smooth="yes"/>
      <point x="-1.75293" y="389.435"/>
      <point x="11.4658" y="434.401"/>
      <point x="54" y="534" type="curve" smooth="yes"/>
      <point x="107.686" y="659.711"/>
      <point x="297.461" y="667.551"/>
      <point x="359" y="539" type="curve" smooth="yes"/>
      <point x="390.175" y="473.879"/>
      <point x="388.4" y="428.8"/>
    </contour>
    <contour>
      <point x="351" y="357" type="curve" smooth="yes"/>
      <point x="359.801" y="435.4"/>
      <point x="355.331" y="466.422"/>
      <point x="332" y="524" type="curve" smooth="yes"/>
      <point x="286.9" y="635.301"/>
      <point x="123.699" y="618.801"/>
      <point x="83" y="525" type="curve"/>
      <point x="41.1992" y="442.4"/>
      <point x="38.7002" y="376.7"/>
      <point x="75" y="292" type="curve"/>
      <point x="117.071" y="221.338"/>
      <point x="207.218" y="217.252"/>
      <point x="287" y="259" type="curve" smooth="yes"/>
      <point x="329.149" y="281.056"/>
      <point x="347.952" y="329.849"/>
    </contour>
  </outline>
</glyph>
<glyph name="macron" format="2">
  <advance width="448"/>
  <unicode hex="00AF"/>
  <outline>
    <contour>
      <point x="88" y="546" type="curve" smooth="yes"/>
      <point x="71" y="547"/>
      <point x="58" y="556"/>
      <point x="59" y="575" type="curve" smooth="yes"/>
      <point x="59" y="587"/>
      <point x="74" y="600"/>
      <point x="88" y="599" type="curve" smooth="yes"/>
      <point x="177" y="603"/>
      <point x="268" y="605"/>
      <point x="351" y="604" type="curve" smooth="yes"/>
      <point x="370" y="603"/>
      <point x="386" y="601"/>
      <point x="390" y="579" type="curve" smooth="yes"/>
      <point x="393" y="557"/>
      <point x="364" y="546"/>
      <point x="348" y="547" type="curve" smooth="yes"/>
      <point x="254" y="549"/>
      <point x="171" y="541"/>
    </contour>
  </outline>
</glyph>
<glyph name="degree" format="2">
  <advance width="203"/>
  <unicode hex="00B0"/>
  <outline>
    <contour>
      <point x="149.717" y="572.561" type="curve" smooth="yes"/>
      <point x="152.458" y="594.5"/>
      <point x="153.026" y="602.19"/>
      <point x="144.23" y="624.669" type="curve" smooth="yes"/>
      <point x="127.777" y="666.72"/>
      <point x="77.4951" y="657.577"/>
      <point x="61.9551" y="625.581" type="curve"/>
      <point x="48.2441" y="599.07"/>
      <point x="50.9854" y="578.045"/>
      <point x="62.8711" y="551.535" type="curve"/>
      <point x="79.2148" y="524.08"/>
      <point x="102.636" y="522.624"/>
      <point x="126.863" y="535.994" type="curve" smooth="yes"/>
      <point x="143.043" y="544.924"/>
      <point x="148.167" y="560.168"/>
    </contour>
    <contour>
      <point x="193.697" y="569.615" type="curve"/>
      <point x="189.228" y="542.951"/>
      <point x="181.916" y="525.634"/>
      <point x="160.686" y="507.146" type="curve"/>
      <point x="107.57" y="475.806"/>
      <point x="45.0986" y="478.774"/>
      <point x="22.5459" y="528.478" type="curve" smooth="yes"/>
      <point x="-2.21582" y="583.039"/>
      <point x="4.49902" y="605.878"/>
      <point x="26.1006" y="656.461" type="curve" smooth="yes"/>
      <point x="53.3652" y="720.306"/>
      <point x="149.746" y="724.286"/>
      <point x="181" y="659" type="curve" smooth="yes"/>
      <point x="196.834" y="625.927"/>
      <point x="195.933" y="603.033"/>
    </contour>
  </outline>
</glyph>
<glyph name="acute" format="2">
  <advance width="193"/>
  <unicode hex="00B4"/>
  <outline>
    <contour>
      <point x="16" y="532" type="curve" smooth="yes"/>
      <point x="13" y="500"/>
      <point x="40" y="490"/>
      <point x="60" y="510" type="curve" smooth="yes"/>
      <point x="110" y="554"/>
      <point x="122" y="567"/>
      <point x="165" y="614" type="curve"/>
      <point x="189" y="654"/>
      <point x="139" y="670"/>
      <point x="124" y="652" type="curve" smooth="yes"/>
      <point x="94" y="622"/>
      <point x="19" y="561"/>
    </contour>
  </outline>
</glyph>
<glyph name="pilcrow" format="2">
  <advance width="328"/>
  <unicode hex="00B6"/>
  <outline>
    <contour>
      <point x="206" y="293" type="curve"/>
      <point x="172" y="316"/>
      <point x="173" y="309"/>
      <point x="172" y="331" type="curve" smooth="yes"/>
      <point x="170.767" y="358.138"/>
      <point x="173.173" y="507.366"/>
      <point x="174" y="545" type="curve" smooth="yes"/>
      <point x="176" y="636"/>
      <point x="164" y="632"/>
      <point x="211" y="632" type="curve"/>
      <point x="208" y="522"/>
      <point x="209" y="410"/>
    </contour>
    <contour>
      <point x="126" y="346" type="curve"/>
      <point x="94" y="379"/>
      <point x="75.1507" y="395.253"/>
      <point x="61" y="455" type="curve" smooth="yes"/>
      <point x="52" y="493"/>
      <point x="50.1357" y="528.623"/>
      <point x="63" y="564" type="curve" smooth="yes"/>
      <point x="75" y="597"/>
      <point x="88" y="603"/>
      <point x="131" y="630" type="curve"/>
      <point x="128" y="520"/>
      <point x="129" y="463"/>
    </contour>
    <contour>
      <point x="202" y="207" type="curve"/>
      <point x="202" y="153"/>
      <point x="202" y="103"/>
      <point x="202" y="53" type="curve" smooth="yes"/>
      <point x="202" y="51"/>
      <point x="199" y="49"/>
      <point x="199" y="45" type="curve" smooth="yes"/>
      <point x="199" y="21"/>
      <point x="215" y="3"/>
      <point x="230" y="5" type="curve" smooth="yes"/>
      <point x="246" y="5"/>
      <point x="258" y="20"/>
      <point x="258" y="45" type="curve" smooth="yes"/>
      <point x="264" y="236"/>
      <point x="265" y="425"/>
      <point x="271" y="613" type="curve" smooth="yes"/>
      <point x="272" y="658"/>
      <point x="267" y="666"/>
      <point x="227" y="682" type="curve" smooth="yes"/>
      <point x="116" y="723"/>
      <point x="10" y="656"/>
      <point x="0" y="538" type="curve" smooth="yes"/>
      <point x="-6" y="472"/>
      <point x="8" y="416"/>
      <point x="44" y="362" type="curve" smooth="yes"/>
      <point x="65.944" y="327.601"/>
      <point x="92.8124" y="297.424"/>
      <point x="122.728" y="270.007" type="curve"/>
      <point x="123.375" y="207" type="line" smooth="yes"/>
      <point x="123.375" y="153"/>
      <point x="123.375" y="103"/>
      <point x="123.375" y="53" type="curve" smooth="yes"/>
      <point x="123.375" y="51"/>
      <point x="121.125" y="49"/>
      <point x="121.125" y="45" type="curve" smooth="yes"/>
      <point x="121.125" y="21"/>
      <point x="133.125" y="3"/>
      <point x="144.375" y="5" type="curve" smooth="yes"/>
      <point x="156.375" y="5"/>
      <point x="164.786" y="20.0127"/>
      <point x="165.375" y="45" type="curve" smooth="yes"/>
      <point x="167.84" y="149.637"/>
      <point x="168.955" y="203.553"/>
      <point x="169.459" y="230.917" type="curve"/>
      <point x="175.569" y="226.209"/>
      <point x="181.753" y="221.573"/>
      <point x="188" y="217" type="curve" smooth="yes"/>
      <point x="192" y="212"/>
      <point x="196" y="211"/>
    </contour>
  </outline>
</glyph>
<glyph name="middot" format="2">
  <advance width="188"/>
  <unicode hex="00B7"/>
  <outline>
    <contour>
      <point x="127" y="377" type="curve" smooth="yes"/>
      <point x="122" y="368"/>
      <point x="122" y="354"/>
      <point x="119" y="344" type="curve" smooth="yes"/>
      <point x="109" y="308"/>
      <point x="61" y="319"/>
      <point x="64" y="354" type="curve" smooth="yes"/>
      <point x="64" y="368"/>
      <point x="71" y="382"/>
      <point x="71" y="396" type="curve"/>
      <point x="94" y="443"/>
      <point x="134" y="415"/>
    </contour>
  </outline>
</glyph>
<glyph name="cedilla" format="2">
  <advance width="450"/>
  <unicode hex="00B8"/>
  <outline>
    <contour>
      <point x="174" y="-62" type="curve" smooth="yes"/>
      <point x="198.502" y="-83.6445"/>
      <point x="224.241" y="-101.039"/>
      <point x="216" y="-134" type="curve" smooth="yes"/>
      <point x="209.057" y="-161.77"/>
      <point x="175.743" y="-168.318"/>
      <point x="159" y="-143" type="curve"/>
      <point x="147.974" y="-131.974"/>
      <point x="126.627" y="-147.259"/>
      <point x="133" y="-160" type="curve" smooth="yes"/>
      <point x="135.859" y="-165.717"/>
      <point x="151.026" y="-177.968"/>
      <point x="156.948" y="-181.748" type="curve" smooth="yes"/>
      <point x="195.336" y="-206.25"/>
      <point x="245.975" y="-179.297"/>
      <point x="248.833" y="-133.559" type="curve" smooth="yes"/>
      <point x="252.508" y="-92.7217"/>
      <point x="227.189" y="-63.3184"/>
      <point x="198.193" y="-40.4502" type="curve" smooth="yes"/>
      <point x="181.451" y="-26.1562"/>
      <point x="185.127" y="-5.3291"/>
      <point x="185.127" y="11.4141" type="curve" smooth="yes"/>
      <point x="185.127" y="17.9482"/>
      <point x="172.734" y="25"/>
      <point x="166" y="25" type="curve" smooth="yes"/>
      <point x="160.691" y="25"/>
      <point x="149.042" y="19.9854"/>
      <point x="147" y="11" type="curve"/>
      <point x="146.592" y="-30.2461"/>
      <point x="159.258" y="-48.9773"/>
    </contour>
  </outline>
</glyph>
<glyph name="ordmasculine" format="2">
  <advance width="246"/>
  <unicode hex="00BA"/>
  <outline>
    <contour>
      <point x="194" y="615" type="curve"/>
      <point x="225" y="619.5"/>
      <point x="230" y="587.5"/>
      <point x="200.5" y="585" type="curve"/>
      <point x="207" y="496"/>
      <point x="194" y="380.5"/>
      <point x="111.5" y="388.5" type="curve" smooth="yes"/>
      <point x="93" y="390.5"/>
      <point x="73" y="397"/>
      <point x="53.5" y="423" type="curve" smooth="yes"/>
      <point x="40" y="441.5"/>
      <point x="33.5" y="465"/>
      <point x="29.5" y="488" type="curve" smooth="yes"/>
      <point x="17.5" y="552.5"/>
      <point x="20" y="686"/>
      <point x="95.5" y="705.5" type="curve" smooth="yes"/>
      <point x="157.5" y="721.5"/>
      <point x="182.5" y="662"/>
    </contour>
    <contour>
      <point x="169.5" y="586" type="curve"/>
      <point x="118.5" y="594.5"/>
      <point x="93.5" y="621"/>
      <point x="87" y="671.5" type="curve"/>
      <point x="50" y="640"/>
      <point x="49.5" y="551"/>
      <point x="54.5" y="508" type="curve" smooth="yes"/>
      <point x="57" y="482.5"/>
      <point x="64" y="458"/>
      <point x="78" y="435.5" type="curve"/>
      <point x="102.5" y="403"/>
      <point x="147" y="413"/>
      <point x="159" y="447.5" type="curve" smooth="yes"/>
      <point x="175" y="492.5"/>
      <point x="176" y="538.5"/>
    </contour>
    <contour>
      <point x="119" y="678" type="curve"/>
      <point x="114.5" y="645"/>
      <point x="133" y="618.5"/>
      <point x="164.5" y="617" type="curve"/>
      <point x="156" y="642.5"/>
      <point x="147" y="670.5"/>
    </contour>
  </outline>
</glyph>
<glyph name="guillemotright" format="2">
  <advance width="506"/>
  <unicode hex="00BB"/>
  <outline>
    <contour>
      <point x="230" y="320" type="curve"/>
      <point x="177" y="283"/>
      <point x="111" y="241"/>
      <point x="63" y="204" type="curve" smooth="yes"/>
      <point x="15" y="169"/>
      <point x="47" y="126"/>
      <point x="95" y="156" type="curve" smooth="yes"/>
      <point x="152" y="188"/>
      <point x="214" y="232"/>
      <point x="265" y="271" type="curve" smooth="yes"/>
      <point x="306" y="298"/>
      <point x="306" y="336"/>
      <point x="265" y="369" type="curve" smooth="yes"/>
      <point x="207" y="415"/>
      <point x="150" y="463"/>
      <point x="88" y="508" type="curve" smooth="yes"/>
      <point x="56" y="532"/>
      <point x="27" y="493"/>
      <point x="48" y="470" type="curve" smooth="yes"/>
      <point x="105" y="413"/>
      <point x="164" y="370"/>
    </contour>
    <contour>
      <point x="430" y="320" type="curve"/>
      <point x="377" y="283"/>
      <point x="311" y="241"/>
      <point x="263" y="204" type="curve" smooth="yes"/>
      <point x="215" y="169"/>
      <point x="247" y="126"/>
      <point x="295" y="156" type="curve" smooth="yes"/>
      <point x="352" y="188"/>
      <point x="414" y="232"/>
      <point x="465" y="271" type="curve" smooth="yes"/>
      <point x="506" y="298"/>
      <point x="506" y="336"/>
      <point x="465" y="369" type="curve" smooth="yes"/>
      <point x="407" y="415"/>
      <point x="350" y="463"/>
      <point x="288" y="508" type="curve" smooth="yes"/>
      <point x="256" y="532"/>
      <point x="227" y="493"/>
      <point x="248" y="470" type="curve" smooth="yes"/>
      <point x="305" y="413"/>
      <point x="364" y="370"/>
    </contour>
  </outline>
</glyph>
<glyph name="questiondown" format="2">
  <advance width="334"/>
  <unicode hex="00BF"/>
  <outline>
    <contour>
      <point x="165" y="314" type="curve" smooth="yes"/>
      <point x="105" y="261"/>
      <point x="46" y="198"/>
      <point x="65" y="117" type="curve" smooth="yes"/>
      <point x="82" y="49"/>
      <point x="178" y="19"/>
      <point x="219" y="81" type="curve"/>
      <point x="246" y="108"/>
      <point x="285" y="82"/>
      <point x="269" y="51" type="curve" smooth="yes"/>
      <point x="262" y="37"/>
      <point x="248" y="22"/>
      <point x="234" y="12" type="curve" smooth="yes"/>
      <point x="140" y="-48"/>
      <point x="16" y="18"/>
      <point x="9" y="130" type="curve" smooth="yes"/>
      <point x="0" y="230"/>
      <point x="62" y="302"/>
      <point x="133" y="358" type="curve" smooth="yes"/>
      <point x="174" y="393"/>
      <point x="165" y="444"/>
      <point x="165" y="485" type="curve" smooth="yes"/>
      <point x="165" y="501"/>
      <point x="176" y="514"/>
      <point x="192" y="518" type="curve" smooth="yes"/>
      <point x="205" y="518"/>
      <point x="219" y="509"/>
      <point x="224" y="487" type="curve"/>
      <point x="225" y="386"/>
      <point x="201" y="346"/>
    </contour>
    <contour>
      <point x="219" y="635" type="curve" smooth="yes"/>
      <point x="219" y="608"/>
      <point x="210" y="587"/>
      <point x="192" y="587" type="curve" smooth="yes"/>
      <point x="169" y="587"/>
      <point x="158" y="603"/>
      <point x="158" y="625" type="curve" smooth="yes"/>
      <point x="158" y="647"/>
      <point x="176" y="669"/>
      <point x="192" y="669" type="curve" smooth="yes"/>
      <point x="210" y="669"/>
      <point x="219" y="651"/>
    </contour>
  </outline>
</glyph>
<glyph name="Agrave" format="2">
  <advance width="380"/>
  <unicode hex="00C0"/>
  <outline>
    <contour>
      <point x="227" y="732" type="curve" smooth="yes"/>
      <point x="228.44" y="716.641"/>
      <point x="212.192" y="706.031"/>
      <point x="202" y="715" type="curve" smooth="yes"/>
      <point x="178" y="736.12"/>
      <point x="166.38" y="747.96"/>
      <point x="145.74" y="770.521" type="curve"/>
      <point x="134.221" y="789.721"/>
      <point x="161.207" y="801.554"/>
      <point x="169.16" y="793.601" type="curve" smooth="yes"/>
      <point x="183.561" y="779.2"/>
      <point x="225.693" y="745.934"/>
    </contour>
    <contour>
      <point x="259" y="272" type="curve"/>
      <point x="203" y="284"/>
      <point x="152" y="275"/>
      <point x="98" y="267" type="curve"/>
      <point x="89" y="205"/>
      <point x="64" y="110"/>
      <point x="63" y="48" type="curve" smooth="yes"/>
      <point x="63" y="-10"/>
      <point x="-9" y="-17"/>
      <point x="2" y="35" type="curve" smooth="yes"/>
      <point x="10" y="85"/>
      <point x="18" y="169"/>
      <point x="29" y="217" type="curve" smooth="yes"/>
      <point x="69" y="394"/>
      <point x="127" y="531"/>
      <point x="212" y="661" type="curve" smooth="yes"/>
      <point x="242" y="703"/>
      <point x="306" y="729"/>
      <point x="311" y="657" type="curve"/>
      <point x="312" y="415"/>
      <point x="315" y="232"/>
      <point x="317" y="48" type="curve" smooth="yes"/>
      <point x="317" y="-5"/>
      <point x="273" y="-17"/>
      <point x="265" y="16" type="curve"/>
      <point x="255" y="157"/>
      <point x="262" y="309"/>
    </contour>
    <contour>
      <point x="120" y="330" type="curve"/>
      <point x="165" y="333"/>
      <point x="211" y="334"/>
      <point x="260" y="336" type="curve"/>
      <point x="259" y="430"/>
      <point x="257" y="522"/>
      <point x="254" y="614" type="curve"/>
      <point x="209" y="574"/>
      <point x="131" y="408"/>
    </contour>
  </outline>
</glyph>
<glyph name="Aacute" format="2">
  <advance width="380"/>
  <unicode hex="00C1"/>
  <outline>
    <contour>
      <point x="145.74" y="732" type="curve" smooth="yes"/>
      <point x="144.3" y="716.641"/>
      <point x="160.548" y="706.031"/>
      <point x="170.74" y="715" type="curve" smooth="yes"/>
      <point x="194.74" y="736.12"/>
      <point x="206.36" y="747.96"/>
      <point x="227" y="770.521" type="curve"/>
      <point x="238.52" y="789.721"/>
      <point x="211.533" y="801.554"/>
      <point x="203.58" y="793.601" type="curve" smooth="yes"/>
      <point x="189.18" y="779.2"/>
      <point x="147.047" y="745.934"/>
    </contour>
    <contour>
      <point x="259" y="272" type="curve"/>
      <point x="203" y="284"/>
      <point x="152" y="275"/>
      <point x="98" y="267" type="curve"/>
      <point x="89" y="205"/>
      <point x="64" y="110"/>
      <point x="63" y="48" type="curve" smooth="yes"/>
      <point x="63" y="-10"/>
      <point x="-9" y="-17"/>
      <point x="2" y="35" type="curve" smooth="yes"/>
      <point x="10" y="85"/>
      <point x="18" y="169"/>
      <point x="29" y="217" type="curve" smooth="yes"/>
      <point x="69" y="394"/>
      <point x="127" y="531"/>
      <point x="212" y="661" type="curve" smooth="yes"/>
      <point x="242" y="703"/>
      <point x="306" y="729"/>
      <point x="311" y="657" type="curve"/>
      <point x="312" y="415"/>
      <point x="315" y="232"/>
      <point x="317" y="48" type="curve" smooth="yes"/>
      <point x="317" y="-5"/>
      <point x="273" y="-17"/>
      <point x="265" y="16" type="curve"/>
      <point x="255" y="157"/>
      <point x="262" y="309"/>
    </contour>
    <contour>
      <point x="120" y="330" type="curve"/>
      <point x="165" y="333"/>
      <point x="211" y="334"/>
      <point x="260" y="336" type="curve"/>
      <point x="259" y="430"/>
      <point x="257" y="522"/>
      <point x="254" y="614" type="curve"/>
      <point x="209" y="574"/>
      <point x="131" y="408"/>
    </contour>
  </outline>
</glyph>
<glyph name="Acircumflex" format="2">
  <advance width="380"/>
  <unicode hex="00C2"/>
  <outline>
    <contour>
      <point x="189" y="762" type="curve"/>
      <point x="176.568" y="744.191"/>
      <point x="170.295" y="734.943"/>
      <point x="159" y="718" type="curve" smooth="yes"/>
      <point x="147" y="700"/>
      <point x="125.336" y="716.764"/>
      <point x="135" y="731" type="curve" smooth="yes"/>
      <point x="147.335" y="749.171"/>
      <point x="160.441" y="768.34"/>
      <point x="172.304" y="786.355" type="curve" smooth="yes"/>
      <point x="181.376" y="800.133"/>
      <point x="194.242" y="800.211"/>
      <point x="205.231" y="786.355" type="curve" smooth="yes"/>
      <point x="220.688" y="766.868"/>
      <point x="233.556" y="749.592"/>
      <point x="249" y="729" type="curve" smooth="yes"/>
      <point x="257.064" y="718.248"/>
      <point x="238" y="701"/>
      <point x="227" y="714" type="curve" smooth="yes"/>
      <point x="208.707" y="735.619"/>
      <point x="205.8" y="739.824"/>
    </contour>
    <contour>
      <point x="259" y="272" type="curve"/>
      <point x="203" y="284"/>
      <point x="152" y="275"/>
      <point x="98" y="267" type="curve"/>
      <point x="89" y="205"/>
      <point x="64" y="110"/>
      <point x="63" y="48" type="curve" smooth="yes"/>
      <point x="63" y="-10"/>
      <point x="-9" y="-17"/>
      <point x="2" y="35" type="curve" smooth="yes"/>
      <point x="10" y="85"/>
      <point x="18" y="169"/>
      <point x="29" y="217" type="curve" smooth="yes"/>
      <point x="69" y="394"/>
      <point x="127" y="531"/>
      <point x="212" y="661" type="curve" smooth="yes"/>
      <point x="242" y="703"/>
      <point x="306" y="729"/>
      <point x="311" y="657" type="curve"/>
      <point x="312" y="415"/>
      <point x="315" y="232"/>
      <point x="317" y="48" type="curve" smooth="yes"/>
      <point x="317" y="-5"/>
      <point x="273" y="-17"/>
      <point x="265" y="16" type="curve"/>
      <point x="255" y="157"/>
      <point x="262" y="309"/>
    </contour>
    <contour>
      <point x="120" y="330" type="curve"/>
      <point x="165" y="333"/>
      <point x="211" y="334"/>
      <point x="260" y="336" type="curve"/>
      <point x="259" y="430"/>
      <point x="257" y="522"/>
      <point x="254" y="614" type="curve"/>
      <point x="209" y="574"/>
      <point x="131" y="408"/>
    </contour>
  </outline>
</glyph>
<glyph name="Atilde" format="2">
  <advance width="380"/>
  <unicode hex="00C3"/>
  <outline>
    <contour>
      <point x="171.74" y="736.6" type="curve" smooth="yes"/>
      <point x="153.98" y="751"/>
      <point x="141.98" y="750.04"/>
      <point x="126.141" y="733.72" type="curve"/>
      <point x="105.5" y="706.36"/>
      <point x="82.4609" y="726.04"/>
      <point x="92.54" y="741.88" type="curve"/>
      <point x="107.9" y="775"/>
      <point x="150.621" y="798.521"/>
      <point x="184.221" y="767.32" type="curve"/>
      <point x="206.301" y="751"/>
      <point x="225.98" y="745.239"/>
      <point x="242.78" y="763.96" type="curve" smooth="yes"/>
      <point x="247.58" y="768.76"/>
      <point x="252.38" y="774.521"/>
      <point x="256.7" y="777.88" type="curve" smooth="yes"/>
      <point x="269.18" y="787.479"/>
      <point x="283.58" y="772.6"/>
      <point x="279.261" y="759.16" type="curve" smooth="yes"/>
      <point x="268.221" y="727.479"/>
      <point x="213.5" y="700.12"/>
    </contour>
    <contour>
      <point x="259" y="272" type="curve"/>
      <point x="203" y="284"/>
      <point x="152" y="275"/>
      <point x="98" y="267" type="curve"/>
      <point x="89" y="205"/>
      <point x="64" y="110"/>
      <point x="63" y="48" type="curve" smooth="yes"/>
      <point x="63" y="-10"/>
      <point x="-9" y="-17"/>
      <point x="2" y="35" type="curve" smooth="yes"/>
      <point x="10" y="85"/>
      <point x="18" y="169"/>
      <point x="29" y="217" type="curve" smooth="yes"/>
      <point x="69" y="394"/>
      <point x="127" y="531"/>
      <point x="212" y="661" type="curve" smooth="yes"/>
      <point x="242" y="703"/>
      <point x="306" y="729"/>
      <point x="311" y="657" type="curve"/>
      <point x="312" y="415"/>
      <point x="315" y="232"/>
      <point x="317" y="48" type="curve" smooth="yes"/>
      <point x="317" y="-5"/>
      <point x="273" y="-17"/>
      <point x="265" y="16" type="curve"/>
      <point x="255" y="157"/>
      <point x="262" y="309"/>
    </contour>
    <contour>
      <point x="120" y="330" type="curve"/>
      <point x="165" y="333"/>
      <point x="211" y="334"/>
      <point x="260" y="336" type="curve"/>
      <point x="259" y="430"/>
      <point x="257" y="522"/>
      <point x="254" y="614" type="curve"/>
      <point x="209" y="574"/>
      <point x="131" y="408"/>
    </contour>
  </outline>
</glyph>
<glyph name="Adiaeresis" format="2">
  <advance width="380"/>
  <unicode hex="00C4"/>
  <outline>
    <contour>
      <point x="264.84" y="759.215" type="curve" smooth="yes"/>
      <point x="260.565" y="751.521"/>
      <point x="260.565" y="739.55"/>
      <point x="258" y="731" type="curve" smooth="yes"/>
      <point x="249.45" y="700.221"/>
      <point x="208.41" y="709.625"/>
      <point x="210.975" y="739.55" type="curve" smooth="yes"/>
      <point x="210.975" y="751.521"/>
      <point x="216.96" y="763.49"/>
      <point x="216.96" y="775.461" type="curve"/>
      <point x="236.625" y="815.646"/>
      <point x="270.825" y="791.705"/>
    </contour>
    <contour>
      <point x="176.775" y="759.215" type="curve" smooth="yes"/>
      <point x="172.5" y="751.521"/>
      <point x="172.5" y="739.55"/>
      <point x="169.935" y="731" type="curve" smooth="yes"/>
      <point x="161.385" y="700.221"/>
      <point x="120.345" y="709.625"/>
      <point x="122.91" y="739.55" type="curve" smooth="yes"/>
      <point x="122.91" y="751.521"/>
      <point x="128.895" y="763.49"/>
      <point x="128.895" y="775.461" type="curve"/>
      <point x="148.56" y="815.646"/>
      <point x="182.76" y="791.705"/>
    </contour>
    <contour>
      <point x="259" y="272" type="curve"/>
      <point x="203" y="284"/>
      <point x="152" y="275"/>
      <point x="98" y="267" type="curve"/>
      <point x="89" y="205"/>
      <point x="64" y="110"/>
      <point x="63" y="48" type="curve" smooth="yes"/>
      <point x="63" y="-10"/>
      <point x="-9" y="-17"/>
      <point x="2" y="35" type="curve" smooth="yes"/>
      <point x="10" y="85"/>
      <point x="18" y="169"/>
      <point x="29" y="217" type="curve" smooth="yes"/>
      <point x="69" y="394"/>
      <point x="127" y="531"/>
      <point x="212" y="661" type="curve" smooth="yes"/>
      <point x="242" y="703"/>
      <point x="306" y="729"/>
      <point x="311" y="657" type="curve"/>
      <point x="312" y="415"/>
      <point x="315" y="232"/>
      <point x="317" y="48" type="curve" smooth="yes"/>
      <point x="317" y="-5"/>
      <point x="273" y="-17"/>
      <point x="265" y="16" type="curve"/>
      <point x="255" y="157"/>
      <point x="262" y="309"/>
    </contour>
    <contour>
      <point x="120" y="330" type="curve"/>
      <point x="165" y="333"/>
      <point x="211" y="334"/>
      <point x="260" y="336" type="curve"/>
      <point x="259" y="430"/>
      <point x="257" y="522"/>
      <point x="254" y="614" type="curve"/>
      <point x="209" y="574"/>
      <point x="131" y="408"/>
    </contour>
  </outline>
</glyph>
<glyph name="Aring" format="2">
  <advance width="380"/>
  <unicode hex="00C5"/>
  <outline>
    <contour>
      <point x="587.3" y="395.516" type="curve" smooth="yes"/>
      <point x="589.377" y="412.136"/>
      <point x="589.808" y="417.962"/>
      <point x="583.145" y="434.991" type="curve" smooth="yes"/>
      <point x="570.679" y="466.848"/>
      <point x="532.587" y="459.922"/>
      <point x="520.814" y="435.683" type="curve"/>
      <point x="510.427" y="415.599"/>
      <point x="512.504" y="399.67"/>
      <point x="521.508" y="379.587" type="curve"/>
      <point x="533.89" y="358.788"/>
      <point x="551.633" y="357.685"/>
      <point x="569.986" y="367.813" type="curve" smooth="yes"/>
      <point x="582.244" y="374.578"/>
      <point x="586.126" y="386.127"/>
    </contour>
    <contour>
      <point x="620.619" y="393.284" type="curve"/>
      <point x="617.232" y="373.084"/>
      <point x="611.693" y="359.965"/>
      <point x="595.61" y="345.959" type="curve"/>
      <point x="555.371" y="322.217"/>
      <point x="508.044" y="324.465"/>
      <point x="490.958" y="362.119" type="curve" smooth="yes"/>
      <point x="472.199" y="403.453"/>
      <point x="477.286" y="420.756"/>
      <point x="493.651" y="459.076" type="curve" smooth="yes"/>
      <point x="514.307" y="507.443"/>
      <point x="587.322" y="510.459"/>
      <point x="611" y="461" type="curve" smooth="yes"/>
      <point x="622.995" y="435.944"/>
      <point x="622.312" y="418.601"/>
    </contour>
    <contour>
      <point x="120" y="330" type="curve"/>
      <point x="165" y="333"/>
      <point x="211" y="334"/>
      <point x="260" y="336" type="curve"/>
      <point x="259" y="430"/>
      <point x="257" y="522"/>
      <point x="254" y="614" type="curve"/>
      <point x="209" y="574"/>
      <point x="131" y="408"/>
    </contour>
    <contour>
      <point x="259" y="272" type="curve"/>
      <point x="203" y="284"/>
      <point x="152" y="275"/>
      <point x="98" y="267" type="curve"/>
      <point x="89" y="205"/>
      <point x="64" y="110"/>
      <point x="63" y="48" type="curve" smooth="yes"/>
      <point x="63" y="-10"/>
      <point x="-9" y="-17"/>
      <point x="2" y="35" type="curve" smooth="yes"/>
      <point x="10" y="85"/>
      <point x="18" y="169"/>
      <point x="29" y="217" type="curve" smooth="yes"/>
      <point x="68.4479" y="391.557"/>
      <point x="124.277" y="527.954"/>
      <point x="208.449" y="655.644" type="curve" smooth="yes"/>
      <point x="206.937" y="657.972"/>
      <point x="205.566" y="660.476"/>
      <point x="204.348" y="663.16" type="curve" smooth="yes"/>
      <point x="185.589" y="704.494"/>
      <point x="190.676" y="721.797"/>
      <point x="207.041" y="760.117" type="curve" smooth="yes"/>
      <point x="227.696" y="808.484"/>
      <point x="300.712" y="811.5"/>
      <point x="324.39" y="762.041" type="curve" smooth="yes"/>
      <point x="336.385" y="736.985"/>
      <point x="335.702" y="719.642"/>
      <point x="334.009" y="694.325" type="curve" smooth="yes"/>
      <point x="330.769" y="675.001"/>
      <point x="325.56" y="662.158"/>
      <point x="311.035" y="648.819" type="curve"/>
      <point x="312.068" y="410.864"/>
      <point x="315.023" y="229.921"/>
      <point x="317" y="48" type="curve" smooth="yes"/>
      <point x="317" y="-5"/>
      <point x="273" y="-17"/>
      <point x="265" y="16" type="curve"/>
      <point x="255" y="157"/>
      <point x="262" y="309"/>
    </contour>
    <contour>
      <point x="300.689" y="696.557" type="curve" smooth="yes"/>
      <point x="302.767" y="713.177"/>
      <point x="303.197" y="719.003"/>
      <point x="296.534" y="736.032" type="curve" smooth="yes"/>
      <point x="284.068" y="767.889"/>
      <point x="245.977" y="760.963"/>
      <point x="234.204" y="736.724" type="curve" smooth="yes"/>
      <point x="223.816" y="716.64"/>
      <point x="225.894" y="700.711"/>
      <point x="234.897" y="680.628" type="curve" smooth="yes"/>
      <point x="247.279" y="659.829"/>
      <point x="265.022" y="658.726"/>
      <point x="283.376" y="668.854" type="curve" smooth="yes"/>
      <point x="295.634" y="675.619"/>
      <point x="299.516" y="687.168"/>
    </contour>
  </outline>
</glyph>
<glyph name="AE" format="2">
  <advance width="606"/>
  <unicode hex="00C6"/>
  <outline>
    <contour>
      <point x="259" y="272" type="curve"/>
      <point x="203" y="284"/>
      <point x="152" y="275"/>
      <point x="98" y="267" type="curve"/>
      <point x="89" y="205"/>
      <point x="64" y="110"/>
      <point x="63" y="48" type="curve" smooth="yes"/>
      <point x="63" y="-10"/>
      <point x="-9" y="-17"/>
      <point x="2" y="35" type="curve" smooth="yes"/>
      <point x="10" y="85"/>
      <point x="18" y="169"/>
      <point x="29" y="217" type="curve" smooth="yes"/>
      <point x="69" y="394"/>
      <point x="127" y="531"/>
      <point x="212" y="661" type="curve" smooth="yes"/>
      <point x="225.281" y="679.593"/>
      <point x="245.226" y="695.051"/>
      <point x="263.765" y="700.259" type="curve" smooth="yes"/>
      <point x="265.813" y="700.961"/>
      <point x="267.898" y="701.543"/>
      <point x="270" y="702" type="curve" smooth="yes"/>
      <point x="367" y="716"/>
      <point x="455" y="707"/>
      <point x="552" y="711" type="curve"/>
      <point x="595" y="708"/>
      <point x="595" y="648"/>
      <point x="554" y="643" type="curve" smooth="yes"/>
      <point x="490" y="639"/>
      <point x="429" y="638"/>
      <point x="368" y="633" type="curve"/>
      <point x="311.101" y="633" type="line"/>
      <point x="311.496" y="540.008"/>
      <point x="311.886" y="463.264"/>
      <point x="312.209" y="392.834" type="curve" smooth="yes"/>
      <point x="312.491" y="387.57"/>
      <point x="312.757" y="382.292"/>
      <point x="313" y="377" type="curve"/>
      <point x="338" y="380"/>
      <point x="360" y="385"/>
      <point x="382" y="388" type="curve" smooth="yes"/>
      <point x="429" y="396"/>
      <point x="474" y="404"/>
      <point x="520" y="413" type="curve" smooth="yes"/>
      <point x="526" y="413"/>
      <point x="529" y="416"/>
      <point x="535" y="416" type="curve" smooth="yes"/>
      <point x="578" y="416"/>
      <point x="584" y="356"/>
      <point x="540" y="346" type="curve" smooth="yes"/>
      <point x="496" y="338"/>
      <point x="448" y="333"/>
      <point x="404" y="325" type="curve" smooth="yes"/>
      <point x="374" y="320"/>
      <point x="346" y="312"/>
      <point x="315" y="305" type="curve"/>
      <point x="315" y="253"/>
      <point x="316" y="204"/>
      <point x="326" y="155" type="curve" smooth="yes"/>
      <point x="335" y="107"/>
      <point x="368" y="78"/>
      <point x="413" y="74" type="curve" smooth="yes"/>
      <point x="455" y="70"/>
      <point x="496" y="66"/>
      <point x="537" y="82" type="curve" smooth="yes"/>
      <point x="575" y="97"/>
      <point x="583" y="40"/>
      <point x="557" y="22" type="curve" smooth="yes"/>
      <point x="508" y="-14"/>
      <point x="427.637" y="-5.07292"/>
      <point x="376" y="13" type="curve" smooth="yes"/>
      <point x="316" y="34"/>
      <point x="273.633" y="84.1465"/>
      <point x="266" y="160" type="curve" smooth="yes"/>
      <point x="262.049" y="199.268"/>
      <point x="260.171" y="238.413"/>
      <point x="259.508" y="277.347" type="curve"/>
      <point x="259.316" y="275.591"/>
      <point x="259.146" y="273.803"/>
    </contour>
    <contour>
      <point x="259.322" y="335.972" type="curve"/>
      <point x="259.403" y="345.06"/>
      <point x="259.526" y="354.133"/>
      <point x="259.682" y="363.191" type="curve" smooth="yes"/>
      <point x="258.604" y="447.777"/>
      <point x="256.71" y="530.888"/>
      <point x="254" y="614" type="curve"/>
      <point x="209" y="574"/>
      <point x="131" y="408"/>
      <point x="120" y="330" type="curve"/>
      <point x="164.792" y="332.986"/>
      <point x="210.576" y="333.991"/>
    </contour>
  </outline>
</glyph>
<glyph name="Ccedilla" format="2">
  <advance width="436"/>
  <unicode hex="00C7"/>
  <outline>
    <contour>
      <point x="60" y="330" type="curve"/>
      <point x="60" y="239"/>
      <point x="73" y="163"/>
      <point x="113" y="100" type="curve" smooth="yes"/>
      <point x="146" y="54"/>
      <point x="188" y="47"/>
      <point x="227" y="87" type="curve" smooth="yes"/>
      <point x="260" y="123"/>
      <point x="289" y="164"/>
      <point x="318" y="202" type="curve" smooth="yes"/>
      <point x="332" y="220"/>
      <point x="376" y="256"/>
      <point x="376" y="199" type="curve" smooth="yes"/>
      <point x="376" y="188"/>
      <point x="370" y="174"/>
      <point x="364" y="164" type="curve" smooth="yes"/>
      <point x="327" y="122"/>
      <point x="297" y="74"/>
      <point x="260" y="36" type="curve" smooth="yes"/>
      <point x="238.399" y="15.4112"/>
      <point x="215.088" y="3.36644"/>
      <point x="191.838" y="-0.595668" type="curve"/>
      <point x="191.514" y="-14.5197"/>
      <point x="192.283" y="-29.4275"/>
      <point x="205.193" y="-40.4502" type="curve" smooth="yes"/>
      <point x="234.189" y="-63.3184"/>
      <point x="259.508" y="-92.7217"/>
      <point x="255.833" y="-133.559" type="curve" smooth="yes"/>
      <point x="252.975" y="-179.297"/>
      <point x="202.336" y="-206.25"/>
      <point x="163.948" y="-181.748" type="curve" smooth="yes"/>
      <point x="158.025" y="-177.968"/>
      <point x="142.859" y="-165.717"/>
      <point x="140" y="-160" type="curve" smooth="yes"/>
      <point x="133.627" y="-147.259"/>
      <point x="154.974" y="-131.974"/>
      <point x="166" y="-143" type="curve" smooth="yes"/>
      <point x="182.743" y="-168.318"/>
      <point x="216.057" y="-161.77"/>
      <point x="223" y="-134" type="curve" smooth="yes"/>
      <point x="231.241" y="-101.039"/>
      <point x="205.502" y="-83.6445"/>
      <point x="181" y="-62" type="curve" smooth="yes"/>
      <point x="167.632" y="-50.191"/>
      <point x="155.97" y="-33.6874"/>
      <point x="154.218" y="0.042658" type="curve"/>
      <point x="122.071" y="6.70782"/>
      <point x="91.9822" y="29.1327"/>
      <point x="69" y="66" type="curve" smooth="yes"/>
      <point x="11" y="153"/>
      <point x="-5" y="251"/>
      <point x="5" y="358" type="curve" smooth="yes"/>
      <point x="19" y="507"/>
      <point x="78" y="680"/>
      <point x="238" y="705" type="curve"/>
      <point x="322" y="696"/>
      <point x="319" y="609"/>
      <point x="308" y="547" type="curve" smooth="yes"/>
      <point x="304" y="504"/>
      <point x="247" y="512"/>
      <point x="256" y="563" type="curve" smooth="yes"/>
      <point x="261" y="595"/>
      <point x="270" y="642"/>
      <point x="227" y="639" type="curve" smooth="yes"/>
      <point x="106" y="626"/>
      <point x="68" y="423"/>
    </contour>
  </outline>
</glyph>
<glyph name="Egrave" format="2">
  <advance width="392"/>
  <unicode hex="00C8"/>
  <outline>
    <contour>
      <point x="227" y="732" type="curve" smooth="yes"/>
      <point x="228.44" y="716.641"/>
      <point x="212.192" y="706.031"/>
      <point x="202" y="715" type="curve" smooth="yes"/>
      <point x="178" y="736.12"/>
      <point x="166.38" y="747.96"/>
      <point x="145.74" y="770.521" type="curve"/>
      <point x="134.221" y="789.721"/>
      <point x="161.207" y="801.554"/>
      <point x="169.16" y="793.601" type="curve" smooth="yes"/>
      <point x="183.561" y="779.2"/>
      <point x="225.693" y="745.934"/>
    </contour>
    <contour>
      <point x="71" y="625" type="curve"/>
      <point x="61" y="539"/>
      <point x="71" y="456"/>
      <point x="75" y="369" type="curve"/>
      <point x="100" y="372"/>
      <point x="122" y="377"/>
      <point x="144" y="380" type="curve" smooth="yes"/>
      <point x="191" y="388"/>
      <point x="236" y="396"/>
      <point x="282" y="405" type="curve" smooth="yes"/>
      <point x="288" y="405"/>
      <point x="291" y="408"/>
      <point x="297" y="408" type="curve" smooth="yes"/>
      <point x="340" y="408"/>
      <point x="346" y="348"/>
      <point x="302" y="338" type="curve" smooth="yes"/>
      <point x="258" y="330"/>
      <point x="210" y="325"/>
      <point x="166" y="317" type="curve" smooth="yes"/>
      <point x="136" y="312"/>
      <point x="108" y="304"/>
      <point x="77" y="297" type="curve"/>
      <point x="77" y="245"/>
      <point x="78" y="196"/>
      <point x="88" y="147" type="curve" smooth="yes"/>
      <point x="97" y="99"/>
      <point x="130" y="70"/>
      <point x="175" y="66" type="curve" smooth="yes"/>
      <point x="217" y="62"/>
      <point x="258" y="58"/>
      <point x="299" y="74" type="curve" smooth="yes"/>
      <point x="337" y="89"/>
      <point x="345" y="32"/>
      <point x="319" y="14" type="curve" smooth="yes"/>
      <point x="270" y="-22"/>
      <point x="190" y="-12"/>
      <point x="138" y="5" type="curve" smooth="yes"/>
      <point x="78" y="26"/>
      <point x="37" y="72"/>
      <point x="31" y="148" type="curve" smooth="yes"/>
      <point x="15" y="307"/>
      <point x="13" y="456"/>
      <point x="8" y="605" type="curve" smooth="yes"/>
      <point x="8" y="618"/>
      <point x="2" y="630"/>
      <point x="-4" y="641" type="curve" smooth="yes"/>
      <point x="-12" y="669"/>
      <point x="-4" y="689"/>
      <point x="19" y="694" type="curve" smooth="yes"/>
      <point x="116" y="708"/>
      <point x="217" y="699"/>
      <point x="314" y="703" type="curve"/>
      <point x="357" y="700"/>
      <point x="357" y="640"/>
      <point x="316" y="635" type="curve" smooth="yes"/>
      <point x="252" y="631"/>
      <point x="191" y="630"/>
      <point x="130" y="625" type="curve" smooth="yes"/>
      <point x="110" y="625"/>
      <point x="92" y="625"/>
    </contour>
  </outline>
</glyph>
<glyph name="Ecircumflex" format="2">
  <advance width="392"/>
  <unicode hex="00CA"/>
  <outline>
    <contour>
      <point x="189" y="762" type="curve"/>
      <point x="176.568" y="744.191"/>
      <point x="170.295" y="734.943"/>
      <point x="159" y="718" type="curve" smooth="yes"/>
      <point x="147" y="700"/>
      <point x="125.336" y="716.764"/>
      <point x="135" y="731" type="curve" smooth="yes"/>
      <point x="147.335" y="749.171"/>
      <point x="160.441" y="768.34"/>
      <point x="172.304" y="786.355" type="curve" smooth="yes"/>
      <point x="181.376" y="800.133"/>
      <point x="194.242" y="800.211"/>
      <point x="205.231" y="786.355" type="curve" smooth="yes"/>
      <point x="220.688" y="766.868"/>
      <point x="233.556" y="749.592"/>
      <point x="249" y="729" type="curve" smooth="yes"/>
      <point x="257.064" y="718.248"/>
      <point x="238" y="701"/>
      <point x="227" y="714" type="curve" smooth="yes"/>
      <point x="208.707" y="735.619"/>
      <point x="205.8" y="739.824"/>
    </contour>
    <contour>
      <point x="71" y="625" type="curve"/>
      <point x="61" y="539"/>
      <point x="71" y="456"/>
      <point x="75" y="369" type="curve"/>
      <point x="100" y="372"/>
      <point x="122" y="377"/>
      <point x="144" y="380" type="curve" smooth="yes"/>
      <point x="191" y="388"/>
      <point x="236" y="396"/>
      <point x="282" y="405" type="curve" smooth="yes"/>
      <point x="288" y="405"/>
      <point x="291" y="408"/>
      <point x="297" y="408" type="curve" smooth="yes"/>
      <point x="340" y="408"/>
      <point x="346" y="348"/>
      <point x="302" y="338" type="curve" smooth="yes"/>
      <point x="258" y="330"/>
      <point x="210" y="325"/>
      <point x="166" y="317" type="curve" smooth="yes"/>
      <point x="136" y="312"/>
      <point x="108" y="304"/>
      <point x="77" y="297" type="curve"/>
      <point x="77" y="245"/>
      <point x="78" y="196"/>
      <point x="88" y="147" type="curve" smooth="yes"/>
      <point x="97" y="99"/>
      <point x="130" y="70"/>
      <point x="175" y="66" type="curve" smooth="yes"/>
      <point x="217" y="62"/>
      <point x="258" y="58"/>
      <point x="299" y="74" type="curve" smooth="yes"/>
      <point x="337" y="89"/>
      <point x="345" y="32"/>
      <point x="319" y="14" type="curve" smooth="yes"/>
      <point x="270" y="-22"/>
      <point x="190" y="-12"/>
      <point x="138" y="5" type="curve" smooth="yes"/>
      <point x="78" y="26"/>
      <point x="37" y="72"/>
      <point x="31" y="148" type="curve" smooth="yes"/>
      <point x="15" y="307"/>
      <point x="13" y="456"/>
      <point x="8" y="605" type="curve" smooth="yes"/>
      <point x="8" y="618"/>
      <point x="2" y="630"/>
      <point x="-4" y="641" type="curve" smooth="yes"/>
      <point x="-12" y="669"/>
      <point x="-4" y="689"/>
      <point x="19" y="694" type="curve" smooth="yes"/>
      <point x="116" y="708"/>
      <point x="217" y="699"/>
      <point x="314" y="703" type="curve"/>
      <point x="357" y="700"/>
      <point x="357" y="640"/>
      <point x="316" y="635" type="curve" smooth="yes"/>
      <point x="252" y="631"/>
      <point x="191" y="630"/>
      <point x="130" y="625" type="curve" smooth="yes"/>
      <point x="110" y="625"/>
      <point x="92" y="625"/>
    </contour>
  </outline>
</glyph>
<glyph name="Igrave" format="2">
  <advance width="324"/>
  <unicode hex="00CC"/>
  <outline>
    <contour>
      <point x="176" y="732" type="curve" smooth="yes"/>
      <point x="177.44" y="716.641"/>
      <point x="161.192" y="706.031"/>
      <point x="151" y="715" type="curve" smooth="yes"/>
      <point x="127" y="736.12"/>
      <point x="115.38" y="747.96"/>
      <point x="94.7402" y="770.521" type="curve"/>
      <point x="83.2207" y="789.721"/>
      <point x="110.207" y="801.554"/>
      <point x="118.16" y="793.601" type="curve" smooth="yes"/>
      <point x="132.561" y="779.2"/>
      <point x="174.693" y="745.934"/>
    </contour>
    <contour>
      <point x="159" y="67" type="curve"/>
      <point x="184" y="66"/>
      <point x="203" y="66"/>
      <point x="220" y="66" type="curve" smooth="yes"/>
      <point x="259" y="61"/>
      <point x="261" y="14"/>
      <point x="224" y="8" type="curve" smooth="yes"/>
      <point x="152" y="4"/>
      <point x="88" y="-6"/>
      <point x="27" y="6" type="curve"/>
      <point x="1" y="17"/>
      <point x="0" y="60"/>
      <point x="31" y="60" type="curve" smooth="yes"/>
      <point x="56" y="62"/>
      <point x="80" y="59"/>
      <point x="102" y="64" type="curve"/>
      <point x="102" y="253"/>
      <point x="104" y="450"/>
      <point x="104" y="641" type="curve"/>
      <point x="93" y="641"/>
      <point x="80" y="641"/>
      <point x="70" y="645" type="curve" smooth="yes"/>
      <point x="50" y="653"/>
      <point x="29" y="674"/>
      <point x="62" y="697" type="curve"/>
      <point x="102" y="705"/>
      <point x="154" y="699"/>
      <point x="193" y="699" type="curve" smooth="yes"/>
      <point x="223" y="699"/>
      <point x="246" y="657"/>
      <point x="199" y="643" type="curve" smooth="yes"/>
      <point x="193" y="641"/>
      <point x="175" y="645"/>
      <point x="164" y="641" type="curve"/>
      <point x="155" y="452"/>
      <point x="156" y="261"/>
    </contour>
  </outline>
</glyph>
<glyph name="Icircumflex" format="2">
  <advance width="324"/>
  <unicode hex="00CE"/>
  <outline>
    <contour>
      <point x="134" y="762" type="curve"/>
      <point x="121.568" y="744.191"/>
      <point x="115.296" y="734.943"/>
      <point x="104" y="718" type="curve" smooth="yes"/>
      <point x="92" y="700"/>
      <point x="70.3359" y="716.764"/>
      <point x="80" y="731" type="curve" smooth="yes"/>
      <point x="92.335" y="749.171"/>
      <point x="105.44" y="768.34"/>
      <point x="117.304" y="786.355" type="curve" smooth="yes"/>
      <point x="126.376" y="800.133"/>
      <point x="139.242" y="800.211"/>
      <point x="150.231" y="786.355" type="curve" smooth="yes"/>
      <point x="165.688" y="766.868"/>
      <point x="178.556" y="749.592"/>
      <point x="194" y="729" type="curve" smooth="yes"/>
      <point x="202.064" y="718.248"/>
      <point x="183" y="701"/>
      <point x="172" y="714" type="curve" smooth="yes"/>
      <point x="153.707" y="735.619"/>
      <point x="150.8" y="739.824"/>
    </contour>
    <contour>
      <point x="159" y="67" type="curve"/>
      <point x="184" y="66"/>
      <point x="203" y="66"/>
      <point x="220" y="66" type="curve" smooth="yes"/>
      <point x="259" y="61"/>
      <point x="261" y="14"/>
      <point x="224" y="8" type="curve" smooth="yes"/>
      <point x="152" y="4"/>
      <point x="88" y="-6"/>
      <point x="27" y="6" type="curve"/>
      <point x="1" y="17"/>
      <point x="0" y="60"/>
      <point x="31" y="60" type="curve" smooth="yes"/>
      <point x="56" y="62"/>
      <point x="80" y="59"/>
      <point x="102" y="64" type="curve"/>
      <point x="102" y="253"/>
      <point x="104" y="450"/>
      <point x="104" y="641" type="curve"/>
      <point x="93" y="641"/>
      <point x="80" y="641"/>
      <point x="70" y="645" type="curve" smooth="yes"/>
      <point x="50" y="653"/>
      <point x="29" y="674"/>
      <point x="62" y="697" type="curve"/>
      <point x="102" y="705"/>
      <point x="154" y="699"/>
      <point x="193" y="699" type="curve" smooth="yes"/>
      <point x="223" y="699"/>
      <point x="246" y="657"/>
      <point x="199" y="643" type="curve" smooth="yes"/>
      <point x="193" y="641"/>
      <point x="175" y="645"/>
      <point x="164" y="641" type="curve"/>
      <point x="155" y="452"/>
      <point x="156" y="261"/>
    </contour>
  </outline>
</glyph>
<glyph name="Idiaeresis" format="2">
  <advance width="324"/>
  <unicode hex="00CF"/>
  <outline>
    <contour>
      <point x="207.265" y="758.685" type="curve" smooth="yes"/>
      <point x="202.99" y="750.99"/>
      <point x="202.99" y="739.02"/>
      <point x="200.425" y="730.47" type="curve" smooth="yes"/>
      <point x="191.875" y="699.69"/>
      <point x="150.835" y="709.095"/>
      <point x="153.399" y="739.02" type="curve" smooth="yes"/>
      <point x="153.399" y="750.99"/>
      <point x="159.385" y="762.96"/>
      <point x="159.385" y="774.931" type="curve"/>
      <point x="179.05" y="815.115"/>
      <point x="213.25" y="791.175"/>
    </contour>
    <contour>
      <point x="119.2" y="758.685" type="curve" smooth="yes"/>
      <point x="114.925" y="750.99"/>
      <point x="114.925" y="739.02"/>
      <point x="112.359" y="730.47" type="curve" smooth="yes"/>
      <point x="103.81" y="699.69"/>
      <point x="62.7695" y="709.095"/>
      <point x="65.335" y="739.02" type="curve" smooth="yes"/>
      <point x="65.335" y="750.99"/>
      <point x="71.3193" y="762.96"/>
      <point x="71.3193" y="774.931" type="curve"/>
      <point x="90.9844" y="815.115"/>
      <point x="125.185" y="791.175"/>
    </contour>
    <contour>
      <point x="159" y="67" type="curve"/>
      <point x="184" y="66"/>
      <point x="203" y="66"/>
      <point x="220" y="66" type="curve" smooth="yes"/>
      <point x="259" y="61"/>
      <point x="261" y="14"/>
      <point x="224" y="8" type="curve" smooth="yes"/>
      <point x="152" y="4"/>
      <point x="88" y="-6"/>
      <point x="27" y="6" type="curve"/>
      <point x="1" y="17"/>
      <point x="0" y="60"/>
      <point x="31" y="60" type="curve" smooth="yes"/>
      <point x="56" y="62"/>
      <point x="80" y="59"/>
      <point x="102" y="64" type="curve"/>
      <point x="102" y="253"/>
      <point x="104" y="450"/>
      <point x="104" y="641" type="curve"/>
      <point x="93" y="641"/>
      <point x="80" y="641"/>
      <point x="70" y="645" type="curve" smooth="yes"/>
      <point x="50" y="653"/>
      <point x="29" y="674"/>
      <point x="62" y="697" type="curve"/>
      <point x="102" y="705"/>
      <point x="154" y="699"/>
      <point x="193" y="699" type="curve" smooth="yes"/>
      <point x="223" y="699"/>
      <point x="246" y="657"/>
      <point x="199" y="643" type="curve" smooth="yes"/>
      <point x="193" y="641"/>
      <point x="175" y="645"/>
      <point x="164" y="641" type="curve"/>
      <point x="155" y="452"/>
      <point x="156" y="261"/>
    </contour>
  </outline>
</glyph>
<glyph name="Eth" format="2">
  <advance width="448"/>
  <unicode hex="00D0"/>
  <outline>
    <contour>
      <point x="23.125" y="357" type="curve" smooth="yes"/>
      <point x="10.375" y="358"/>
      <point x="0.625" y="367"/>
      <point x="1.375" y="386" type="curve" smooth="yes"/>
      <point x="1.375" y="398"/>
      <point x="12.625" y="411"/>
      <point x="23.125" y="410" type="curve" smooth="yes"/>
      <point x="89.875" y="414"/>
      <point x="140.125" y="416"/>
      <point x="202.375" y="415" type="curve" smooth="yes"/>
      <point x="216.625" y="414"/>
      <point x="228.625" y="412"/>
      <point x="231.625" y="390" type="curve" smooth="yes"/>
      <point x="233.875" y="368"/>
      <point x="212.125" y="357"/>
      <point x="200.125" y="358" type="curve" smooth="yes"/>
      <point x="129.625" y="360"/>
      <point x="85.375" y="352"/>
    </contour>
    <contour>
      <point x="147" y="18" type="curve" smooth="yes"/>
      <point x="132" y="2"/>
      <point x="116" y="-8"/>
      <point x="92" y="0" type="curve" smooth="yes"/>
      <point x="66" y="8"/>
      <point x="63" y="26"/>
      <point x="63" y="47" type="curve" smooth="yes"/>
      <point x="66" y="250"/>
      <point x="67" y="437"/>
      <point x="64" y="624" type="curve" smooth="yes"/>
      <point x="64" y="653"/>
      <point x="69" y="663"/>
      <point x="102" y="674" type="curve" smooth="yes"/>
      <point x="204" y="715"/>
      <point x="319" y="694"/>
      <point x="377" y="600" type="curve"/>
      <point x="469" y="385"/>
      <point x="291" y="168"/>
    </contour>
    <contour>
      <point x="132" y="622" type="curve"/>
      <point x="132" y="446"/>
      <point x="132" y="272"/>
      <point x="132" y="91" type="curve"/>
      <point x="229" y="207"/>
      <point x="389" y="399"/>
      <point x="330" y="550" type="curve" smooth="yes"/>
      <point x="302" y="627"/>
      <point x="224" y="657"/>
    </contour>
  </outline>
</glyph>
<glyph name="Ntilde" format="2">
  <advance width="432"/>
  <unicode hex="00D1"/>
  <outline>
    <contour>
      <point x="169.74" y="736.6" type="curve" smooth="yes"/>
      <point x="151.98" y="751"/>
      <point x="139.98" y="750.04"/>
      <point x="124.141" y="733.72" type="curve"/>
      <point x="103.5" y="706.36"/>
      <point x="80.4609" y="726.04"/>
      <point x="90.54" y="741.88" type="curve"/>
      <point x="105.9" y="775"/>
      <point x="148.621" y="798.521"/>
      <point x="182.221" y="767.32" type="curve"/>
      <point x="204.301" y="751"/>
      <point x="223.98" y="745.239"/>
      <point x="240.78" y="763.96" type="curve" smooth="yes"/>
      <point x="245.58" y="768.76"/>
      <point x="250.38" y="774.521"/>
      <point x="254.7" y="777.88" type="curve" smooth="yes"/>
      <point x="267.18" y="787.479"/>
      <point x="281.58" y="772.6"/>
      <point x="277.261" y="759.16" type="curve" smooth="yes"/>
      <point x="266.221" y="727.479"/>
      <point x="211.5" y="700.12"/>
    </contour>
    <contour>
      <point x="316" y="146" type="curve"/>
      <point x="308" y="319"/>
      <point x="306" y="487"/>
      <point x="302" y="655" type="curve" smooth="yes"/>
      <point x="302" y="656"/>
      <point x="302" y="659"/>
      <point x="302" y="662" type="curve" smooth="yes"/>
      <point x="308" y="710"/>
      <point x="356" y="709"/>
      <point x="360" y="662" type="curve"/>
      <point x="360" y="448"/>
      <point x="358" y="266"/>
      <point x="382" y="68" type="curve" smooth="yes"/>
      <point x="385" y="48"/>
      <point x="382" y="32"/>
      <point x="372" y="16" type="curve" smooth="yes"/>
      <point x="360" y="-4"/>
      <point x="341" y="-5"/>
      <point x="325" y="9" type="curve" smooth="yes"/>
      <point x="315" y="21"/>
      <point x="307" y="34"/>
      <point x="301" y="48" type="curve" smooth="yes"/>
      <point x="219" y="206"/>
      <point x="148" y="372"/>
      <point x="63" y="529" type="curve"/>
      <point x="65" y="349"/>
      <point x="69" y="188"/>
      <point x="72" y="49" type="curve" smooth="yes"/>
      <point x="72" y="40"/>
      <point x="72" y="28"/>
      <point x="69" y="20" type="curve" smooth="yes"/>
      <point x="57" y="-9"/>
      <point x="26" y="-5"/>
      <point x="16" y="20" type="curve"/>
      <point x="12" y="241"/>
      <point x="10" y="450"/>
      <point x="2" y="637" type="curve" smooth="yes"/>
      <point x="2" y="648"/>
      <point x="2" y="662"/>
      <point x="7" y="670" type="curve" smooth="yes"/>
      <point x="24" y="700"/>
      <point x="56" y="699"/>
      <point x="67" y="672" type="curve" smooth="yes"/>
      <point x="153" y="499"/>
      <point x="225" y="317"/>
    </contour>
  </outline>
</glyph>
<glyph name="Ograve" format="2">
  <advance width="444"/>
  <unicode hex="00D2"/>
  <outline>
    <contour>
      <point x="240" y="732" type="curve" smooth="yes"/>
      <point x="241.44" y="716.641"/>
      <point x="225.192" y="706.031"/>
      <point x="215" y="715" type="curve" smooth="yes"/>
      <point x="191" y="736.12"/>
      <point x="179.38" y="747.96"/>
      <point x="158.74" y="770.521" type="curve"/>
      <point x="147.221" y="789.721"/>
      <point x="174.207" y="801.554"/>
      <point x="182.16" y="793.601" type="curve" smooth="yes"/>
      <point x="196.561" y="779.2"/>
      <point x="238.693" y="745.934"/>
    </contour>
    <contour>
      <point x="381" y="267" type="curve"/>
      <point x="373" y="192"/>
      <point x="351" y="128"/>
      <point x="313" y="76" type="curve"/>
      <point x="208" y="-34"/>
      <point x="89" y="-14"/>
      <point x="41" y="126" type="curve" smooth="yes"/>
      <point x="-12" y="272"/>
      <point x="-9" y="417"/>
      <point x="43" y="563" type="curve" smooth="yes"/>
      <point x="107" y="741"/>
      <point x="310" y="744"/>
      <point x="355" y="555" type="curve" smooth="yes"/>
      <point x="379" y="459"/>
      <point x="385" y="361"/>
    </contour>
    <contour>
      <point x="322" y="250" type="curve" smooth="yes"/>
      <point x="330" y="362"/>
      <point x="324" y="447"/>
      <point x="304" y="530" type="curve" smooth="yes"/>
      <point x="263" y="689"/>
      <point x="127" y="664"/>
      <point x="90" y="530" type="curve"/>
      <point x="52" y="412"/>
      <point x="50" y="291"/>
      <point x="83" y="170" type="curve"/>
      <point x="120" y="61"/>
      <point x="197" y="24"/>
      <point x="275" y="119" type="curve" smooth="yes"/>
      <point x="309" y="161"/>
      <point x="321" y="211"/>
    </contour>
  </outline>
</glyph>
<glyph name="Oacute" format="2">
  <advance width="444"/>
  <unicode hex="00D3"/>
  <outline>
    <contour>
      <point x="156.74" y="732" type="curve" smooth="yes"/>
      <point x="155.3" y="716.641"/>
      <point x="171.548" y="706.031"/>
      <point x="181.74" y="715" type="curve" smooth="yes"/>
      <point x="205.74" y="736.12"/>
      <point x="217.36" y="747.96"/>
      <point x="238" y="770.521" type="curve"/>
      <point x="249.52" y="789.721"/>
      <point x="222.533" y="801.554"/>
      <point x="214.58" y="793.601" type="curve" smooth="yes"/>
      <point x="200.18" y="779.2"/>
      <point x="158.047" y="745.934"/>
    </contour>
    <contour>
      <point x="381" y="267" type="curve"/>
      <point x="373" y="192"/>
      <point x="351" y="128"/>
      <point x="313" y="76" type="curve"/>
      <point x="208" y="-34"/>
      <point x="89" y="-14"/>
      <point x="41" y="126" type="curve" smooth="yes"/>
      <point x="-12" y="272"/>
      <point x="-9" y="417"/>
      <point x="43" y="563" type="curve" smooth="yes"/>
      <point x="107" y="741"/>
      <point x="310" y="744"/>
      <point x="355" y="555" type="curve" smooth="yes"/>
      <point x="379" y="459"/>
      <point x="385" y="361"/>
    </contour>
    <contour>
      <point x="322" y="250" type="curve" smooth="yes"/>
      <point x="330" y="362"/>
      <point x="324" y="447"/>
      <point x="304" y="530" type="curve" smooth="yes"/>
      <point x="263" y="689"/>
      <point x="127" y="664"/>
      <point x="90" y="530" type="curve"/>
      <point x="52" y="412"/>
      <point x="50" y="291"/>
      <point x="83" y="170" type="curve"/>
      <point x="120" y="61"/>
      <point x="197" y="24"/>
      <point x="275" y="119" type="curve" smooth="yes"/>
      <point x="309" y="161"/>
      <point x="321" y="211"/>
    </contour>
  </outline>
</glyph>
<glyph name="Ocircumflex" format="2">
  <advance width="444"/>
  <unicode hex="00D4"/>
  <outline>
    <contour>
      <point x="201" y="762" type="curve"/>
      <point x="188.568" y="744.191"/>
      <point x="182.296" y="734.943"/>
      <point x="171" y="718" type="curve" smooth="yes"/>
      <point x="159" y="700"/>
      <point x="137.336" y="716.764"/>
      <point x="147" y="731" type="curve" smooth="yes"/>
      <point x="159.335" y="749.171"/>
      <point x="172.44" y="768.34"/>
      <point x="184.304" y="786.355" type="curve" smooth="yes"/>
      <point x="193.376" y="800.133"/>
      <point x="206.242" y="800.211"/>
      <point x="217.231" y="786.355" type="curve" smooth="yes"/>
      <point x="232.688" y="766.868"/>
      <point x="245.556" y="749.592"/>
      <point x="261" y="729" type="curve" smooth="yes"/>
      <point x="269.064" y="718.248"/>
      <point x="250" y="701"/>
      <point x="239" y="714" type="curve" smooth="yes"/>
      <point x="220.707" y="735.619"/>
      <point x="217.8" y="739.824"/>
    </contour>
    <contour>
      <point x="381" y="267" type="curve"/>
      <point x="373" y="192"/>
      <point x="351" y="128"/>
      <point x="313" y="76" type="curve"/>
      <point x="208" y="-34"/>
      <point x="89" y="-14"/>
      <point x="41" y="126" type="curve" smooth="yes"/>
      <point x="-12" y="272"/>
      <point x="-9" y="417"/>
      <point x="43" y="563" type="curve" smooth="yes"/>
      <point x="107" y="741"/>
      <point x="310" y="744"/>
      <point x="355" y="555" type="curve" smooth="yes"/>
      <point x="379" y="459"/>
      <point x="385" y="361"/>
    </contour>
    <contour>
      <point x="322" y="250" type="curve" smooth="yes"/>
      <point x="330" y="362"/>
      <point x="324" y="447"/>
      <point x="304" y="530" type="curve" smooth="yes"/>
      <point x="263" y="689"/>
      <point x="127" y="664"/>
      <point x="90" y="530" type="curve"/>
      <point x="52" y="412"/>
      <point x="50" y="291"/>
      <point x="83" y="170" type="curve"/>
      <point x="120" y="61"/>
      <point x="197" y="24"/>
      <point x="275" y="119" type="curve" smooth="yes"/>
      <point x="309" y="161"/>
      <point x="321" y="211"/>
    </contour>
  </outline>
</glyph>
<glyph name="Otilde" format="2">
  <advance width="444"/>
  <unicode hex="00D5"/>
  <outline>
    <contour>
      <point x="188.74" y="736.6" type="curve" smooth="yes"/>
      <point x="170.98" y="751"/>
      <point x="158.98" y="750.04"/>
      <point x="143.141" y="733.72" type="curve"/>
      <point x="122.5" y="706.36"/>
      <point x="99.4609" y="726.04"/>
      <point x="109.54" y="741.88" type="curve"/>
      <point x="124.9" y="775"/>
      <point x="167.621" y="798.521"/>
      <point x="201.221" y="767.32" type="curve"/>
      <point x="223.301" y="751"/>
      <point x="242.98" y="745.239"/>
      <point x="259.78" y="763.96" type="curve" smooth="yes"/>
      <point x="264.58" y="768.76"/>
      <point x="269.38" y="774.521"/>
      <point x="273.7" y="777.88" type="curve" smooth="yes"/>
      <point x="286.18" y="787.479"/>
      <point x="300.58" y="772.6"/>
      <point x="296.261" y="759.16" type="curve" smooth="yes"/>
      <point x="285.221" y="727.479"/>
      <point x="230.5" y="700.12"/>
    </contour>
    <contour>
      <point x="381" y="267" type="curve"/>
      <point x="373" y="192"/>
      <point x="351" y="128"/>
      <point x="313" y="76" type="curve"/>
      <point x="208" y="-34"/>
      <point x="89" y="-14"/>
      <point x="41" y="126" type="curve" smooth="yes"/>
      <point x="-12" y="272"/>
      <point x="-9" y="417"/>
      <point x="43" y="563" type="curve" smooth="yes"/>
      <point x="107" y="741"/>
      <point x="310" y="744"/>
      <point x="355" y="555" type="curve" smooth="yes"/>
      <point x="379" y="459"/>
      <point x="385" y="361"/>
    </contour>
    <contour>
      <point x="322" y="250" type="curve" smooth="yes"/>
      <point x="330" y="362"/>
      <point x="324" y="447"/>
      <point x="304" y="530" type="curve" smooth="yes"/>
      <point x="263" y="689"/>
      <point x="127" y="664"/>
      <point x="90" y="530" type="curve"/>
      <point x="52" y="412"/>
      <point x="50" y="291"/>
      <point x="83" y="170" type="curve"/>
      <point x="120" y="61"/>
      <point x="197" y="24"/>
      <point x="275" y="119" type="curve" smooth="yes"/>
      <point x="309" y="161"/>
      <point x="321" y="211"/>
    </contour>
  </outline>
</glyph>
<glyph name="Odiaeresis" format="2">
  <advance width="444"/>
  <unicode hex="00D6"/>
  <outline>
    <contour>
      <point x="268.265" y="758.685" type="curve" smooth="yes"/>
      <point x="263.99" y="750.99"/>
      <point x="263.99" y="739.02"/>
      <point x="261.425" y="730.47" type="curve" smooth="yes"/>
      <point x="252.875" y="699.69"/>
      <point x="211.835" y="709.095"/>
      <point x="214.399" y="739.02" type="curve" smooth="yes"/>
      <point x="214.399" y="750.99"/>
      <point x="220.385" y="762.96"/>
      <point x="220.385" y="774.931" type="curve"/>
      <point x="240.05" y="815.115"/>
      <point x="274.25" y="791.175"/>
    </contour>
    <contour>
      <point x="180.2" y="758.685" type="curve" smooth="yes"/>
      <point x="175.925" y="750.99"/>
      <point x="175.925" y="739.02"/>
      <point x="173.359" y="730.47" type="curve" smooth="yes"/>
      <point x="164.81" y="699.69"/>
      <point x="123.77" y="709.095"/>
      <point x="126.335" y="739.02" type="curve" smooth="yes"/>
      <point x="126.335" y="750.99"/>
      <point x="132.319" y="762.96"/>
      <point x="132.319" y="774.931" type="curve"/>
      <point x="151.984" y="815.115"/>
      <point x="186.185" y="791.175"/>
    </contour>
    <contour>
      <point x="381" y="267" type="curve"/>
      <point x="373" y="192"/>
      <point x="351" y="128"/>
      <point x="313" y="76" type="curve"/>
      <point x="208" y="-34"/>
      <point x="89" y="-14"/>
      <point x="41" y="126" type="curve" smooth="yes"/>
      <point x="-12" y="272"/>
      <point x="-9" y="417"/>
      <point x="43" y="563" type="curve" smooth="yes"/>
      <point x="107" y="741"/>
      <point x="310" y="744"/>
      <point x="355" y="555" type="curve" smooth="yes"/>
      <point x="379" y="459"/>
      <point x="385" y="361"/>
    </contour>
    <contour>
      <point x="322" y="250" type="curve" smooth="yes"/>
      <point x="330" y="362"/>
      <point x="324" y="447"/>
      <point x="304" y="530" type="curve" smooth="yes"/>
      <point x="263" y="689"/>
      <point x="127" y="664"/>
      <point x="90" y="530" type="curve"/>
      <point x="52" y="412"/>
      <point x="50" y="291"/>
      <point x="83" y="170" type="curve"/>
      <point x="120" y="61"/>
      <point x="197" y="24"/>
      <point x="275" y="119" type="curve" smooth="yes"/>
      <point x="309" y="161"/>
      <point x="321" y="211"/>
    </contour>
  </outline>
</glyph>
<glyph name="multiply" format="2">
  <advance width="416"/>
  <unicode hex="00D7"/>
  <outline>
    <contour>
      <point x="52.373" y="421.942" type="curve" smooth="yes"/>
      <point x="41.0596" y="434.671"/>
      <point x="38.2314" y="450.227"/>
      <point x="52.373" y="462.955" type="curve" smooth="yes"/>
      <point x="60.8584" y="471.44"/>
      <point x="80.6572" y="470.026"/>
      <point x="89.8496" y="459.419" type="curve" smooth="yes"/>
      <point x="114.397" y="436.984"/>
      <point x="136.579" y="416.519"/>
      <point x="157.758" y="396.59" type="curve"/>
      <point x="179.553" y="419.572"/>
      <point x="201.556" y="441.951"/>
      <point x="228.442" y="465.783" type="curve" smooth="yes"/>
      <point x="241.171" y="477.097"/>
      <point x="256.727" y="479.925"/>
      <point x="269.455" y="465.783" type="curve" smooth="yes"/>
      <point x="277.94" y="457.298"/>
      <point x="276.526" y="437.499"/>
      <point x="265.919" y="428.307" type="curve" smooth="yes"/>
      <point x="242.157" y="402.308"/>
      <point x="220.606" y="378.962"/>
      <point x="199.561" y="356.652" type="curve"/>
      <point x="220.129" y="336.675"/>
      <point x="240.608" y="316.263"/>
      <point x="262.384" y="293.956" type="curve" smooth="yes"/>
      <point x="275.112" y="279.814"/>
      <point x="285.012" y="267.086"/>
      <point x="272.283" y="248.701" type="curve" smooth="yes"/>
      <point x="258.849" y="231.024"/>
      <point x="230.564" y="243.752"/>
      <point x="219.958" y="255.772" type="curve" smooth="yes"/>
      <point x="198.272" y="278.402"/>
      <point x="178.55" y="297.495"/>
      <point x="159.85" y="315.2" type="curve"/>
      <point x="140.922" y="295.769"/>
      <point x="121.535" y="276.349"/>
      <point x="100.456" y="255.772" type="curve" smooth="yes"/>
      <point x="86.3145" y="243.044"/>
      <point x="73.5859" y="233.145"/>
      <point x="55.2012" y="245.873" type="curve" smooth="yes"/>
      <point x="37.5244" y="259.308"/>
      <point x="50.252" y="287.592"/>
      <point x="62.2725" y="298.198" type="curve" smooth="yes"/>
      <point x="83.3848" y="318.431"/>
      <point x="101.419" y="336.953"/>
      <point x="118.12" y="354.532" type="curve"/>
      <point x="96.3412" y="375.267"/>
      <point x="75.0123" y="396.401"/>
    </contour>
  </outline>
</glyph>
<glyph name="Oslash" format="2">
  <advance width="444"/>
  <unicode hex="00D8"/>
  <outline>
    <contour>
      <point x="333" y="658" type="curve"/>
      <point x="258" y="443"/>
      <point x="176" y="221"/>
      <point x="101" y="7" type="curve" smooth="yes"/>
      <point x="86" y="-28"/>
      <point x="39" y="-13"/>
      <point x="57" y="23" type="curve"/>
      <point x="135" y="245"/>
      <point x="212" y="462"/>
      <point x="289" y="684" type="curve"/>
      <point x="325" y="746"/>
      <point x="361" y="701"/>
    </contour>
    <contour>
      <point x="381" y="267" type="curve"/>
      <point x="373" y="192"/>
      <point x="351" y="128"/>
      <point x="313" y="76" type="curve"/>
      <point x="208" y="-34"/>
      <point x="89" y="-14"/>
      <point x="41" y="126" type="curve" smooth="yes"/>
      <point x="-12" y="272"/>
      <point x="-9" y="417"/>
      <point x="43" y="563" type="curve" smooth="yes"/>
      <point x="107" y="741"/>
      <point x="310" y="744"/>
      <point x="355" y="555" type="curve" smooth="yes"/>
      <point x="379" y="459"/>
      <point x="385" y="361"/>
    </contour>
    <contour>
      <point x="322" y="250" type="curve" smooth="yes"/>
      <point x="330" y="362"/>
      <point x="324" y="447"/>
      <point x="304" y="530" type="curve" smooth="yes"/>
      <point x="263" y="689"/>
      <point x="127" y="664"/>
      <point x="90" y="530" type="curve"/>
      <point x="52" y="412"/>
      <point x="50" y="291"/>
      <point x="83" y="170" type="curve"/>
      <point x="120" y="61"/>
      <point x="197" y="24"/>
      <point x="275" y="119" type="curve" smooth="yes"/>
      <point x="309" y="161"/>
      <point x="321" y="211"/>
    </contour>
  </outline>
</glyph>
<glyph name="Ucircumflex" format="2">
  <advance width="420"/>
  <unicode hex="00DB"/>
  <outline>
    <contour>
      <point x="180" y="762" type="curve"/>
      <point x="167.568" y="744.191"/>
      <point x="161.296" y="734.943"/>
      <point x="150" y="718" type="curve" smooth="yes"/>
      <point x="138" y="700"/>
      <point x="116.336" y="716.764"/>
      <point x="126" y="731" type="curve" smooth="yes"/>
      <point x="138.335" y="749.171"/>
      <point x="151.44" y="768.34"/>
      <point x="163.304" y="786.355" type="curve" smooth="yes"/>
      <point x="172.376" y="800.133"/>
      <point x="185.242" y="800.211"/>
      <point x="196.231" y="786.355" type="curve" smooth="yes"/>
      <point x="211.688" y="766.868"/>
      <point x="224.556" y="749.592"/>
      <point x="240" y="729" type="curve" smooth="yes"/>
      <point x="248.064" y="718.248"/>
      <point x="229" y="701"/>
      <point x="218" y="714" type="curve" smooth="yes"/>
      <point x="199.707" y="735.619"/>
      <point x="196.8" y="739.824"/>
    </contour>
    <contour>
      <point x="90" y="159" type="curve"/>
      <point x="113" y="62"/>
      <point x="195" y="21"/>
      <point x="248" y="124" type="curve" smooth="yes"/>
      <point x="316" y="263"/>
      <point x="308" y="449"/>
      <point x="283" y="593" type="curve" smooth="yes"/>
      <point x="279" y="613"/>
      <point x="275" y="634"/>
      <point x="273" y="653" type="curve" smooth="yes"/>
      <point x="276" y="699"/>
      <point x="318" y="708"/>
      <point x="329" y="664" type="curve" smooth="yes"/>
      <point x="359" y="497"/>
      <point x="372" y="329"/>
      <point x="324" y="161" type="curve" smooth="yes"/>
      <point x="312" y="118"/>
      <point x="292" y="78"/>
      <point x="265" y="45" type="curve" smooth="yes"/>
      <point x="224" y="-6"/>
      <point x="167" y="-14"/>
      <point x="116" y="23" type="curve" smooth="yes"/>
      <point x="79" y="47"/>
      <point x="59" y="82"/>
      <point x="40" y="126" type="curve" smooth="yes"/>
      <point x="-17" y="288"/>
      <point x="9" y="478"/>
      <point x="21" y="640" type="curve" smooth="yes"/>
      <point x="21" y="650"/>
      <point x="21" y="660"/>
      <point x="23" y="667" type="curve" smooth="yes"/>
      <point x="31" y="701"/>
      <point x="72" y="702"/>
      <point x="76" y="667" type="curve" smooth="yes"/>
      <point x="78" y="656"/>
      <point x="78" y="646"/>
      <point x="78" y="634" type="curve" smooth="yes"/>
      <point x="63" y="468"/>
      <point x="44" y="311"/>
    </contour>
  </outline>
</glyph>
<glyph name="Udiaeresis" format="2">
  <advance width="420"/>
  <unicode hex="00DC"/>
  <outline>
    <contour>
      <point x="253.265" y="758.685" type="curve" smooth="yes"/>
      <point x="248.99" y="750.99"/>
      <point x="248.99" y="739.02"/>
      <point x="246.425" y="730.47" type="curve" smooth="yes"/>
      <point x="237.875" y="699.69"/>
      <point x="196.835" y="709.095"/>
      <point x="199.399" y="739.02" type="curve" smooth="yes"/>
      <point x="199.399" y="750.99"/>
      <point x="205.385" y="762.96"/>
      <point x="205.385" y="774.931" type="curve"/>
      <point x="225.05" y="815.115"/>
      <point x="259.25" y="791.175"/>
    </contour>
    <contour>
      <point x="165.2" y="758.685" type="curve" smooth="yes"/>
      <point x="160.925" y="750.99"/>
      <point x="160.925" y="739.02"/>
      <point x="158.359" y="730.47" type="curve" smooth="yes"/>
      <point x="149.81" y="699.69"/>
      <point x="108.77" y="709.095"/>
      <point x="111.335" y="739.02" type="curve" smooth="yes"/>
      <point x="111.335" y="750.99"/>
      <point x="117.319" y="762.96"/>
      <point x="117.319" y="774.931" type="curve"/>
      <point x="136.984" y="815.115"/>
      <point x="171.185" y="791.175"/>
    </contour>
    <contour>
      <point x="90" y="159" type="curve"/>
      <point x="113" y="62"/>
      <point x="195" y="21"/>
      <point x="248" y="124" type="curve" smooth="yes"/>
      <point x="316" y="263"/>
      <point x="308" y="449"/>
      <point x="283" y="593" type="curve" smooth="yes"/>
      <point x="279" y="613"/>
      <point x="275" y="634"/>
      <point x="273" y="653" type="curve" smooth="yes"/>
      <point x="276" y="699"/>
      <point x="318" y="708"/>
      <point x="329" y="664" type="curve" smooth="yes"/>
      <point x="359" y="497"/>
      <point x="372" y="329"/>
      <point x="324" y="161" type="curve" smooth="yes"/>
      <point x="312" y="118"/>
      <point x="292" y="78"/>
      <point x="265" y="45" type="curve" smooth="yes"/>
      <point x="224" y="-6"/>
      <point x="167" y="-14"/>
      <point x="116" y="23" type="curve" smooth="yes"/>
      <point x="79" y="47"/>
      <point x="59" y="82"/>
      <point x="40" y="126" type="curve" smooth="yes"/>
      <point x="-17" y="288"/>
      <point x="9" y="478"/>
      <point x="21" y="640" type="curve" smooth="yes"/>
      <point x="21" y="650"/>
      <point x="21" y="660"/>
      <point x="23" y="667" type="curve" smooth="yes"/>
      <point x="31" y="701"/>
      <point x="72" y="702"/>
      <point x="76" y="667" type="curve" smooth="yes"/>
      <point x="78" y="656"/>
      <point x="78" y="646"/>
      <point x="78" y="634" type="curve" smooth="yes"/>
      <point x="63" y="468"/>
      <point x="44" y="311"/>
    </contour>
  </outline>
</glyph>
<glyph name="Yacute" format="2">
  <advance width="398"/>
  <unicode hex="00DD"/>
  <outline>
    <contour>
      <point x="143.74" y="732" type="curve" smooth="yes"/>
      <point x="142.3" y="716.641"/>
      <point x="158.548" y="706.031"/>
      <point x="168.74" y="715" type="curve" smooth="yes"/>
      <point x="192.74" y="736.12"/>
      <point x="204.36" y="747.96"/>
      <point x="225" y="770.521" type="curve"/>
      <point x="236.52" y="789.721"/>
      <point x="209.533" y="801.554"/>
      <point x="201.58" y="793.601" type="curve" smooth="yes"/>
      <point x="187.18" y="779.2"/>
      <point x="145.047" y="745.934"/>
    </contour>
    <contour>
      <point x="162" y="372" type="curve"/>
      <point x="208" y="466"/>
      <point x="245" y="563"/>
      <point x="289" y="656" type="curve" smooth="yes"/>
      <point x="291" y="661"/>
      <point x="295" y="669"/>
      <point x="300" y="674" type="curve" smooth="yes"/>
      <point x="327" y="696"/>
      <point x="360" y="671"/>
      <point x="346" y="644" type="curve" smooth="yes"/>
      <point x="339" y="626"/>
      <point x="331" y="609"/>
      <point x="323" y="592" type="curve" smooth="yes"/>
      <point x="283" y="503"/>
      <point x="244" y="412"/>
      <point x="207" y="321" type="curve" smooth="yes"/>
      <point x="198" y="304"/>
      <point x="195" y="283"/>
      <point x="194" y="264" type="curve" smooth="yes"/>
      <point x="191" y="185"/>
      <point x="184" y="108"/>
      <point x="194" y="34" type="curve" smooth="yes"/>
      <point x="202" y="-7"/>
      <point x="151" y="-18"/>
      <point x="137" y="18" type="curve" smooth="yes"/>
      <point x="135" y="28"/>
      <point x="134" y="39"/>
      <point x="134" y="51" type="curve" smooth="yes"/>
      <point x="135" y="92"/>
      <point x="134" y="132"/>
      <point x="137" y="173" type="curve" smooth="yes"/>
      <point x="142" y="220"/>
      <point x="134" y="266"/>
      <point x="120" y="309" type="curve" smooth="yes"/>
      <point x="87" y="408"/>
      <point x="56" y="509"/>
      <point x="26" y="607" type="curve" smooth="yes"/>
      <point x="21" y="620"/>
      <point x="14" y="636"/>
      <point x="12" y="650" type="curve" smooth="yes"/>
      <point x="3" y="700"/>
      <point x="51" y="713"/>
      <point x="67" y="666" type="curve" smooth="yes"/>
      <point x="72" y="646"/>
      <point x="78" y="626"/>
      <point x="84" y="607" type="curve" smooth="yes"/>
      <point x="111" y="521"/>
      <point x="137" y="446"/>
    </contour>
  </outline>
</glyph>
<glyph name="Thorn" format="2">
  <advance width="192"/>
  <unicode hex="00DE"/>
  <outline>
    <contour>
      <point x="61" y="58" type="curve"/>
      <point x="61" y="36"/>
      <point x="65.2969" y="26.8281"/>
      <point x="60" y="18" type="curve" smooth="yes"/>
      <point x="57" y="13"/>
      <point x="53.9746" y="10.1624"/>
      <point x="47" y="9" type="curve" smooth="yes"/>
      <point x="41" y="8"/>
      <point x="39" y="8"/>
      <point x="30" y="8" type="curve" smooth="yes"/>
      <point x="10.9737" y="8"/>
      <point x="4" y="18"/>
      <point x="4" y="43" type="curve" smooth="yes"/>
      <point x="4" y="256"/>
      <point x="9" y="458"/>
      <point x="10" y="660" type="curve" smooth="yes"/>
      <point x="10" y="723"/>
      <point x="64" y="723"/>
      <point x="64" y="657" type="curve" smooth="yes"/>
      <point x="63.8018" y="613.8"/>
      <point x="63.5644" y="571.661"/>
      <point x="63.311" y="530.379" type="curve"/>
      <point x="121.825" y="568.307"/>
      <point x="215.847" y="589.135"/>
      <point x="273" y="554" type="curve" smooth="yes"/>
      <point x="292" y="542"/>
      <point x="306" y="523.25"/>
      <point x="314" y="498.5" type="curve" smooth="yes"/>
      <point x="340" y="413.75"/>
      <point x="316" y="359"/>
      <point x="243" y="289.25" type="curve" smooth="yes"/>
      <point x="201" y="251.75"/>
      <point x="151.344" y="222.582"/>
      <point x="98" y="195.5" type="curve" smooth="yes"/>
      <point x="82.0851" y="187.42"/>
      <point x="70.0929" y="179.399"/>
      <point x="61.2116" y="171.077" type="curve"/>
      <point x="61.0783" y="133.211"/>
      <point x="61" y="95.5862"/>
    </contour>
    <contour>
      <point x="62.9619" y="475.221" type="curve" smooth="yes"/>
      <point x="62.4122" y="390.443"/>
      <point x="61.8387" y="309.017"/>
      <point x="61.4548" y="229.095" type="curve"/>
      <point x="100.753" y="244.605"/>
      <point x="130.848" y="263.615"/>
      <point x="160" y="284.75" type="curve" smooth="yes"/>
      <point x="242" y="343.25"/>
      <point x="292" y="409.25"/>
      <point x="260" y="490.25" type="curve" smooth="yes"/>
      <point x="229" y="568.25"/>
      <point x="102" y="510.5"/>
      <point x="63" y="475.25" type="curve" smooth="yes"/>
      <point x="62.9873" y="475.24"/>
      <point x="62.9746" y="475.231"/>
    </contour>
  </outline>
</glyph>
<glyph name="agrave" format="2">
  <advance width="472"/>
  <unicode hex="00E0"/>
  <outline>
    <contour>
      <point x="251" y="584" type="curve" smooth="yes"/>
      <point x="252.44" y="568.641"/>
      <point x="236.192" y="558.031"/>
      <point x="226" y="567" type="curve" smooth="yes"/>
      <point x="202" y="588.12"/>
      <point x="190.38" y="599.96"/>
      <point x="169.74" y="622.521" type="curve"/>
      <point x="158.221" y="641.721"/>
      <point x="185.207" y="653.554"/>
      <point x="193.16" y="645.601" type="curve" smooth="yes"/>
      <point x="207.561" y="631.2"/>
      <point x="249.693" y="597.934"/>
    </contour>
    <contour>
      <point x="314" y="195" type="curve"/>
      <point x="309" y="187"/>
      <point x="303" y="177"/>
      <point x="299" y="168" type="curve" smooth="yes"/>
      <point x="262" y="101"/>
      <point x="217" y="34"/>
      <point x="146" y="7" type="curve" smooth="yes"/>
      <point x="42" y="-32"/>
      <point x="14" y="97"/>
      <point x="7" y="169" type="curve" smooth="yes"/>
      <point x="-4" y="282"/>
      <point x="42" y="434"/>
      <point x="138" y="493" type="curve" smooth="yes"/>
      <point x="227" y="549"/>
      <point x="365" y="508"/>
      <point x="386" y="406" type="curve"/>
      <point x="384" y="339"/>
      <point x="378" y="272"/>
      <point x="376" y="204" type="curve" smooth="yes"/>
      <point x="375" y="145"/>
      <point x="387" y="98"/>
      <point x="416" y="51" type="curve" smooth="yes"/>
      <point x="434" y="21"/>
      <point x="391" y="6"/>
      <point x="370" y="25" type="curve" smooth="yes"/>
      <point x="336" y="54"/>
      <point x="323" y="128"/>
      <point x="322" y="169" type="curve" smooth="yes"/>
      <point x="321" y="178"/>
      <point x="324" y="195"/>
    </contour>
    <contour>
      <point x="61" y="223" type="curve"/>
      <point x="61" y="171"/>
      <point x="68" y="19"/>
      <point x="135" y="56" type="curve" smooth="yes"/>
      <point x="204" y="93"/>
      <point x="245" y="176"/>
      <point x="272" y="244" type="curve" smooth="yes"/>
      <point x="292" y="292"/>
      <point x="312" y="341"/>
      <point x="329" y="390" type="curve"/>
      <point x="312" y="476"/>
      <point x="204" y="494"/>
      <point x="146" y="434" type="curve" smooth="yes"/>
      <point x="91" y="379"/>
      <point x="69" y="295"/>
    </contour>
  </outline>
</glyph>
<glyph name="aacute" format="2">
  <advance width="472"/>
  <unicode hex="00E1"/>
  <outline>
    <contour>
      <point x="184.74" y="585" type="curve" smooth="yes"/>
      <point x="183.3" y="569.641"/>
      <point x="199.548" y="559.031"/>
      <point x="209.74" y="568" type="curve" smooth="yes"/>
      <point x="233.74" y="589.12"/>
      <point x="245.36" y="600.96"/>
      <point x="266" y="623.521" type="curve"/>
      <point x="277.52" y="642.721"/>
      <point x="250.533" y="654.554"/>
      <point x="242.58" y="646.601" type="curve" smooth="yes"/>
      <point x="228.18" y="632.2"/>
      <point x="186.047" y="598.934"/>
    </contour>
    <contour>
      <point x="314" y="195" type="curve"/>
      <point x="309" y="187"/>
      <point x="303" y="177"/>
      <point x="299" y="168" type="curve" smooth="yes"/>
      <point x="262" y="101"/>
      <point x="217" y="34"/>
      <point x="146" y="7" type="curve" smooth="yes"/>
      <point x="42" y="-32"/>
      <point x="14" y="97"/>
      <point x="7" y="169" type="curve" smooth="yes"/>
      <point x="-4" y="282"/>
      <point x="42" y="434"/>
      <point x="138" y="493" type="curve" smooth="yes"/>
      <point x="227" y="549"/>
      <point x="365" y="508"/>
      <point x="386" y="406" type="curve"/>
      <point x="384" y="339"/>
      <point x="378" y="272"/>
      <point x="376" y="204" type="curve" smooth="yes"/>
      <point x="375" y="145"/>
      <point x="387" y="98"/>
      <point x="416" y="51" type="curve" smooth="yes"/>
      <point x="434" y="21"/>
      <point x="391" y="6"/>
      <point x="370" y="25" type="curve" smooth="yes"/>
      <point x="336" y="54"/>
      <point x="323" y="128"/>
      <point x="322" y="169" type="curve" smooth="yes"/>
      <point x="321" y="178"/>
      <point x="324" y="195"/>
    </contour>
    <contour>
      <point x="61" y="223" type="curve"/>
      <point x="61" y="171"/>
      <point x="68" y="19"/>
      <point x="135" y="56" type="curve" smooth="yes"/>
      <point x="204" y="93"/>
      <point x="245" y="176"/>
      <point x="272" y="244" type="curve" smooth="yes"/>
      <point x="292" y="292"/>
      <point x="312" y="341"/>
      <point x="329" y="390" type="curve"/>
      <point x="312" y="476"/>
      <point x="204" y="494"/>
      <point x="146" y="434" type="curve" smooth="yes"/>
      <point x="91" y="379"/>
      <point x="69" y="295"/>
    </contour>
  </outline>
</glyph>
<glyph name="acircumflex" format="2">
  <advance width="472"/>
  <unicode hex="00E2"/>
  <outline>
    <contour>
      <point x="226.769" y="609.645" type="curve"/>
      <point x="214.337" y="591.836"/>
      <point x="208.064" y="582.588"/>
      <point x="196.769" y="565.645" type="curve" smooth="yes"/>
      <point x="184.769" y="547.645"/>
      <point x="163.104" y="564.408"/>
      <point x="172.769" y="578.645" type="curve" smooth="yes"/>
      <point x="185.104" y="596.815"/>
      <point x="198.209" y="615.984"/>
      <point x="210.072" y="634" type="curve" smooth="yes"/>
      <point x="219.145" y="647.777"/>
      <point x="232.011" y="647.855"/>
      <point x="243" y="634" type="curve" smooth="yes"/>
      <point x="258.456" y="614.513"/>
      <point x="271.324" y="597.236"/>
      <point x="286.769" y="576.645" type="curve" smooth="yes"/>
      <point x="294.833" y="565.893"/>
      <point x="275.769" y="548.645"/>
      <point x="264.769" y="561.645" type="curve" smooth="yes"/>
      <point x="246.476" y="583.264"/>
      <point x="243.568" y="587.469"/>
    </contour>
    <contour>
      <point x="314" y="195" type="curve"/>
      <point x="309" y="187"/>
      <point x="303" y="177"/>
      <point x="299" y="168" type="curve" smooth="yes"/>
      <point x="262" y="101"/>
      <point x="217" y="34"/>
      <point x="146" y="7" type="curve" smooth="yes"/>
      <point x="42" y="-32"/>
      <point x="14" y="97"/>
      <point x="7" y="169" type="curve" smooth="yes"/>
      <point x="-4" y="282"/>
      <point x="42" y="434"/>
      <point x="138" y="493" type="curve" smooth="yes"/>
      <point x="227" y="549"/>
      <point x="365" y="508"/>
      <point x="386" y="406" type="curve"/>
      <point x="384" y="339"/>
      <point x="378" y="272"/>
      <point x="376" y="204" type="curve" smooth="yes"/>
      <point x="375" y="145"/>
      <point x="387" y="98"/>
      <point x="416" y="51" type="curve" smooth="yes"/>
      <point x="434" y="21"/>
      <point x="391" y="6"/>
      <point x="370" y="25" type="curve" smooth="yes"/>
      <point x="336" y="54"/>
      <point x="323" y="128"/>
      <point x="322" y="169" type="curve" smooth="yes"/>
      <point x="321" y="178"/>
      <point x="324" y="195"/>
    </contour>
    <contour>
      <point x="61" y="223" type="curve"/>
      <point x="61" y="171"/>
      <point x="68" y="19"/>
      <point x="135" y="56" type="curve" smooth="yes"/>
      <point x="204" y="93"/>
      <point x="245" y="176"/>
      <point x="272" y="244" type="curve" smooth="yes"/>
      <point x="292" y="292"/>
      <point x="312" y="341"/>
      <point x="329" y="390" type="curve"/>
      <point x="312" y="476"/>
      <point x="204" y="494"/>
      <point x="146" y="434" type="curve" smooth="yes"/>
      <point x="91" y="379"/>
      <point x="69" y="295"/>
    </contour>
  </outline>
</glyph>
<glyph name="NameMe.152" format="2">
  <advance width="472"/>
  <unicode hex="00E3"/>
  <outline>
    <contour>
      <point x="207" y="582" type="curve" smooth="yes"/>
      <point x="189.24" y="596.4"/>
      <point x="177.24" y="595.44"/>
      <point x="161.4" y="579.12" type="curve"/>
      <point x="140.76" y="551.761"/>
      <point x="117.721" y="571.44"/>
      <point x="127.8" y="587.28" type="curve"/>
      <point x="143.16" y="620.4"/>
      <point x="185.881" y="643.921"/>
      <point x="219.48" y="612.721" type="curve"/>
      <point x="241.561" y="596.4"/>
      <point x="261.24" y="590.64"/>
      <point x="278.04" y="609.36" type="curve" smooth="yes"/>
      <point x="282.84" y="614.16"/>
      <point x="287.64" y="619.921"/>
      <point x="291.96" y="623.28" type="curve" smooth="yes"/>
      <point x="304.439" y="632.88"/>
      <point x="318.84" y="618"/>
      <point x="314.521" y="604.561" type="curve" smooth="yes"/>
      <point x="303.48" y="572.88"/>
      <point x="248.76" y="545.521"/>
    </contour>
    <contour>
      <point x="314" y="195" type="curve"/>
      <point x="309" y="187"/>
      <point x="303" y="177"/>
      <point x="299" y="168" type="curve" smooth="yes"/>
      <point x="262" y="101"/>
      <point x="217" y="34"/>
      <point x="146" y="7" type="curve" smooth="yes"/>
      <point x="42" y="-32"/>
      <point x="14" y="97"/>
      <point x="7" y="169" type="curve" smooth="yes"/>
      <point x="-4" y="282"/>
      <point x="42" y="434"/>
      <point x="138" y="493" type="curve" smooth="yes"/>
      <point x="227" y="549"/>
      <point x="365" y="508"/>
      <point x="386" y="406" type="curve"/>
      <point x="384" y="339"/>
      <point x="378" y="272"/>
      <point x="376" y="204" type="curve" smooth="yes"/>
      <point x="375" y="145"/>
      <point x="387" y="98"/>
      <point x="416" y="51" type="curve" smooth="yes"/>
      <point x="434" y="21"/>
      <point x="391" y="6"/>
      <point x="370" y="25" type="curve" smooth="yes"/>
      <point x="336" y="54"/>
      <point x="323" y="128"/>
      <point x="322" y="169" type="curve" smooth="yes"/>
      <point x="321" y="178"/>
      <point x="324" y="195"/>
    </contour>
    <contour>
      <point x="61" y="223" type="curve"/>
      <point x="61" y="171"/>
      <point x="68" y="19"/>
      <point x="135" y="56" type="curve" smooth="yes"/>
      <point x="204" y="93"/>
      <point x="245" y="176"/>
      <point x="272" y="244" type="curve" smooth="yes"/>
      <point x="292" y="292"/>
      <point x="312" y="341"/>
      <point x="329" y="390" type="curve"/>
      <point x="312" y="476"/>
      <point x="204" y="494"/>
      <point x="146" y="434" type="curve" smooth="yes"/>
      <point x="91" y="379"/>
      <point x="69" y="295"/>
    </contour>
  </outline>
</glyph>
<glyph name="NameMe.153" format="2">
  <advance width="472"/>
  <unicode hex="00E4"/>
  <outline>
    <contour>
      <point x="281.84" y="610.215" type="curve" smooth="yes"/>
      <point x="277.565" y="602.521"/>
      <point x="277.565" y="590.55"/>
      <point x="275" y="582" type="curve" smooth="yes"/>
      <point x="266.45" y="551.221"/>
      <point x="225.41" y="560.625"/>
      <point x="227.975" y="590.55" type="curve" smooth="yes"/>
      <point x="227.975" y="602.521"/>
      <point x="233.96" y="614.49"/>
      <point x="233.96" y="626.461" type="curve"/>
      <point x="253.625" y="666.646"/>
      <point x="287.825" y="642.705"/>
    </contour>
    <contour>
      <point x="193.775" y="610.215" type="curve" smooth="yes"/>
      <point x="189.5" y="602.521"/>
      <point x="189.5" y="590.55"/>
      <point x="186.935" y="582" type="curve" smooth="yes"/>
      <point x="178.385" y="551.221"/>
      <point x="137.345" y="560.625"/>
      <point x="139.91" y="590.55" type="curve" smooth="yes"/>
      <point x="139.91" y="602.521"/>
      <point x="145.895" y="614.49"/>
      <point x="145.895" y="626.461" type="curve"/>
      <point x="165.56" y="666.646"/>
      <point x="199.76" y="642.705"/>
    </contour>
    <contour>
      <point x="314" y="195" type="curve"/>
      <point x="309" y="187"/>
      <point x="303" y="177"/>
      <point x="299" y="168" type="curve" smooth="yes"/>
      <point x="262" y="101"/>
      <point x="217" y="34"/>
      <point x="146" y="7" type="curve" smooth="yes"/>
      <point x="42" y="-32"/>
      <point x="14" y="97"/>
      <point x="7" y="169" type="curve" smooth="yes"/>
      <point x="-4" y="282"/>
      <point x="42" y="434"/>
      <point x="138" y="493" type="curve" smooth="yes"/>
      <point x="227" y="549"/>
      <point x="365" y="508"/>
      <point x="386" y="406" type="curve"/>
      <point x="384" y="339"/>
      <point x="378" y="272"/>
      <point x="376" y="204" type="curve" smooth="yes"/>
      <point x="375" y="145"/>
      <point x="387" y="98"/>
      <point x="416" y="51" type="curve" smooth="yes"/>
      <point x="434" y="21"/>
      <point x="391" y="6"/>
      <point x="370" y="25" type="curve" smooth="yes"/>
      <point x="336" y="54"/>
      <point x="323" y="128"/>
      <point x="322" y="169" type="curve" smooth="yes"/>
      <point x="321" y="178"/>
      <point x="324" y="195"/>
    </contour>
    <contour>
      <point x="61" y="223" type="curve"/>
      <point x="61" y="171"/>
      <point x="68" y="19"/>
      <point x="135" y="56" type="curve" smooth="yes"/>
      <point x="204" y="93"/>
      <point x="245" y="176"/>
      <point x="272" y="244" type="curve" smooth="yes"/>
      <point x="292" y="292"/>
      <point x="312" y="341"/>
      <point x="329" y="390" type="curve"/>
      <point x="312" y="476"/>
      <point x="204" y="494"/>
      <point x="146" y="434" type="curve" smooth="yes"/>
      <point x="91" y="379"/>
      <point x="69" y="295"/>
    </contour>
  </outline>
</glyph>
<glyph name="aring" format="2">
  <advance width="472"/>
  <unicode hex="00E5"/>
  <outline>
    <contour>
      <point x="61" y="223" type="curve"/>
      <point x="61" y="171"/>
      <point x="68" y="19"/>
      <point x="135" y="56" type="curve" smooth="yes"/>
      <point x="204" y="93"/>
      <point x="245" y="176"/>
      <point x="272" y="244" type="curve" smooth="yes"/>
      <point x="292" y="292"/>
      <point x="312" y="341"/>
      <point x="329" y="390" type="curve"/>
      <point x="312" y="476"/>
      <point x="204" y="494"/>
      <point x="146" y="434" type="curve" smooth="yes"/>
      <point x="91" y="379"/>
      <point x="69" y="295"/>
    </contour>
    <contour>
      <point x="314" y="195" type="curve"/>
      <point x="309" y="187"/>
      <point x="303" y="177"/>
      <point x="299" y="168" type="curve" smooth="yes"/>
      <point x="262" y="101"/>
      <point x="217" y="34"/>
      <point x="146" y="7" type="curve" smooth="yes"/>
      <point x="42" y="-32"/>
      <point x="14" y="97"/>
      <point x="7" y="169" type="curve" smooth="yes"/>
      <point x="-4" y="282"/>
      <point x="42" y="434"/>
      <point x="138" y="493" type="curve" smooth="yes"/>
      <point x="149.193" y="500.043"/>
      <point x="161.162" y="505.552"/>
      <point x="173.575" y="509.598" type="curve"/>
      <point x="171.46" y="512.525"/>
      <point x="169.581" y="515.758"/>
      <point x="167.972" y="519.306" type="curve" smooth="yes"/>
      <point x="149.213" y="560.64"/>
      <point x="154.3" y="577.942"/>
      <point x="170.665" y="616.263" type="curve" smooth="yes"/>
      <point x="191.32" y="664.63"/>
      <point x="264.336" y="667.646"/>
      <point x="288.014" y="618.187" type="curve" smooth="yes"/>
      <point x="300.009" y="593.131"/>
      <point x="299.326" y="575.787"/>
      <point x="297.633" y="550.471" type="curve" smooth="yes"/>
      <point x="294.875" y="534.02"/>
      <point x="290.689" y="522.265"/>
      <point x="280.543" y="510.903" type="curve"/>
      <point x="331.893" y="496.124"/>
      <point x="374.999" y="459.432"/>
      <point x="386" y="406" type="curve"/>
      <point x="384" y="339"/>
      <point x="378" y="272"/>
      <point x="376" y="204" type="curve" smooth="yes"/>
      <point x="375" y="145"/>
      <point x="387" y="98"/>
      <point x="416" y="51" type="curve" smooth="yes"/>
      <point x="434" y="21"/>
      <point x="391" y="6"/>
      <point x="370" y="25" type="curve" smooth="yes"/>
      <point x="336" y="54"/>
      <point x="323" y="128"/>
      <point x="322" y="169" type="curve" smooth="yes"/>
      <point x="321" y="178"/>
      <point x="324" y="195"/>
    </contour>
    <contour>
      <point x="264.313" y="552.702" type="curve" smooth="yes"/>
      <point x="266.391" y="569.322"/>
      <point x="266.821" y="575.148"/>
      <point x="260.158" y="592.178" type="curve" smooth="yes"/>
      <point x="247.692" y="624.034"/>
      <point x="209.601" y="617.108"/>
      <point x="197.828" y="592.869" type="curve" smooth="yes"/>
      <point x="187.44" y="572.785"/>
      <point x="189.518" y="556.856"/>
      <point x="198.521" y="536.773" type="curve" smooth="yes"/>
      <point x="210.903" y="515.975"/>
      <point x="228.646" y="514.871"/>
      <point x="247" y="525" type="curve" smooth="yes"/>
      <point x="259.258" y="531.765"/>
      <point x="263.14" y="543.313"/>
    </contour>
  </outline>
</glyph>
